<svg xmlns="http://www.w3.org/2000/svg" xmlns:xlink="http://www.w3.org/1999/xlink" width="500" zoomAndPan="magnify" viewBox="0 0 375 374.999991" height="500" preserveAspectRatio="xMidYMid meet" version="1.2"><defs><clipPath id="15a0ad225c"><path d="M 46.347656 46.527344 L 332 46.527344 L 332 325.527344 L 46.347656 325.527344 Z M 46.347656 46.527344 "/></clipPath></defs><g id="84d922aaa9"><rect x="0" width="375" y="0" height="374.999991" style="fill:#ffffff;fill-opacity:1;stroke:none;"/><rect x="0" width="375" y="0" height="374.999991" style="fill:#ffffff;fill-opacity:1;stroke:none;"/><path style=" stroke:none;fill-rule:nonzero;fill:#000000;fill-opacity:1;" d="M 375 187.722656 C 375 236.152344 356.585938 282.121094 323.167969 317.144531 L 320.351562 314.460938 L 319.277344 313.4375 L 315.703125 310.023438 C 347.285156 276.925781 364.683594 233.492188 364.683594 187.722656 Z M 187.5 0.222656 L 187.5 10.535156 C 234.828125 10.535156 279.328125 28.964844 312.792969 62.429688 L 315.570312 59.648438 L 320.082031 55.136719 C 284.671875 19.726562 237.582031 0.222656 187.5 0.222656 Z M 10.316406 187.722656 L 0 187.722656 C 0 238.273438 19.824219 285.671875 55.808594 321.1875 L 58.710938 318.253906 L 59.75 317.195312 L 63.058594 313.84375 C 29.046875 280.285156 10.316406 235.492188 10.316406 187.722656 Z M 43.5625 75.730469 C 18.679688 107.585938 4.953125 147.171875 4.789062 187.722656 L 6.261719 187.722656 C 6.425781 147.554688 20.015625 108.339844 44.617188 76.773438 C 45.371094 75.800781 46.132812 74.847656 46.90625 73.894531 L 45.761719 72.960938 C 45.015625 73.878906 44.28125 74.804688 43.5625 75.730469 Z M 146.933594 365.460938 C 114.03125 357.890625 83.730469 341.046875 59.75 317.195312 L 58.710938 318.253906 C 82.890625 342.300781 113.453125 359.277344 146.621094 366.898438 C 148.015625 367.226562 149.417969 367.53125 150.824219 367.816406 L 151.117188 366.371094 C 149.714844 366.085938 148.320312 365.78125 146.933594 365.460938 Z M 89.730469 33.816406 L 90.527344 35.0625 C 91.714844 34.308594 92.917969 33.5625 94.121094 32.84375 C 122.25 15.855469 154.441406 6.882812 187.5 6.847656 L 187.5 5.375 C 154.210938 5.410156 121.792969 14.433594 93.464844 31.519531 C 92.207031 32.257812 90.96875 33.027344 89.730469 33.816406 Z M 237.582031 363.105469 C 236.066406 363.546875 234.535156 363.953125 233.003906 364.351562 L 233.375 365.773438 C 234.90625 365.382812 236.421875 364.96875 237.9375 364.527344 C 269.21875 355.589844 297.871094 338.128906 320.351562 314.460938 L 319.277344 313.4375 C 296.996094 336.914062 268.605469 354.226562 237.582031 363.105469 Z M 317.007812 59 C 316.878906 58.871094 316.742188 58.742188 316.609375 58.609375 L 315.570312 59.648438 C 315.703125 59.769531 315.839844 59.910156 315.96875 60.039062 C 350.058594 94.171875 368.910156 139.492188 369.09375 187.722656 L 370.574219 187.722656 C 370.390625 139.09375 351.382812 93.410156 317.007812 59 Z M 47.148438 68.734375 C 44.707031 68.734375 42.730469 70.71875 42.730469 73.152344 C 42.730469 75.585938 44.714844 77.570312 47.148438 77.570312 C 49.582031 77.570312 51.566406 75.585938 51.566406 73.152344 C 51.566406 70.71875 49.589844 68.734375 47.148438 68.734375 Z M 151.03125 362.699219 C 148.589844 362.699219 146.613281 364.679688 146.613281 367.113281 C 146.613281 369.558594 148.597656 371.53125 151.03125 371.53125 C 153.472656 371.53125 155.449219 369.546875 155.449219 367.113281 C 155.457031 364.671875 153.472656 362.699219 151.03125 362.699219 Z M 233.546875 360.480469 C 231.105469 360.480469 229.132812 362.464844 229.132812 364.898438 C 229.132812 367.339844 231.113281 369.316406 233.546875 369.316406 C 235.988281 369.316406 237.964844 367.332031 237.964844 364.898438 C 237.964844 362.464844 235.988281 360.480469 233.546875 360.480469 Z M 89.878906 29.683594 C 87.4375 29.683594 85.460938 31.667969 85.460938 34.101562 C 85.460938 36.535156 87.445312 38.519531 89.878906 38.519531 C 92.3125 38.519531 94.296875 36.535156 94.296875 34.101562 C 94.296875 31.667969 92.320312 29.683594 89.878906 29.683594 Z M 187.59375 356.429688 C 188.410156 356.429688 189.066406 355.761719 189.066406 354.957031 C 189.058594 354.140625 188.402344 353.484375 187.585938 353.484375 C 186.773438 353.484375 186.113281 354.148438 186.113281 354.957031 C 186.113281 355.769531 186.78125 356.429688 187.59375 356.429688 Z M 180.960938 356.308594 C 181.75 356.308594 182.398438 355.683594 182.433594 354.894531 C 182.460938 354.082031 181.828125 353.386719 181.023438 353.363281 C 180.207031 353.335938 179.515625 353.96875 179.488281 354.773438 C 179.464844 355.589844 180.09375 356.273438 180.902344 356.308594 C 180.925781 356.308594 180.945312 356.308594 180.960938 356.308594 Z M 194.21875 356.296875 C 194.238281 356.296875 194.265625 356.296875 194.28125 356.296875 C 195.09375 356.261719 195.726562 355.578125 195.691406 354.765625 C 195.667969 353.949219 194.972656 353.308594 194.160156 353.355469 C 193.347656 353.378906 192.714844 354.074219 192.75 354.886719 C 192.78125 355.683594 193.433594 356.296875 194.21875 356.296875 Z M 174.351562 355.917969 C 175.117188 355.917969 175.757812 355.328125 175.816406 354.558594 C 175.886719 353.742188 175.269531 353.03125 174.457031 352.964844 C 173.644531 352.902344 172.941406 353.507812 172.871094 354.324219 C 172.804688 355.136719 173.417969 355.839844 174.230469 355.910156 C 174.265625 355.917969 174.300781 355.917969 174.351562 355.917969 Z M 200.835938 355.898438 C 200.878906 355.898438 200.914062 355.898438 200.957031 355.890625 C 200.96875 355.890625 200.96875 355.890625 200.96875 355.890625 C 201.78125 355.820312 202.378906 355.121094 202.316406 354.304688 C 202.25 353.492188 201.546875 352.894531 200.722656 352.945312 L 200.734375 352.945312 C 199.917969 353.015625 199.3125 353.726562 199.375 354.539062 C 199.433594 355.3125 200.074219 355.898438 200.835938 355.898438 Z M 167.746094 355.257812 C 168.480469 355.257812 169.121094 354.703125 169.210938 353.960938 C 169.304688 353.144531 168.722656 352.410156 167.917969 352.3125 C 167.105469 352.21875 166.378906 352.789062 166.273438 353.605469 C 166.179688 354.417969 166.757812 355.144531 167.5625 355.242188 C 167.632812 355.25 167.683594 355.257812 167.746094 355.257812 Z M 207.429688 355.242188 C 207.496094 355.242188 207.550781 355.234375 207.609375 355.222656 C 208.421875 355.128906 208.996094 354.394531 208.898438 353.585938 C 208.796875 352.773438 208.070312 352.203125 207.253906 352.296875 C 206.441406 352.390625 205.867188 353.128906 205.964844 353.941406 C 206.066406 354.6875 206.699219 355.242188 207.429688 355.242188 Z M 161.179688 354.339844 C 161.898438 354.339844 162.523438 353.820312 162.636719 353.101562 C 162.765625 352.296875 162.21875 351.542969 161.421875 351.414062 C 160.617188 351.285156 159.863281 351.839844 159.726562 352.625 C 159.605469 353.429688 160.140625 354.183594 160.945312 354.324219 C 161.023438 354.332031 161.113281 354.339844 161.179688 354.339844 Z M 213.992188 354.304688 C 214.070312 354.304688 214.15625 354.296875 214.234375 354.289062 C 215.039062 354.160156 215.585938 353.398438 215.449219 352.589844 C 215.328125 351.785156 214.5625 351.242188 213.757812 351.378906 C 212.953125 351.5 212.40625 352.261719 212.546875 353.066406 C 212.660156 353.796875 213.28125 354.304688 213.992188 354.304688 Z M 154.660156 353.164062 C 155.34375 353.164062 155.957031 352.679688 156.097656 351.976562 C 156.261719 351.179688 155.742188 350.398438 154.945312 350.246094 C 154.148438 350.078125 153.367188 350.597656 153.203125 351.394531 C 153.039062 352.191406 153.558594 352.972656 154.363281 353.136719 C 154.460938 353.144531 154.5625 353.164062 154.660156 353.164062 Z M 220.523438 353.121094 C 220.617188 353.121094 220.722656 353.101562 220.816406 353.085938 C 221.613281 352.921875 222.125 352.148438 221.96875 351.351562 C 221.804688 350.546875 221.023438 350.046875 220.226562 350.199219 C 219.429688 350.355469 218.921875 351.136719 219.078125 351.933594 C 219.214844 352.632812 219.839844 353.121094 220.523438 353.121094 Z M 148.191406 351.707031 C 148.855469 351.707031 149.453125 351.257812 149.628906 350.589844 C 149.816406 349.792969 149.332031 348.996094 148.546875 348.808594 C 147.75 348.617188 146.953125 349.09375 146.761719 349.878906 C 146.570312 350.675781 147.046875 351.472656 147.84375 351.664062 C 147.957031 351.691406 148.078125 351.707031 148.191406 351.707031 Z M 226.992188 351.664062 C 227.113281 351.664062 227.226562 351.648438 227.347656 351.621094 C 228.136719 351.429688 228.621094 350.632812 228.421875 349.835938 C 228.230469 349.050781 227.433594 348.5625 226.636719 348.761719 C 225.847656 348.953125 225.371094 349.757812 225.5625 350.546875 C 225.726562 351.214844 226.324219 351.664062 226.992188 351.664062 Z M 141.78125 350 C 142.421875 350 143.011719 349.585938 143.191406 348.945312 C 143.417969 348.164062 142.96875 347.34375 142.179688 347.117188 C 141.398438 346.894531 140.578125 347.34375 140.359375 348.132812 C 140.136719 348.910156 140.585938 349.734375 141.367188 349.949219 C 141.511719 349.984375 141.644531 350 141.78125 350 Z M 233.402344 349.949219 C 233.53125 349.949219 233.667969 349.933594 233.808594 349.898438 C 234.585938 349.671875 235.039062 348.851562 234.820312 348.070312 C 234.597656 347.292969 233.773438 346.839844 232.992188 347.066406 C 232.214844 347.292969 231.753906 348.113281 231.980469 348.894531 C 232.171875 349.535156 232.761719 349.949219 233.402344 349.949219 Z M 135.449219 348.035156 C 136.066406 348.035156 136.644531 347.644531 136.851562 347.03125 C 137.113281 346.261719 136.6875 345.421875 135.917969 345.167969 C 135.148438 344.910156 134.316406 345.332031 134.054688 346.097656 C 133.796875 346.867188 134.21875 347.699219 134.992188 347.957031 C 135.136719 348.011719 135.292969 348.035156 135.449219 348.035156 Z M 239.722656 347.984375 C 239.878906 347.984375 240.035156 347.957031 240.191406 347.90625 C 240.960938 347.644531 241.378906 346.816406 241.117188 346.042969 C 240.855469 345.273438 240.027344 344.859375 239.253906 345.117188 C 238.484375 345.378906 238.070312 346.207031 238.328125 346.980469 C 238.535156 347.59375 239.109375 347.984375 239.722656 347.984375 Z M 129.1875 345.808594 C 129.785156 345.808594 130.347656 345.445312 130.566406 344.859375 C 130.851562 344.09375 130.46875 343.246094 129.707031 342.960938 C 128.945312 342.675781 128.097656 343.054688 127.8125 343.816406 C 127.527344 344.582031 127.90625 345.429688 128.667969 345.714844 C 128.84375 345.777344 129.007812 345.808594 129.1875 345.808594 Z M 245.96875 345.75 C 246.140625 345.75 246.320312 345.722656 246.488281 345.65625 C 247.25 345.367188 247.628906 344.511719 247.34375 343.757812 C 247.058594 342.996094 246.210938 342.613281 245.449219 342.898438 C 244.683594 343.1875 244.304688 344.042969 244.589844 344.796875 C 244.816406 345.386719 245.378906 345.75 245.96875 345.75 Z M 123.023438 343.332031 C 123.59375 343.332031 124.140625 342.996094 124.382812 342.433594 C 124.703125 341.679688 124.355469 340.820312 123.601562 340.5 C 122.859375 340.179688 121.992188 340.527344 121.671875 341.273438 C 121.351562 342.027344 121.699219 342.882812 122.449219 343.203125 C 122.632812 343.289062 122.832031 343.332031 123.023438 343.332031 Z M 252.097656 343.273438 C 252.296875 343.273438 252.488281 343.238281 252.679688 343.152344 C 253.433594 342.832031 253.777344 341.972656 253.449219 341.21875 C 253.128906 340.464844 252.273438 340.121094 251.519531 340.441406 L 251.519531 340.449219 C 250.765625 340.769531 250.417969 341.636719 250.746094 342.378906 C 250.980469 342.945312 251.527344 343.273438 252.097656 343.273438 Z M 116.960938 340.597656 C 117.503906 340.597656 118.035156 340.285156 118.292969 339.757812 C 118.640625 339.019531 118.320312 338.144531 117.59375 337.789062 C 116.855469 337.445312 115.972656 337.765625 115.625 338.492188 C 115.28125 339.226562 115.589844 340.101562 116.328125 340.457031 C 116.535156 340.554688 116.753906 340.597656 116.960938 340.597656 Z M 258.136719 340.554688 C 258.351562 340.5625 258.558594 340.511719 258.765625 340.414062 C 259.496094 340.058594 259.816406 339.183594 259.46875 338.457031 C 259.113281 337.722656 258.238281 337.402344 257.503906 337.757812 C 256.765625 338.101562 256.453125 338.976562 256.800781 339.714844 C 257.042969 340.242188 257.582031 340.554688 258.136719 340.554688 Z M 111.019531 337.625 C 111.546875 337.625 112.066406 337.339844 112.328125 336.839844 C 112.707031 336.121094 112.429688 335.226562 111.710938 334.847656 C 111 334.472656 110.109375 334.742188 109.71875 335.460938 C 109.347656 336.179688 109.617188 337.070312 110.335938 337.453125 C 110.550781 337.582031 110.792969 337.625 111.019531 337.625 Z M 264.050781 337.601562 C 264.285156 337.601562 264.519531 337.539062 264.734375 337.425781 C 264.734375 337.417969 264.734375 337.417969 264.734375 337.417969 C 265.453125 337.046875 265.730469 336.152344 265.347656 335.425781 C 264.976562 334.714844 264.085938 334.429688 263.355469 334.8125 C 262.636719 335.191406 262.351562 336.085938 262.742188 336.8125 C 263.011719 337.3125 263.511719 337.589844 264.050781 337.601562 Z M 105.207031 334.421875 C 105.71875 334.421875 106.210938 334.152344 106.480469 333.6875 C 106.898438 332.976562 106.652344 332.082031 105.945312 331.675781 C 105.242188 331.269531 104.339844 331.503906 103.933594 332.214844 C 103.527344 332.921875 103.761719 333.816406 104.472656 334.222656 C 104.707031 334.359375 104.957031 334.421875 105.207031 334.421875 Z M 269.84375 334.394531 C 270.09375 334.394531 270.347656 334.335938 270.582031 334.195312 C 271.28125 333.789062 271.523438 332.890625 271.109375 332.1875 C 270.703125 331.476562 269.800781 331.242188 269.097656 331.648438 C 268.398438 332.066406 268.15625 332.957031 268.5625 333.660156 C 268.839844 334.128906 269.332031 334.394531 269.84375 334.394531 Z M 99.527344 330.984375 C 100.011719 330.984375 100.488281 330.742188 100.773438 330.300781 C 101.207031 329.613281 101.007812 328.695312 100.316406 328.265625 C 99.628906 327.832031 98.710938 328.039062 98.28125 328.722656 C 97.847656 329.414062 98.054688 330.324219 98.738281 330.757812 C 98.980469 330.914062 99.25 330.984375 99.527344 330.984375 Z M 275.5 330.964844 C 275.769531 330.964844 276.046875 330.898438 276.289062 330.742188 C 276.972656 330.308594 277.179688 329.390625 276.746094 328.707031 C 276.3125 328.011719 275.394531 327.8125 274.710938 328.246094 C 274.027344 328.679688 273.820312 329.589844 274.253906 330.28125 C 274.539062 330.722656 275.015625 330.964844 275.5 330.964844 Z M 93.992188 327.320312 C 94.460938 327.320312 94.917969 327.09375 95.203125 326.6875 C 95.671875 326.019531 95.507812 325.101562 94.832031 324.636719 C 94.164062 324.167969 93.238281 324.339844 92.78125 325.007812 C 92.320312 325.675781 92.484375 326.601562 93.152344 327.058594 C 93.414062 327.242188 93.707031 327.320312 93.992188 327.320312 Z M 281.023438 327.3125 C 281.3125 327.3125 281.597656 327.234375 281.855469 327.050781 C 282.523438 326.582031 282.695312 325.675781 282.230469 325 C 281.761719 324.332031 280.851562 324.160156 280.175781 324.625 C 279.507812 325.09375 279.335938 326.003906 279.804688 326.671875 C 280.097656 327.085938 280.558594 327.3125 281.023438 327.3125 Z M 88.605469 323.441406 C 89.054688 323.441406 89.496094 323.242188 89.785156 322.859375 C 90.277344 322.203125 90.148438 321.285156 89.496094 320.789062 C 88.839844 320.304688 87.921875 320.433594 87.4375 321.085938 C 86.941406 321.734375 87.074219 322.660156 87.722656 323.144531 C 87.992188 323.34375 88.300781 323.441406 88.605469 323.441406 Z M 286.402344 323.429688 C 286.714844 323.429688 287.019531 323.335938 287.285156 323.136719 C 287.9375 322.652344 288.066406 321.734375 287.570312 321.074219 C 287.085938 320.425781 286.167969 320.296875 285.511719 320.789062 C 284.863281 321.273438 284.730469 322.191406 285.226562 322.851562 C 285.511719 323.230469 285.953125 323.429688 286.402344 323.429688 Z M 83.390625 319.351562 C 83.816406 319.351562 84.242188 319.160156 84.535156 318.808594 C 85.054688 318.183594 84.960938 317.246094 84.320312 316.738281 L 84.328125 316.738281 C 83.695312 316.21875 82.769531 316.3125 82.25 316.945312 C 81.730469 317.578125 81.832031 318.503906 82.457031 319.015625 C 82.726562 319.238281 83.0625 319.351562 83.390625 319.351562 Z M 291.609375 319.34375 C 291.9375 319.34375 292.273438 319.238281 292.542969 319.015625 C 293.167969 318.496094 293.261719 317.578125 292.75 316.945312 C 292.238281 316.3125 291.304688 316.226562 290.679688 316.738281 C 290.050781 317.246094 289.953125 318.175781 290.472656 318.808594 C 290.757812 319.160156 291.191406 319.34375 291.609375 319.34375 Z M 296.65625 315.058594 C 297.011719 315.058594 297.359375 314.933594 297.636719 314.683594 C 298.25 314.148438 298.300781 313.222656 297.757812 312.605469 C 297.21875 311.992188 296.285156 311.9375 295.679688 312.484375 C 295.0625 313.023438 295.011719 313.957031 295.558594 314.5625 C 295.84375 314.882812 296.25 315.058594 296.65625 315.058594 Z M 78.335938 315.046875 C 78.742188 315.046875 79.148438 314.875 79.441406 314.554688 C 79.980469 313.941406 79.929688 313.011719 79.320312 312.46875 C 78.707031 311.929688 77.78125 311.992188 77.242188 312.597656 C 76.699219 313.203125 76.757812 314.140625 77.363281 314.675781 C 77.640625 314.925781 77.988281 315.046875 78.335938 315.046875 Z M 301.53125 310.5625 C 301.90625 310.5625 302.269531 310.421875 302.546875 310.144531 C 303.136719 309.582031 303.152344 308.648438 302.589844 308.058594 C 302.027344 307.46875 301.089844 307.453125 300.503906 308.015625 C 299.921875 308.578125 299.894531 309.515625 300.460938 310.101562 C 300.761719 310.40625 301.144531 310.5625 301.53125 310.5625 Z M 73.46875 310.554688 C 73.847656 310.554688 74.238281 310.398438 74.523438 310.09375 C 75.09375 309.515625 75.070312 308.578125 74.480469 308.015625 C 73.890625 307.445312 72.964844 307.46875 72.394531 308.050781 C 71.832031 308.640625 71.855469 309.566406 72.4375 310.136719 C 72.730469 310.414062 73.09375 310.554688 73.46875 310.554688 Z M 306.21875 305.867188 C 306.609375 305.867188 306.988281 305.722656 307.285156 305.417969 C 307.273438 305.417969 307.273438 305.417969 307.273438 305.417969 C 307.835938 304.828125 307.820312 303.902344 307.238281 303.332031 C 306.652344 302.765625 305.722656 302.785156 305.152344 303.375 C 304.582031 303.953125 304.605469 304.890625 305.195312 305.460938 C 305.492188 305.738281 305.847656 305.867188 306.21875 305.867188 Z M 68.773438 305.867188 C 69.144531 305.867188 69.507812 305.730469 69.796875 305.453125 C 70.375 304.890625 70.402344 303.953125 69.828125 303.363281 C 69.265625 302.785156 68.332031 302.757812 67.75 303.320312 C 67.164062 303.882812 67.136719 304.828125 67.707031 305.410156 C 68.003906 305.710938 68.390625 305.867188 68.773438 305.867188 Z M 310.722656 301 C 311.128906 301 311.535156 300.828125 311.832031 300.507812 C 312.367188 299.890625 312.304688 298.964844 311.707031 298.421875 C 311.09375 297.882812 310.167969 297.945312 309.621094 298.542969 C 309.085938 299.15625 309.144531 300.082031 309.742188 300.628906 C 310.019531 300.878906 310.375 301 310.722656 301 Z M 64.277344 301 C 64.625 301 64.972656 300.878906 65.25 300.628906 C 65.863281 300.089844 65.914062 299.15625 65.371094 298.550781 C 64.832031 297.933594 63.90625 297.882812 63.289062 298.429688 C 62.675781 298.964844 62.625 299.902344 63.167969 300.507812 C 63.472656 300.828125 63.871094 301 64.277344 301 Z M 59.984375 295.953125 C 60.304688 295.953125 60.640625 295.839844 60.910156 295.621094 C 61.542969 295.101562 61.628906 294.175781 61.117188 293.550781 L 61.117188 293.542969 C 60.597656 292.921875 59.671875 292.824219 59.046875 293.335938 C 58.414062 293.855469 58.328125 294.78125 58.839844 295.414062 C 59.132812 295.769531 59.558594 295.953125 59.984375 295.953125 Z M 315.027344 295.953125 C 315.449219 295.953125 315.875 295.769531 316.167969 295.414062 C 316.6875 294.78125 316.59375 293.855469 315.953125 293.335938 C 315.328125 292.824219 314.402344 292.921875 313.882812 293.542969 C 313.363281 294.175781 313.457031 295.101562 314.089844 295.621094 C 314.359375 295.839844 314.6875 295.953125 315.027344 295.953125 Z M 55.886719 290.746094 C 56.199219 290.746094 56.5 290.644531 56.769531 290.445312 C 57.429688 289.957031 57.550781 289.03125 57.0625 288.382812 C 56.570312 287.734375 55.652344 287.601562 55.003906 288.097656 C 54.351562 288.582031 54.222656 289.5 54.707031 290.15625 C 55.003906 290.539062 55.4375 290.746094 55.886719 290.746094 Z M 319.113281 290.730469 C 319.554688 290.730469 319.996094 290.53125 320.292969 290.148438 C 320.777344 289.5 320.648438 288.574219 319.996094 288.089844 C 319.347656 287.59375 318.421875 287.722656 317.9375 288.375 C 317.449219 289.023438 317.570312 289.949219 318.222656 290.433594 C 318.5 290.632812 318.8125 290.730469 319.113281 290.730469 Z M 52.015625 285.378906 C 52.300781 285.378906 52.59375 285.289062 52.847656 285.109375 C 53.511719 284.640625 53.6875 283.722656 53.21875 283.066406 C 52.75 282.398438 51.84375 282.226562 51.175781 282.691406 C 50.507812 283.160156 50.335938 284.078125 50.800781 284.746094 C 50.800781 284.753906 50.800781 284.753906 50.800781 284.753906 C 51.089844 285.152344 51.539062 285.378906 52.015625 285.378906 Z M 323.003906 285.351562 C 323.46875 285.351562 323.929688 285.125 324.207031 284.71875 C 324.214844 284.71875 324.214844 284.71875 324.214844 284.71875 C 324.671875 284.050781 324.507812 283.125 323.84375 282.667969 C 323.175781 282.199219 322.25 282.371094 321.789062 283.039062 L 321.789062 283.03125 C 321.332031 283.695312 321.496094 284.625 322.164062 285.082031 C 322.421875 285.273438 322.714844 285.351562 323.003906 285.351562 Z M 48.351562 279.851562 C 48.621094 279.851562 48.898438 279.78125 49.140625 279.625 C 49.824219 279.195312 50.03125 278.277344 49.597656 277.589844 C 49.164062 276.90625 48.246094 276.699219 47.5625 277.140625 C 46.878906 277.574219 46.671875 278.484375 47.105469 279.167969 C 47.390625 279.609375 47.867188 279.851562 48.351562 279.851562 Z M 326.664062 279.816406 C 327.152344 279.816406 327.628906 279.582031 327.914062 279.132812 C 327.902344 279.132812 327.902344 279.132812 327.902344 279.132812 C 328.347656 278.449219 328.136719 277.539062 327.453125 277.097656 C 326.761719 276.664062 325.851562 276.871094 325.417969 277.558594 C 324.984375 278.242188 325.183594 279.160156 325.878906 279.59375 C 326.128906 279.746094 326.398438 279.816406 326.664062 279.816406 Z M 44.921875 274.1875 C 45.171875 274.1875 45.433594 274.117188 45.65625 273.988281 C 46.367188 273.582031 46.601562 272.679688 46.195312 271.980469 C 45.789062 271.269531 44.886719 271.035156 44.1875 271.441406 C 43.476562 271.847656 43.242188 272.75 43.648438 273.453125 C 43.917969 273.929688 44.410156 274.1875 44.921875 274.1875 Z M 330.105469 274.144531 C 330.625 274.144531 331.117188 273.875 331.386719 273.410156 C 331.792969 272.699219 331.550781 271.804688 330.847656 271.390625 C 330.136719 270.984375 329.246094 271.226562 328.839844 271.9375 C 328.421875 272.636719 328.667969 273.539062 329.367188 273.945312 C 329.601562 274.074219 329.863281 274.144531 330.105469 274.144531 Z M 41.71875 268.402344 C 41.941406 268.402344 42.183594 268.351562 42.402344 268.230469 C 43.113281 267.847656 43.398438 266.957031 43.015625 266.238281 C 42.644531 265.519531 41.753906 265.242188 41.023438 265.621094 C 40.304688 265.996094 40.027344 266.886719 40.410156 267.613281 C 40.679688 268.109375 41.1875 268.402344 41.71875 268.402344 Z M 333.316406 268.332031 C 333.84375 268.332031 334.363281 268.046875 334.625 267.546875 C 335.003906 266.828125 334.730469 265.933594 334.011719 265.554688 C 333.300781 265.171875 332.40625 265.449219 332.019531 266.175781 C 331.644531 266.886719 331.921875 267.777344 332.640625 268.167969 C 332.847656 268.273438 333.082031 268.332031 333.316406 268.332031 Z M 38.753906 262.480469 C 38.972656 262.480469 39.179688 262.4375 39.386719 262.339844 C 40.125 261.984375 40.4375 261.109375 40.089844 260.375 C 39.734375 259.636719 38.859375 259.328125 38.125 259.671875 C 37.386719 260.027344 37.074219 260.902344 37.421875 261.640625 C 37.671875 262.175781 38.203125 262.480469 38.753906 262.480469 Z M 336.289062 262.382812 C 336.839844 262.382812 337.363281 262.070312 337.621094 261.542969 C 337.621094 261.550781 337.621094 261.550781 337.621094 261.550781 C 337.96875 260.816406 337.65625 259.933594 336.917969 259.585938 C 336.183594 259.230469 335.308594 259.550781 334.953125 260.289062 C 334.605469 261.015625 334.917969 261.898438 335.65625 262.246094 C 335.863281 262.339844 336.078125 262.382812 336.289062 262.382812 Z M 36.027344 256.460938 C 36.226562 256.460938 36.417969 256.425781 36.609375 256.339844 C 37.363281 256.019531 37.707031 255.152344 37.378906 254.398438 C 37.058594 253.652344 36.191406 253.296875 35.449219 253.628906 C 34.695312 253.949219 34.347656 254.8125 34.675781 255.566406 C 34.910156 256.113281 35.457031 256.460938 36.027344 256.460938 Z M 339.015625 256.339844 C 339.585938 256.339844 340.132812 256 340.375 255.4375 C 340.695312 254.683594 340.347656 253.828125 339.605469 253.507812 C 338.851562 253.1875 337.992188 253.53125 337.671875 254.277344 C 337.351562 255.023438 337.691406 255.886719 338.445312 256.207031 C 338.632812 256.296875 338.824219 256.339844 339.015625 256.339844 Z M 33.550781 250.328125 C 33.722656 250.328125 33.90625 250.300781 34.078125 250.234375 C 34.839844 249.9375 35.222656 249.089844 34.929688 248.335938 C 34.640625 247.574219 33.792969 247.183594 33.03125 247.480469 C 32.269531 247.765625 31.886719 248.621094 32.183594 249.375 C 32.171875 249.375 32.171875 249.375 32.171875 249.375 C 32.398438 249.964844 32.960938 250.328125 33.550781 250.328125 Z M 341.511719 250.171875 C 342.097656 250.171875 342.660156 249.808594 342.886719 249.21875 C 343.171875 248.457031 342.792969 247.609375 342.019531 247.324219 C 341.257812 247.039062 340.410156 247.410156 340.125 248.179688 C 339.828125 248.941406 340.210938 249.792969 340.980469 250.078125 C 341.15625 250.144531 341.328125 250.171875 341.511719 250.171875 Z M 31.316406 244.074219 C 31.472656 244.074219 31.636719 244.050781 31.785156 243.996094 C 32.554688 243.738281 32.96875 242.898438 32.710938 242.136719 C 32.449219 241.363281 31.621094 240.941406 30.847656 241.207031 C 30.078125 241.46875 29.664062 242.300781 29.921875 243.070312 C 30.128906 243.6875 30.710938 244.074219 31.316406 244.074219 Z M 343.734375 243.910156 C 344.351562 243.910156 344.929688 243.519531 345.136719 242.898438 C 345.398438 242.125 344.984375 241.296875 344.210938 241.035156 C 343.441406 240.777344 342.601562 241.199219 342.351562 241.960938 C 342.089844 242.734375 342.503906 243.5625 343.277344 243.824219 C 343.421875 243.875 343.578125 243.910156 343.734375 243.910156 Z M 29.34375 237.753906 C 29.472656 237.753906 29.609375 237.734375 29.757812 237.691406 C 30.535156 237.46875 30.988281 236.652344 30.761719 235.875 C 30.535156 235.09375 29.722656 234.636719 28.933594 234.867188 C 28.15625 235.09375 27.703125 235.917969 27.929688 236.695312 C 28.113281 237.328125 28.699219 237.753906 29.34375 237.753906 Z M 345.710938 237.570312 C 346.351562 237.570312 346.941406 237.148438 347.121094 236.507812 C 347.347656 235.726562 346.898438 234.902344 346.109375 234.679688 C 345.328125 234.453125 344.507812 234.902344 344.289062 235.691406 C 344.066406 236.472656 344.515625 237.292969 345.292969 237.511719 C 345.433594 237.5625 345.570312 237.570312 345.710938 237.570312 Z M 27.628906 231.34375 C 27.75 231.34375 27.859375 231.328125 27.980469 231.300781 C 28.769531 231.109375 29.253906 230.304688 29.054688 229.515625 C 28.867188 228.730469 28.058594 228.253906 27.273438 228.441406 C 26.484375 228.632812 26 229.4375 26.199219 230.226562 C 26.363281 230.894531 26.960938 231.34375 27.628906 231.34375 Z M 347.417969 231.171875 C 348.082031 231.171875 348.679688 230.722656 348.84375 230.054688 C 349.042969 229.257812 348.558594 228.460938 347.769531 228.269531 C 346.984375 228.070312 346.179688 228.554688 345.988281 229.34375 C 345.796875 230.132812 346.273438 230.9375 347.0625 231.128906 C 347.183594 231.152344 347.304688 231.171875 347.417969 231.171875 Z M 26.171875 224.875 C 26.265625 224.875 26.371094 224.867188 26.464844 224.847656 C 27.261719 224.683594 27.773438 223.914062 27.617188 223.109375 C 27.453125 222.3125 26.675781 221.800781 25.878906 221.957031 C 25.082031 222.128906 24.570312 222.898438 24.726562 223.695312 C 24.863281 224.398438 25.488281 224.875 26.171875 224.875 Z M 348.871094 224.703125 C 349.554688 224.703125 350.179688 224.226562 350.316406 223.523438 C 350.480469 222.71875 349.960938 221.949219 349.164062 221.78125 C 348.359375 221.617188 347.589844 222.136719 347.425781 222.933594 C 347.261719 223.730469 347.78125 224.511719 348.578125 224.675781 C 348.671875 224.691406 348.777344 224.703125 348.871094 224.703125 Z M 24.976562 218.363281 C 25.054688 218.363281 25.132812 218.355469 25.210938 218.335938 C 26.015625 218.214844 26.5625 217.453125 26.421875 216.648438 C 26.300781 215.84375 25.539062 215.296875 24.734375 215.433594 C 23.929688 215.554688 23.382812 216.320312 23.511719 217.125 C 23.632812 217.84375 24.257812 218.363281 24.976562 218.363281 Z M 350.058594 218.179688 C 350.769531 218.179688 351.398438 217.660156 351.511719 216.933594 C 351.632812 216.128906 351.089844 215.375 350.292969 215.246094 C 349.484375 215.125 348.734375 215.660156 348.601562 216.464844 C 348.472656 217.269531 349.019531 218.015625 349.816406 218.15625 C 349.902344 218.171875 349.980469 218.179688 350.058594 218.179688 Z M 24.042969 211.796875 C 24.101562 211.796875 24.164062 211.796875 24.222656 211.789062 C 25.027344 211.695312 25.609375 210.957031 25.503906 210.144531 C 25.410156 209.339844 24.671875 208.757812 23.867188 208.863281 C 23.054688 208.957031 22.484375 209.691406 22.578125 210.5 C 22.671875 211.25 23.3125 211.796875 24.042969 211.796875 Z M 350.984375 211.605469 C 351.71875 211.605469 352.351562 211.0625 352.4375 210.308594 C 352.535156 209.503906 351.964844 208.765625 351.148438 208.671875 C 350.34375 208.566406 349.605469 209.148438 349.511719 209.960938 C 349.417969 210.765625 349.988281 211.503906 350.800781 211.597656 C 350.863281 211.605469 350.921875 211.605469 350.984375 211.605469 Z M 23.375 205.199219 C 23.417969 205.199219 23.453125 205.199219 23.496094 205.191406 C 24.308594 205.121094 24.90625 204.417969 24.847656 203.605469 C 24.777344 202.789062 24.066406 202.191406 23.253906 202.246094 C 22.4375 202.324219 21.84375 203.023438 21.902344 203.839844 C 21.972656 204.617188 22.621094 205.199219 23.375 205.199219 Z M 351.632812 205.015625 C 352.394531 205.015625 353.035156 204.4375 353.097656 203.65625 C 353.167969 202.84375 352.5625 202.132812 351.746094 202.070312 C 350.933594 202.003906 350.222656 202.609375 350.152344 203.421875 C 350.09375 204.238281 350.699219 204.945312 351.511719 205.007812 C 351.554688 205.015625 351.597656 205.015625 351.632812 205.015625 Z M 22.96875 198.582031 C 22.992188 198.582031 23.011719 198.574219 23.035156 198.574219 C 23.851562 198.546875 24.484375 197.855469 24.449219 197.046875 C 24.414062 196.234375 23.730469 195.59375 22.914062 195.636719 C 22.101562 195.664062 21.460938 196.355469 21.503906 197.171875 C 21.539062 197.957031 22.1875 198.582031 22.96875 198.582031 Z M 352.03125 198.398438 C 352.8125 198.398438 353.46875 197.777344 353.496094 196.988281 C 353.523438 196.175781 352.898438 195.480469 352.085938 195.457031 C 351.269531 195.429688 350.585938 196.054688 350.558594 196.867188 C 350.523438 197.679688 351.15625 198.363281 351.964844 198.390625 C 351.988281 198.398438 352.015625 198.398438 352.03125 198.398438 Z M 22.835938 191.957031 C 23.652344 191.957031 24.308594 191.289062 24.308594 190.484375 C 24.308594 189.671875 23.644531 189.011719 22.835938 189.011719 C 22.023438 189.011719 21.367188 189.679688 21.367188 190.484375 C 21.367188 191.296875 22.03125 191.957031 22.835938 191.957031 Z M 352.164062 191.773438 C 352.976562 191.773438 353.632812 191.109375 353.632812 190.300781 C 353.632812 190.234375 353.632812 190.179688 353.617188 190.113281 C 353.625 190.050781 353.632812 189.992188 353.632812 189.9375 C 353.632812 189.125 352.96875 188.464844 352.164062 188.476562 C 351.347656 188.476562 350.691406 189.132812 350.691406 189.945312 C 350.691406 190.015625 350.699219 190.066406 350.707031 190.128906 C 350.699219 190.191406 350.691406 190.25 350.691406 190.300781 C 350.691406 191.109375 351.347656 191.773438 352.164062 191.773438 Z M 22.96875 185.324219 C 23.753906 185.324219 24.414062 184.707031 24.441406 183.910156 C 24.464844 183.097656 23.832031 182.414062 23.027344 182.378906 C 22.214844 182.351562 21.519531 182.984375 21.496094 183.789062 C 21.46875 184.605469 22.101562 185.296875 22.90625 185.324219 C 22.925781 185.324219 22.941406 185.324219 22.96875 185.324219 Z M 352.015625 184.777344 C 352.039062 184.777344 352.058594 184.777344 352.085938 184.777344 C 352.898438 184.742188 353.53125 184.058594 353.488281 183.242188 C 353.460938 182.429688 352.769531 181.789062 351.953125 181.832031 C 351.140625 181.867188 350.507812 182.550781 350.542969 183.363281 C 350.578125 184.160156 351.226562 184.777344 352.015625 184.777344 Z M 23.355469 178.707031 C 24.121094 178.707031 24.761719 178.117188 24.820312 177.347656 C 24.882812 176.53125 24.277344 175.820312 23.460938 175.753906 C 22.648438 175.691406 21.945312 176.296875 21.875 177.113281 C 21.808594 177.925781 22.421875 178.636719 23.234375 178.695312 C 23.269531 178.707031 23.3125 178.707031 23.355469 178.707031 Z M 351.597656 178.160156 C 351.640625 178.160156 351.675781 178.152344 351.71875 178.152344 C 352.535156 178.082031 353.132812 177.371094 353.070312 176.558594 C 353.003906 175.742188 352.300781 175.144531 351.476562 175.207031 C 350.664062 175.277344 350.066406 175.988281 350.128906 176.800781 C 350.203125 177.570312 350.847656 178.160156 351.597656 178.160156 Z M 24.007812 172.105469 C 24.742188 172.105469 25.375 171.5625 25.460938 170.808594 C 25.558594 169.992188 24.984375 169.265625 24.171875 169.171875 C 23.367188 169.074219 22.628906 169.648438 22.535156 170.460938 C 22.4375 171.265625 23.011719 172.003906 23.824219 172.097656 C 23.886719 172.105469 23.945312 172.105469 24.007812 172.105469 Z M 350.933594 171.570312 C 350.992188 171.570312 351.054688 171.5625 351.113281 171.550781 C 351.917969 171.457031 352.492188 170.722656 352.394531 169.90625 C 352.300781 169.09375 351.566406 168.53125 350.75 168.625 C 349.945312 168.71875 349.375 169.457031 349.46875 170.269531 C 349.5625 171.015625 350.203125 171.570312 350.933594 171.570312 Z M 24.917969 165.542969 C 25.636719 165.542969 26.257812 165.023438 26.371094 164.304688 C 26.492188 163.496094 25.957031 162.746094 25.148438 162.613281 C 24.34375 162.484375 23.589844 163.039062 23.460938 163.828125 C 23.453125 163.828125 23.453125 163.828125 23.453125 163.828125 C 23.332031 164.640625 23.867188 165.386719 24.671875 165.523438 C 24.761719 165.53125 24.839844 165.542969 24.917969 165.542969 Z M 349.996094 165.003906 C 350.074219 165.003906 350.160156 164.996094 350.238281 164.980469 C 351.046875 164.847656 351.589844 164.085938 351.453125 163.28125 C 351.320312 162.476562 350.558594 161.929688 349.753906 162.070312 C 348.949219 162.199219 348.402344 162.960938 348.542969 163.765625 C 348.664062 164.484375 349.285156 165.003906 349.996094 165.003906 Z M 26.09375 159.011719 C 26.785156 159.011719 27.402344 158.535156 27.539062 157.832031 C 27.703125 157.039062 27.183594 156.257812 26.386719 156.09375 C 25.59375 155.9375 24.8125 156.457031 24.648438 157.253906 C 24.484375 158.050781 25.003906 158.828125 25.808594 158.996094 C 25.902344 159.011719 26 159.011719 26.09375 159.011719 Z M 348.792969 158.484375 C 348.886719 158.484375 348.992188 158.464844 349.085938 158.457031 C 349.894531 158.285156 350.394531 157.511719 350.238281 156.707031 C 350.074219 155.910156 349.296875 155.398438 348.5 155.566406 C 347.703125 155.730469 347.191406 156.507812 347.347656 157.304688 C 347.496094 158.007812 348.109375 158.484375 348.792969 158.484375 Z M 27.539062 152.542969 C 28.207031 152.542969 28.804688 152.09375 28.96875 151.425781 C 29.160156 150.628906 28.683594 149.832031 27.886719 149.640625 C 27.097656 149.449219 26.300781 149.925781 26.113281 150.722656 C 25.921875 151.511719 26.398438 152.308594 27.195312 152.5 C 27.304688 152.535156 27.429688 152.542969 27.539062 152.542969 Z M 347.328125 152.015625 C 347.449219 152.015625 347.5625 151.996094 347.683594 151.972656 C 348.472656 151.78125 348.957031 150.976562 348.757812 150.1875 C 348.566406 149.398438 347.761719 148.914062 346.972656 149.113281 C 346.1875 149.3125 345.710938 150.109375 345.902344 150.898438 C 346.066406 151.5625 346.664062 152.015625 347.328125 152.015625 Z M 29.246094 146.140625 C 29.878906 146.140625 30.46875 145.71875 30.65625 145.078125 C 30.882812 144.296875 30.433594 143.476562 29.644531 143.25 C 28.867188 143.023438 28.042969 143.476562 27.816406 144.261719 C 27.59375 145.042969 28.042969 145.863281 28.832031 146.089844 C 28.976562 146.125 29.109375 146.140625 29.246094 146.140625 Z M 345.605469 145.613281 C 345.746094 145.613281 345.875 145.597656 346.023438 145.554688 C 346.800781 145.328125 347.25 144.503906 347.027344 143.726562 C 346.800781 142.945312 345.980469 142.496094 345.199219 142.722656 C 344.417969 142.945312 343.96875 143.769531 344.195312 144.546875 C 344.375 145.199219 344.964844 145.613281 345.605469 145.613281 Z M 31.210938 139.8125 C 31.828125 139.8125 32.40625 139.421875 32.617188 138.796875 C 32.867188 138.027344 32.449219 137.195312 31.679688 136.9375 C 30.910156 136.675781 30.078125 137.101562 29.816406 137.871094 C 29.558594 138.640625 29.984375 139.472656 30.753906 139.734375 C 30.902344 139.785156 31.054688 139.8125 31.210938 139.8125 Z M 343.621094 139.292969 C 343.777344 139.292969 343.933594 139.265625 344.089844 139.214844 C 344.851562 138.953125 345.277344 138.121094 345.015625 137.351562 C 344.75 136.582031 343.917969 136.164062 343.148438 136.425781 C 342.382812 136.683594 341.960938 137.523438 342.21875 138.289062 C 342.429688 138.902344 343 139.292969 343.621094 139.292969 Z M 33.429688 133.550781 C 34.019531 133.550781 34.582031 133.175781 34.804688 132.589844 C 35.09375 131.828125 34.710938 130.976562 33.941406 130.691406 C 33.179688 130.398438 32.339844 130.777344 32.042969 131.550781 C 31.765625 132.3125 32.148438 133.160156 32.910156 133.445312 C 33.082031 133.507812 33.257812 133.550781 33.429688 133.550781 Z M 341.378906 133.046875 C 341.554688 133.046875 341.734375 133.023438 341.898438 132.953125 C 342.660156 132.667969 343.042969 131.808594 342.757812 131.054688 C 342.460938 130.292969 341.613281 129.914062 340.859375 130.207031 C 340.097656 130.492188 339.71875 131.351562 340.003906 132.105469 C 340.238281 132.691406 340.78125 133.046875 341.378906 133.046875 Z M 35.90625 127.382812 C 36.476562 127.382812 37.015625 127.046875 37.265625 126.484375 C 37.585938 125.730469 37.238281 124.871094 36.488281 124.542969 C 35.734375 124.222656 34.875 124.578125 34.554688 125.324219 C 34.234375 126.074219 34.582031 126.933594 35.335938 127.261719 C 35.515625 127.332031 35.714844 127.382812 35.90625 127.382812 Z M 338.902344 126.925781 C 339.09375 126.925781 339.292969 126.890625 339.484375 126.804688 C 340.226562 126.484375 340.574219 125.617188 340.253906 124.863281 C 339.933594 124.109375 339.066406 123.761719 338.3125 124.09375 C 337.570312 124.414062 337.222656 125.277344 337.542969 126.03125 C 337.785156 126.585938 338.324219 126.925781 338.902344 126.925781 Z M 38.625 121.3125 C 39.179688 121.3125 39.707031 121 39.960938 120.472656 C 40.316406 119.738281 39.996094 118.851562 39.257812 118.507812 C 38.523438 118.160156 37.648438 118.472656 37.300781 119.207031 C 36.945312 119.945312 37.265625 120.820312 38.003906 121.175781 C 38.203125 121.269531 38.417969 121.3125 38.625 121.3125 Z M 336.175781 120.898438 C 336.382812 120.898438 336.597656 120.855469 336.808594 120.75 C 337.535156 120.402344 337.855469 119.519531 337.5 118.792969 C 337.144531 118.054688 336.269531 117.746094 335.535156 118.089844 C 334.804688 118.445312 334.484375 119.328125 334.839844 120.058594 C 335.09375 120.585938 335.621094 120.898438 336.175781 120.898438 Z M 41.597656 115.371094 C 42.125 115.371094 42.644531 115.085938 42.902344 114.582031 C 43.285156 113.863281 43.007812 112.980469 42.289062 112.589844 C 41.570312 112.21875 40.679688 112.496094 40.296875 113.207031 C 39.925781 113.925781 40.195312 114.816406 40.914062 115.199219 C 41.128906 115.320312 41.371094 115.371094 41.597656 115.371094 Z M 333.195312 114.980469 C 333.429688 114.980469 333.664062 114.929688 333.886719 114.808594 C 334.597656 114.4375 334.882812 113.542969 334.503906 112.816406 C 334.132812 112.097656 333.238281 111.820312 332.511719 112.203125 C 331.792969 112.574219 331.515625 113.464844 331.898438 114.195312 C 332.15625 114.695312 332.667969 114.980469 333.195312 114.980469 Z M 44.800781 109.558594 C 45.3125 109.558594 45.804688 109.292969 46.074219 108.824219 C 46.480469 108.113281 46.246094 107.222656 45.535156 106.816406 C 44.828125 106.398438 43.933594 106.640625 43.527344 107.351562 C 43.121094 108.0625 43.355469 108.953125 44.066406 109.359375 C 44.289062 109.492188 44.550781 109.558594 44.800781 109.558594 Z M 329.992188 109.195312 C 330.242188 109.195312 330.492188 109.128906 330.726562 108.996094 C 331.4375 108.582031 331.671875 107.691406 331.265625 106.980469 C 330.847656 106.277344 329.957031 106.035156 329.246094 106.449219 C 328.546875 106.859375 328.300781 107.757812 328.71875 108.460938 C 328.988281 108.929688 329.480469 109.195312 329.992188 109.195312 Z M 48.230469 103.878906 C 48.714844 103.878906 49.191406 103.636719 49.476562 103.195312 C 49.910156 102.503906 49.703125 101.59375 49.019531 101.160156 C 48.335938 100.726562 47.417969 100.933594 46.984375 101.617188 C 46.550781 102.304688 46.757812 103.222656 47.441406 103.652344 C 47.683594 103.800781 47.960938 103.878906 48.230469 103.878906 Z M 326.554688 103.542969 C 326.820312 103.542969 327.097656 103.464844 327.339844 103.316406 C 328.023438 102.875 328.234375 101.964844 327.800781 101.28125 C 327.359375 100.589844 326.449219 100.390625 325.765625 100.820312 C 325.070312 101.253906 324.871094 102.171875 325.304688 102.855469 C 325.582031 103.296875 326.066406 103.542969 326.554688 103.542969 Z M 51.894531 98.335938 C 52.363281 98.335938 52.820312 98.109375 53.105469 97.703125 C 53.566406 97.039062 53.402344 96.109375 52.734375 95.660156 C 52.066406 95.191406 51.140625 95.367188 50.679688 96.03125 C 50.222656 96.699219 50.386719 97.617188 51.054688 98.078125 C 51.3125 98.257812 51.597656 98.335938 51.894531 98.335938 Z M 322.890625 98.023438 C 323.175781 98.023438 323.46875 97.945312 323.722656 97.757812 C 324.386719 97.296875 324.5625 96.378906 324.09375 95.710938 C 323.625 95.046875 322.707031 94.878906 322.039062 95.339844 C 321.375 95.808594 321.210938 96.714844 321.667969 97.382812 C 321.964844 97.800781 322.421875 98.023438 322.890625 98.023438 Z M 55.773438 92.949219 C 56.222656 92.949219 56.664062 92.75 56.953125 92.359375 C 57.445312 91.710938 57.316406 90.792969 56.65625 90.300781 C 56.007812 89.8125 55.089844 89.945312 54.597656 90.59375 C 54.109375 91.253906 54.242188 92.171875 54.890625 92.65625 C 55.148438 92.855469 55.460938 92.949219 55.773438 92.949219 Z M 319 92.65625 C 319.3125 92.65625 319.625 92.558594 319.894531 92.351562 C 320.542969 91.867188 320.664062 90.949219 320.179688 90.289062 C 319.683594 89.640625 318.765625 89.519531 318.117188 90.003906 C 317.460938 90.5 317.339844 91.417969 317.832031 92.066406 C 318.117188 92.445312 318.558594 92.65625 319 92.65625 Z M 59.863281 87.726562 C 60.285156 87.726562 60.71875 87.546875 61.011719 87.191406 C 61.53125 86.558594 61.429688 85.632812 60.796875 85.121094 C 60.171875 84.601562 59.238281 84.695312 58.726562 85.328125 C 58.207031 85.960938 58.300781 86.886719 58.933594 87.398438 C 59.203125 87.625 59.53125 87.726562 59.863281 87.726562 Z M 314.90625 87.449219 C 315.234375 87.449219 315.570312 87.335938 315.839844 87.121094 C 316.464844 86.601562 316.558594 85.675781 316.046875 85.042969 C 315.535156 84.417969 314.601562 84.324219 313.96875 84.835938 C 313.347656 85.355469 313.25 86.28125 313.761719 86.914062 C 314.054688 87.269531 314.480469 87.449219 314.90625 87.449219 Z M 64.164062 82.679688 C 64.574219 82.679688 64.980469 82.503906 65.265625 82.175781 C 65.8125 81.5625 65.75 80.632812 65.144531 80.097656 C 64.539062 79.558594 63.601562 79.613281 63.066406 80.21875 C 62.527344 80.832031 62.589844 81.761719 63.1875 82.296875 C 63.464844 82.558594 63.820312 82.679688 64.164062 82.679688 Z M 310.601562 82.410156 C 310.945312 82.410156 311.300781 82.289062 311.578125 82.039062 C 312.183594 81.5 312.246094 80.574219 311.699219 79.957031 C 311.710938 79.957031 311.710938 79.957031 311.710938 79.957031 C 311.164062 79.351562 310.238281 79.292969 309.621094 79.835938 C 309.007812 80.382812 308.953125 81.308594 309.5 81.925781 L 309.507812 81.925781 C 309.796875 82.238281 310.195312 82.410156 310.601562 82.410156 Z M 68.660156 77.800781 C 69.042969 77.800781 69.429688 77.644531 69.71875 77.34375 C 70.28125 76.753906 70.261719 75.828125 69.671875 75.257812 C 69.085938 74.691406 68.15625 74.71875 67.585938 75.300781 C 67.023438 75.886719 67.039062 76.824219 67.628906 77.386719 C 67.914062 77.664062 68.289062 77.800781 68.660156 77.800781 Z M 306.097656 77.542969 C 306.46875 77.542969 306.832031 77.402344 307.117188 77.125 C 307.699219 76.554688 307.714844 75.621094 307.152344 75.039062 C 306.582031 74.449219 305.65625 74.433594 305.066406 75.003906 C 304.476562 75.566406 304.460938 76.503906 305.03125 77.082031 C 305.324219 77.394531 305.707031 77.542969 306.097656 77.542969 Z M 73.347656 73.109375 C 73.710938 73.109375 74.074219 72.96875 74.359375 72.691406 C 74.949219 72.121094 74.964844 71.195312 74.402344 70.605469 C 73.832031 70.023438 72.902344 70 72.316406 70.570312 C 71.726562 71.132812 71.710938 72.070312 72.273438 72.648438 C 72.566406 72.960938 72.957031 73.109375 73.347656 73.109375 Z M 301.402344 72.855469 C 301.792969 72.855469 302.183594 72.710938 302.46875 72.40625 C 303.03125 71.816406 303.015625 70.882812 302.425781 70.320312 C 301.835938 69.746094 300.910156 69.773438 300.335938 70.363281 C 299.773438 70.953125 299.800781 71.878906 300.382812 72.449219 C 300.667969 72.726562 301.039062 72.855469 301.402344 72.855469 Z M 78.203125 68.613281 C 78.550781 68.613281 78.90625 68.492188 79.183594 68.242188 C 79.796875 67.703125 79.851562 66.777344 79.304688 66.164062 C 78.757812 65.554688 77.832031 65.496094 77.21875 66.042969 C 76.609375 66.585938 76.550781 67.511719 77.097656 68.128906 C 77.390625 68.441406 77.796875 68.613281 78.203125 68.613281 Z M 296.519531 68.371094 C 296.933594 68.371094 297.332031 68.199219 297.628906 67.867188 C 298.164062 67.253906 298.113281 66.328125 297.503906 65.789062 C 296.890625 65.253906 295.964844 65.304688 295.425781 65.910156 C 294.882812 66.527344 294.941406 67.453125 295.546875 67.988281 C 295.835938 68.25 296.171875 68.371094 296.519531 68.371094 Z M 83.253906 64.308594 C 83.574219 64.308594 83.910156 64.195312 84.179688 63.980469 C 84.8125 63.460938 84.898438 62.535156 84.386719 61.902344 C 83.867188 61.277344 82.941406 61.191406 82.316406 61.703125 C 81.6875 62.222656 81.597656 63.140625 82.109375 63.773438 C 82.394531 64.128906 82.820312 64.308594 83.253906 64.308594 Z M 291.46875 64.074219 C 291.894531 64.074219 292.316406 63.894531 292.613281 63.53125 C 293.132812 62.898438 293.035156 61.972656 292.394531 61.460938 C 291.773438 60.941406 290.835938 61.042969 290.324219 61.675781 C 289.816406 62.300781 289.910156 63.226562 290.542969 63.746094 C 290.8125 63.972656 291.140625 64.074219 291.46875 64.074219 Z M 88.457031 60.210938 C 88.769531 60.210938 89.074219 60.117188 89.339844 59.917969 C 89.992188 59.433594 90.121094 58.507812 89.628906 57.855469 C 89.144531 57.207031 88.214844 57.078125 87.566406 57.570312 C 86.917969 58.054688 86.785156 58.984375 87.28125 59.632812 C 87.566406 60.011719 88.007812 60.210938 88.457031 60.210938 Z M 286.246094 59.988281 C 286.699219 59.988281 287.140625 59.78125 287.425781 59.398438 C 287.910156 58.75 287.78125 57.824219 287.128906 57.335938 C 286.480469 56.851562 285.554688 56.980469 285.070312 57.632812 C 284.585938 58.28125 284.707031 59.207031 285.363281 59.691406 C 285.625 59.890625 285.933594 59.988281 286.246094 59.988281 Z M 93.820312 56.332031 C 94.113281 56.332031 94.398438 56.246094 94.660156 56.0625 C 95.328125 55.597656 95.5 54.6875 95.03125 54.011719 C 94.5625 53.34375 93.644531 53.171875 92.980469 53.640625 C 92.3125 54.105469 92.148438 55.023438 92.605469 55.691406 C 92.902344 56.117188 93.359375 56.332031 93.820312 56.332031 Z M 280.859375 56.117188 C 281.328125 56.117188 281.785156 55.890625 282.0625 55.476562 C 282.53125 54.808594 282.359375 53.890625 281.691406 53.421875 C 281.023438 52.964844 280.105469 53.136719 279.640625 53.796875 C 279.171875 54.460938 279.34375 55.390625 280.011719 55.847656 C 280.28125 56.03125 280.566406 56.117188 280.859375 56.117188 Z M 99.34375 52.679688 C 99.613281 52.679688 99.890625 52.601562 100.140625 52.445312 L 100.140625 52.453125 C 100.824219 52.011719 101.023438 51.101562 100.589844 50.417969 C 100.160156 49.726562 99.242188 49.527344 98.554688 49.957031 C 97.871094 50.390625 97.664062 51.308594 98.097656 51.992188 C 98.382812 52.425781 98.851562 52.679688 99.34375 52.679688 Z M 275.316406 52.460938 C 275.800781 52.460938 276.277344 52.21875 276.566406 51.769531 C 276.996094 51.085938 276.789062 50.175781 276.105469 49.742188 C 275.414062 49.308594 274.503906 49.507812 274.070312 50.199219 C 273.636719 50.886719 273.84375 51.804688 274.53125 52.238281 C 274.773438 52.382812 275.050781 52.460938 275.316406 52.460938 Z M 105.007812 49.230469 C 105.261719 49.230469 105.511719 49.171875 105.746094 49.03125 C 106.445312 48.625 106.6875 47.722656 106.273438 47.023438 C 105.867188 46.3125 104.964844 46.078125 104.265625 46.484375 C 103.5625 46.902344 103.320312 47.792969 103.726562 48.503906 C 104.003906 48.972656 104.496094 49.230469 105.007812 49.230469 Z M 269.628906 49.023438 C 270.148438 49.023438 270.640625 48.753906 270.910156 48.289062 C 271.316406 47.578125 271.074219 46.683594 270.371094 46.269531 C 270.371094 46.277344 270.371094 46.277344 270.371094 46.277344 C 269.664062 45.863281 268.761719 46.105469 268.355469 46.816406 C 267.949219 47.523438 268.191406 48.417969 268.898438 48.824219 C 269.132812 48.960938 269.386719 49.023438 269.628906 49.023438 Z M 110.792969 46.027344 C 111.019531 46.027344 111.261719 45.976562 111.476562 45.855469 C 112.195312 45.480469 112.472656 44.589844 112.09375 43.863281 C 111.71875 43.144531 110.828125 42.867188 110.101562 43.246094 C 109.382812 43.628906 109.105469 44.519531 109.484375 45.246094 C 109.753906 45.742188 110.265625 46.027344 110.792969 46.027344 Z M 263.816406 45.820312 C 264.34375 45.820312 264.855469 45.53125 265.125 45.03125 C 265.496094 44.3125 265.21875 43.429688 264.507812 43.039062 C 263.789062 42.667969 262.898438 42.945312 262.515625 43.664062 C 262.144531 44.371094 262.414062 45.265625 263.140625 45.65625 C 263.355469 45.765625 263.582031 45.820312 263.816406 45.820312 Z M 116.710938 43.066406 C 116.925781 43.066406 117.132812 43.011719 117.339844 42.917969 C 118.078125 42.5625 118.390625 41.6875 118.035156 40.953125 C 117.6875 40.222656 116.8125 39.902344 116.078125 40.257812 C 115.339844 40.605469 115.027344 41.488281 115.382812 42.214844 C 115.636719 42.753906 116.15625 43.066406 116.710938 43.066406 Z M 257.875 42.855469 C 258.429688 42.855469 258.957031 42.546875 259.210938 42.015625 C 259.554688 41.28125 259.234375 40.40625 258.507812 40.058594 C 257.769531 39.703125 256.886719 40.023438 256.542969 40.761719 C 256.195312 41.488281 256.515625 42.371094 257.242188 42.71875 C 257.441406 42.8125 257.660156 42.855469 257.875 42.855469 Z M 122.738281 40.335938 C 122.925781 40.335938 123.125 40.300781 123.316406 40.214844 C 124.0625 39.894531 124.40625 39.027344 124.085938 38.285156 C 123.765625 37.53125 122.902344 37.183594 122.148438 37.503906 C 121.402344 37.824219 121.054688 38.691406 121.378906 39.445312 C 121.621094 40 122.15625 40.335938 122.738281 40.335938 Z M 251.8125 40.144531 C 252.382812 40.144531 252.929688 39.808594 253.171875 39.246094 C 253.492188 38.492188 253.148438 37.636719 252.394531 37.3125 C 251.648438 36.992188 250.78125 37.339844 250.460938 38.09375 C 250.140625 38.839844 250.488281 39.703125 251.242188 40.023438 C 251.421875 40.101562 251.621094 40.144531 251.8125 40.144531 Z M 128.859375 37.859375 C 129.03125 37.859375 129.214844 37.832031 129.378906 37.765625 C 130.140625 37.46875 130.523438 36.621094 130.238281 35.867188 C 129.941406 35.105469 129.09375 34.726562 128.339844 35.011719 C 127.578125 35.296875 127.195312 36.152344 127.484375 36.90625 C 127.707031 37.496094 128.261719 37.859375 128.859375 37.859375 Z M 245.648438 37.667969 C 246.246094 37.667969 246.808594 37.304688 247.023438 36.714844 C 247.308594 35.953125 246.929688 35.105469 246.167969 34.820312 C 245.402344 34.535156 244.554688 34.914062 244.269531 35.6875 C 243.984375 36.449219 244.363281 37.289062 245.128906 37.582031 C 245.300781 37.636719 245.472656 37.667969 245.648438 37.667969 Z M 135.105469 35.617188 C 135.261719 35.617188 135.425781 35.589844 135.570312 35.539062 C 136.34375 35.277344 136.757812 34.449219 136.5 33.675781 C 136.238281 32.90625 135.398438 32.492188 134.628906 32.75 C 133.867188 33.011719 133.441406 33.839844 133.710938 34.613281 C 133.917969 35.234375 134.488281 35.617188 135.105469 35.617188 Z M 239.386719 35.453125 C 240 35.453125 240.570312 35.0625 240.78125 34.4375 C 241.039062 33.667969 240.613281 32.835938 239.84375 32.578125 C 239.082031 32.316406 238.234375 32.742188 237.992188 33.511719 C 237.730469 34.28125 238.15625 35.113281 238.917969 35.375 C 239.066406 35.425781 239.230469 35.453125 239.386719 35.453125 Z M 141.433594 33.640625 C 141.566406 33.640625 141.703125 33.617188 141.851562 33.582031 C 142.628906 33.355469 143.082031 32.535156 142.855469 31.753906 C 142.628906 30.976562 141.808594 30.523438 141.027344 30.75 C 140.25 30.976562 139.796875 31.789062 140.023438 32.570312 C 140.203125 33.226562 140.792969 33.640625 141.433594 33.640625 Z M 233.046875 33.488281 C 233.6875 33.488281 234.273438 33.070312 234.457031 32.421875 C 234.683594 31.640625 234.230469 30.820312 233.445312 30.601562 C 232.664062 30.378906 231.839844 30.828125 231.625 31.617188 C 231.398438 32.394531 231.851562 33.21875 232.636719 33.433594 C 232.769531 33.476562 232.90625 33.488281 233.046875 33.488281 Z M 147.835938 31.917969 C 147.957031 31.917969 148.070312 31.902344 148.191406 31.875 C 148.976562 31.675781 149.464844 30.878906 149.265625 30.089844 C 149.074219 29.304688 148.269531 28.820312 147.480469 29.015625 C 146.691406 29.207031 146.207031 30.011719 146.40625 30.800781 C 146.570312 31.46875 147.167969 31.917969 147.835938 31.917969 Z M 226.636719 31.789062 C 227.304688 31.789062 227.902344 31.339844 228.066406 30.671875 C 228.257812 29.875 227.78125 29.078125 226.984375 28.886719 C 226.195312 28.695312 225.398438 29.183594 225.207031 29.96875 C 225.007812 30.757812 225.492188 31.554688 226.28125 31.746094 C 226.402344 31.773438 226.515625 31.789062 226.636719 31.789062 Z M 154.296875 30.457031 C 154.398438 30.457031 154.496094 30.445312 154.597656 30.429688 C 155.394531 30.265625 155.90625 29.492188 155.75 28.695312 C 155.585938 27.890625 154.804688 27.378906 154.011719 27.546875 C 153.214844 27.710938 152.703125 28.480469 152.859375 29.285156 C 152.996094 29.980469 153.621094 30.457031 154.296875 30.457031 Z M 220.167969 30.351562 C 220.851562 30.351562 221.464844 29.867188 221.613281 29.164062 C 221.769531 28.367188 221.25 27.597656 220.453125 27.433594 C 219.65625 27.269531 218.878906 27.789062 218.710938 28.585938 C 218.546875 29.390625 219.078125 30.160156 219.871094 30.324219 C 219.96875 30.332031 220.070312 30.351562 220.167969 30.351562 Z M 160.824219 29.261719 C 160.894531 29.261719 160.980469 29.25 161.058594 29.234375 C 161.863281 29.113281 162.410156 28.351562 162.273438 27.546875 C 162.140625 26.738281 161.386719 26.195312 160.582031 26.324219 C 160.582031 26.332031 160.582031 26.332031 160.582031 26.332031 C 159.777344 26.453125 159.230469 27.214844 159.363281 28.023438 C 159.484375 28.75 160.105469 29.261719 160.824219 29.261719 Z M 213.636719 29.171875 C 214.355469 29.171875 214.980469 28.652344 215.09375 27.925781 C 215.222656 27.128906 214.667969 26.375 213.871094 26.246094 C 213.066406 26.117188 212.3125 26.671875 212.183594 27.457031 C 212.0625 28.273438 212.597656 29.015625 213.402344 29.15625 C 213.480469 29.164062 213.566406 29.171875 213.636719 29.171875 Z M 167.390625 28.324219 C 167.449219 28.324219 167.511719 28.324219 167.5625 28.316406 C 168.378906 28.210938 168.949219 27.484375 168.84375 26.671875 C 168.75 25.855469 168.015625 25.285156 167.207031 25.390625 C 166.394531 25.484375 165.824219 26.21875 165.917969 27.027344 C 166.011719 27.777344 166.652344 28.324219 167.390625 28.324219 Z M 207.074219 28.253906 C 207.808594 28.253906 208.441406 27.699219 208.527344 26.957031 C 208.621094 26.140625 208.050781 25.414062 207.238281 25.320312 C 206.421875 25.222656 205.695312 25.796875 205.601562 26.609375 C 205.503906 27.425781 206.078125 28.152344 206.890625 28.246094 C 206.960938 28.253906 207.011719 28.253906 207.074219 28.253906 Z M 173.980469 27.65625 C 174.015625 27.65625 174.058594 27.65625 174.101562 27.65625 C 174.917969 27.589844 175.515625 26.878906 175.453125 26.0625 C 175.382812 25.25 174.683594 24.652344 173.867188 24.714844 C 173.054688 24.78125 172.457031 25.484375 172.515625 26.308594 C 172.570312 27.070312 173.21875 27.65625 173.980469 27.65625 Z M 200.472656 27.613281 C 201.234375 27.613281 201.875 27.035156 201.9375 26.253906 C 202.007812 25.441406 201.398438 24.738281 200.585938 24.671875 C 199.773438 24.601562 199.0625 25.214844 199 26.03125 C 198.933594 26.84375 199.539062 27.546875 200.351562 27.613281 C 200.402344 27.613281 200.4375 27.613281 200.472656 27.613281 Z M 180.597656 27.25 C 180.625 27.25 180.640625 27.25 180.65625 27.25 C 181.472656 27.226562 182.113281 26.53125 182.070312 25.71875 C 182.035156 24.902344 181.351562 24.273438 180.535156 24.316406 C 180.535156 24.304688 180.535156 24.304688 180.535156 24.304688 C 179.722656 24.339844 179.089844 25.023438 179.125 25.847656 C 179.160156 26.628906 179.808594 27.25 180.597656 27.25 Z M 193.855469 27.226562 C 194.644531 27.226562 195.292969 26.609375 195.328125 25.8125 C 195.355469 25 194.722656 24.316406 193.910156 24.289062 C 193.09375 24.253906 192.410156 24.894531 192.382812 25.699219 C 192.359375 26.515625 192.992188 27.199219 193.796875 27.226562 C 193.820312 27.226562 193.839844 27.226562 193.855469 27.226562 Z M 187.230469 27.113281 C 188.046875 27.113281 188.703125 26.445312 188.703125 25.640625 C 188.703125 24.824219 188.035156 24.167969 187.230469 24.167969 C 186.417969 24.167969 185.757812 24.835938 185.757812 25.640625 C 185.75 26.453125 186.417969 27.113281 187.230469 27.113281 Z M 187.222656 24.160156 C 187.230469 24.160156 187.230469 24.160156 187.222656 24.160156 C 187.230469 24.160156 187.230469 24.160156 187.222656 24.160156 Z M 188.679688 320.324219 L 188.679688 337.269531 L 188.695312 337.269531 Z M 194.574219 328.816406 L 195.953125 337.089844 L 194.574219 328.730469 L 194.574219 320.261719 L 193.171875 320.375 L 194.574219 328.816406 L 194.574219 337.203125 Z M 182.804688 328.523438 L 181.507812 336.992188 L 182.804688 337.089844 Z M 200.449219 328.515625 L 201.824219 336.785156 L 200.449219 328.429688 L 200.449219 319.957031 L 199.042969 320.070312 L 200.449219 328.515625 L 200.449219 336.898438 Z M 176.941406 328.203125 L 178.136719 319.8125 L 176.925781 319.726562 L 176.925781 328.296875 L 175.738281 336.585938 L 176.925781 328.296875 L 176.925781 336.664062 Z M 207.503906 336.265625 L 206.292969 327.777344 L 206.292969 319.414062 L 206.292969 327.777344 L 205.105469 319.492188 L 206.292969 327.882812 L 206.292969 336.351562 Z M 171.277344 326.210938 L 172.363281 319.171875 L 171.277344 326.210938 L 172.285156 319.152344 L 171.070312 327.535156 L 169.78125 335.910156 L 169.882812 335.929688 Z M 212.226562 327.699219 L 213.515625 335.453125 L 212.140625 327.121094 L 210.933594 318.710938 L 210.726562 318.746094 L 212.21875 327.691406 L 213.335938 335.488281 Z M 165.292969 326.523438 L 167.589844 318.488281 L 165.292969 326.523438 L 166.566406 318.261719 L 165.269531 326.636719 L 162.9375 334.785156 L 163.996094 335.019531 Z M 217.941406 326.140625 L 220.589844 334.101562 L 217.925781 326.0625 L 216.730469 317.679688 L 215.230469 318.035156 L 217.941406 326.140625 L 219.128906 334.449219 Z M 159.527344 325.378906 L 161.820312 317.34375 L 159.527344 325.378906 L 160.800781 317.117188 L 159.5 325.492188 L 157.171875 333.640625 L 158.226562 333.875 Z M 226.003906 332.941406 L 223.640625 324.671875 L 225.050781 333.15625 Z M 153.785156 324.105469 L 156.277344 316.007812 L 155.058594 315.730469 L 153.757812 324.203125 L 151.300781 332.203125 L 153.757812 324.203125 L 152.484375 332.480469 Z M 229.460938 323.605469 L 232.03125 331.3125 L 229.363281 323.277344 L 227.035156 315.125 L 226.671875 315.238281 L 229.460938 323.605469 L 231.695312 331.417969 Z M 150.613281 314.382812 L 145.636719 330.578125 L 145.652344 330.578125 Z M 237.660156 329.5625 L 234.882812 321.214844 L 237.296875 329.675781 Z M 142.570312 320.511719 L 146.078125 312.917969 L 142.570312 320.511719 L 145.027344 312.519531 L 142.527344 320.609375 L 138.976562 328.296875 L 140.050781 328.707031 Z M 182.796875 328.621094 L 182.816406 320.148438 Z M 240.582031 319.707031 L 243.84375 327.335938 L 240.519531 319.542969 L 237.84375 311.507812 L 237.167969 311.757812 L 240.582031 319.707031 L 243.203125 327.578125 Z M 137.019531 318.519531 L 140.570312 310.832031 L 139.683594 310.476562 L 136.964844 318.640625 L 133.46875 326.210938 L 136.957031 318.640625 L 134.324219 326.550781 Z M 249.75 324.914062 L 245.921875 317.265625 L 248.269531 325.492188 Z M 221.355469 316.640625 L 223.667969 324.792969 Z M 131.605469 316.191406 L 135.398438 308.613281 L 134.089844 308.085938 L 131.570312 316.269531 L 127.820312 323.769531 L 131.570312 316.269531 L 129.101562 324.28125 Z M 255.085938 322.488281 L 247.5 307.339844 L 255.078125 322.496094 Z M 232.300781 313.488281 L 234.96875 321.535156 Z M 126.289062 313.644531 L 130.082031 306.058594 L 129.828125 305.9375 L 126.089844 314.050781 L 122.503906 321.214844 L 126.078125 314.0625 L 122.726562 321.328125 Z M 256.59375 312.355469 L 261.226562 319.308594 L 256.542969 312.25 L 252.757812 304.671875 L 251.832031 305.210938 L 256.59375 312.355469 L 260.328125 319.828125 Z M 121.144531 310.761719 L 125.777344 303.808594 L 121.144531 310.761719 L 124.875 303.289062 L 121.074219 310.855469 L 116.371094 317.90625 L 117.296875 318.441406 Z M 242.171875 309.757812 L 245.949219 317.34375 Z M 261.71875 309.488281 L 266.355469 316.441406 L 261.667969 309.382812 L 257.882812 301.804688 L 256.957031 302.34375 L 261.71875 309.488281 L 265.453125 316.960938 Z M 116.007812 307.886719 L 120.710938 300.835938 L 120.050781 300.4375 L 115.914062 308.023438 L 111.304688 314.9375 L 115.914062 308.023438 L 111.9375 315.316406 Z M 271.367188 313.34375 L 266.5 306.042969 L 262.300781 299.035156 L 266.5 306.042969 L 261.972656 299.242188 L 266.65625 306.300781 L 271.011719 313.566406 Z M 111.054688 304.691406 L 116.035156 297.839844 L 114.828125 297.105469 L 111 304.757812 L 106.074219 311.539062 L 111 304.757812 L 107.25 312.257812 Z M 271.636719 303.148438 L 276.824219 309.625 L 271.542969 303 L 266.839844 295.953125 L 266.234375 296.394531 L 271.636719 303.148438 L 276.246094 310.050781 Z M 111.21875 294.4375 L 101.25 308.136719 L 101.257812 308.144531 Z M 281.5625 306.136719 L 276.167969 299.390625 L 271.558594 292.480469 L 276.167969 299.390625 L 270.980469 292.902344 L 276.261719 299.527344 L 280.964844 306.578125 Z M 101.632812 297.632812 L 107.554688 291.707031 L 101.632812 297.632812 L 106.558594 290.859375 L 101.5625 297.699219 L 95.570312 303.695312 L 96.589844 304.570312 Z M 281.320312 296.410156 L 286.273438 302.351562 L 280.867188 295.847656 L 275.570312 289.214844 L 275.421875 289.328125 L 281.3125 296.382812 L 286.152344 302.4375 Z M 97.207031 293.742188 L 102.75 287.644531 L 97.207031 293.742188 L 102.359375 287.308594 L 97.058594 293.917969 L 91.359375 300.1875 L 91.777344 300.542969 Z M 291.277344 297.960938 L 285.191406 291.871094 L 290.570312 298.59375 Z M 92.710938 289.96875 L 98.703125 283.972656 L 97.992188 283.34375 L 92.617188 290.0625 L 86.71875 295.960938 L 92.617188 290.0625 L 87.402344 296.574219 Z M 295.546875 293.90625 L 289.460938 287.820312 L 284.253906 281.308594 L 289.460938 287.820312 L 283.5625 281.921875 L 289.546875 287.921875 L 294.839844 294.539062 Z M 285.277344 291.976562 L 279.292969 285.976562 Z M 88.527344 285.828125 L 94.824219 280.15625 L 94.503906 279.816406 L 88.320312 286 L 82.230469 291.484375 L 88.320312 286 L 82.527344 291.792969 Z M 293.746094 283.792969 L 300.257812 288.996094 L 293.652344 283.695312 L 287.660156 277.703125 L 287.027344 278.414062 L 293.746094 283.792969 L 299.644531 289.691406 Z M 90.8125 275.84375 L 78.222656 287.179688 L 78.230469 287.1875 Z M 304.191406 284.597656 L 297.003906 278.847656 L 291.0625 273.894531 L 297.003906 278.847656 L 290.96875 274.015625 L 297.574219 279.316406 L 304.085938 284.738281 Z M 80.777344 276.984375 L 73.640625 281.738281 L 74.402344 282.71875 Z M 307.925781 280.042969 L 300.734375 274.292969 L 307.8125 280.191406 Z M 77.425781 272.136719 L 83.832031 267.328125 L 77.425781 272.136719 L 83.679688 267.128906 L 77.050781 272.414062 L 70.269531 277.496094 L 70.445312 277.710938 Z M 86.996094 271.382812 L 80.691406 277.039062 Z M 311.898438 274.75 L 304.703125 269.953125 L 311.449219 275.347656 Z M 301.300781 274.769531 L 294.691406 269.46875 Z M 73.597656 267.675781 L 80.671875 262.964844 L 80.558594 262.789062 L 73.113281 268.003906 L 66.574219 272.359375 L 73.085938 268.011719 L 66.667969 272.507812 Z M 297.800781 265.355469 L 304.839844 270.066406 Z M 308.453125 265.371094 L 315.457031 269.570312 L 308.210938 265.207031 L 301.152344 260.503906 L 300.925781 260.859375 L 308.453125 265.371094 L 315.25 269.902344 Z M 70.375 262.757812 L 77.695312 258.488281 L 76.984375 257.445312 L 70.289062 262.800781 L 63.058594 267.015625 L 70.289062 262.800781 L 63.75 268.03125 Z M 311.441406 260.289062 L 318.90625 264.019531 L 311.335938 260.21875 L 304.285156 255.515625 L 303.75 256.441406 L 311.441406 260.289062 L 318.386719 264.921875 Z M 67.542969 257.613281 L 59.757812 261.5 L 60.027344 261.992188 Z M 321.859375 258.902344 L 314.175781 255.058594 L 321.320312 259.820312 Z M 74.664062 253.453125 L 67.335938 257.707031 Z M 64.519531 252.570312 L 72.097656 248.777344 L 71.832031 248.285156 L 64.320312 252.667969 L 56.941406 256.355469 L 64.320312 252.667969 L 57.203125 256.824219 Z M 314.273438 255.125 L 306.703125 251.324219 Z M 324.570312 253.671875 L 309.40625 246.109375 L 324.5625 253.6875 Z M 62.113281 247.21875 L 69.742188 244.039062 L 62.113281 247.21875 L 69.507812 243.519531 L 61.921875 247.296875 L 54.101562 250.554688 L 54.351562 251.097656 Z M 319.5625 244.578125 L 327.636719 246.882812 L 319.496094 244.542969 L 311.917969 240.757812 L 311.34375 242.230469 L 319.5625 244.578125 L 327.074219 248.328125 Z M 59.464844 241.980469 L 67.363281 238.6875 L 67.328125 238.59375 L 58.277344 242.472656 L 51.730469 245.199219 L 58.222656 242.5 L 51.753906 245.269531 Z M 321.839844 239.140625 L 329.914062 241.441406 L 321.773438 239.105469 L 314.195312 235.320312 L 313.621094 236.792969 L 321.839844 239.140625 L 329.351562 242.890625 Z M 57.503906 236.4375 L 65.535156 234.140625 L 57.503906 236.4375 L 65.214844 233.222656 L 57.382812 236.472656 L 49.234375 238.800781 L 49.5625 239.746094 Z M 331.84375 236.246094 L 323.644531 233.507812 L 331.59375 236.914062 Z M 55.445312 230.929688 L 63.5 228.242188 L 63.4375 228.0625 L 54.839844 231.136719 L 47.425781 233.605469 L 54.820312 231.136719 L 47.476562 233.761719 Z M 323.808594 233.578125 L 315.769531 230.886719 Z M 333.757812 230.296875 L 325.28125 227.871094 L 333.644531 230.660156 Z M 317.46875 225.636719 L 325.609375 227.976562 Z M 54.199219 225.167969 L 61.984375 223.222656 L 54.199219 225.167969 L 61.914062 222.960938 L 53.765625 225.273438 L 45.546875 227.324219 L 45.625 227.613281 Z M 327.304688 222.328125 L 335.535156 223.695312 L 327.183594 222.292969 L 319.035156 219.964844 L 318.820312 220.917969 L 327.304688 222.328125 L 335.328125 224.625 Z M 52.300781 219.59375 L 60.597656 217.816406 L 60.527344 217.523438 L 51.902344 219.679688 L 44.03125 221.367188 L 51.894531 219.6875 L 44.089844 221.636719 Z M 336.902344 217.765625 L 328.433594 216.550781 L 336.546875 219.253906 Z M 320.128906 215.367188 L 328.511719 216.578125 Z M 51.410156 213.761719 L 59.453125 212.421875 L 51.410156 213.761719 L 59.386719 212.058594 L 51.097656 213.816406 L 42.738281 215.210938 L 42.816406 215.609375 Z M 337.984375 211.980469 L 328.988281 210.699219 L 321.234375 209.40625 L 328.988281 210.699219 L 321.210938 209.589844 L 329.59375 210.800781 L 337.949219 212.195312 Z M 50.101562 208.03125 L 58.511719 206.828125 L 58.476562 206.617188 L 49.53125 208.109375 L 41.734375 209.226562 L 49.511719 208.117188 L 41.761719 209.40625 Z M 338.832031 206.160156 L 329.835938 204.878906 L 322.085938 203.585938 L 329.835938 204.878906 L 322.058594 203.769531 L 330.441406 204.980469 L 338.800781 206.375 Z M 49.390625 202.191406 L 57.84375 201.585938 L 57.75 200.78125 L 49.242188 202.203125 L 40.945312 202.789062 L 49.242188 202.203125 L 41.035156 203.570312 Z M 331.152344 199.117188 L 339.519531 199.117188 L 331.046875 199.101562 L 322.65625 197.90625 L 322.570312 199.117188 L 331.152344 199.117188 L 339.441406 200.304688 Z M 48.8125 196.328125 L 57.359375 195.722656 L 57.351562 195.609375 L 47.796875 196.40625 L 40.460938 196.9375 L 47.726562 196.417969 L 40.46875 197.023438 Z M 339.882812 193.230469 L 331.324219 193.230469 L 339.769531 194.632812 Z M 331.410156 193.246094 L 322.941406 193.230469 Z M 48.65625 190.449219 L 57.125 190.449219 L 57.097656 189.730469 L 48.480469 190.449219 L 40.183594 190.449219 L 48.480469 190.449219 L 40.210938 191.140625 Z M 340.003906 187.347656 L 323.054688 187.367188 L 340.003906 187.367188 Z M 340.003906 187.054688 L 323.054688 187.070312 L 340.003906 187.070312 Z M 48.828125 184.558594 L 40.210938 183.839844 L 40.183594 184.558594 Z M 57.125 184.558594 L 48.65625 184.542969 L 48.828125 184.558594 Z M 331.5 181.175781 L 339.871094 181.175781 L 331.5 181.175781 L 339.777344 179.902344 L 331.402344 181.175781 L 322.933594 181.175781 L 323.027344 182.472656 Z M 57.359375 178.671875 L 48.679688 178.671875 L 40.4375 178.082031 L 48.679688 178.671875 L 40.417969 178.671875 L 48.886719 178.6875 L 57.339844 179.292969 Z M 322.636719 176.496094 L 331.03125 175.3125 Z M 339.414062 174.105469 L 330.925781 175.320312 L 339.5 175.320312 Z M 57.808594 173.421875 L 49.363281 172.808594 Z M 40.988281 171.515625 L 40.914062 172.21875 L 49.546875 172.832031 Z M 331.664062 169.273438 L 338.800781 168.253906 L 331.75 169.257812 L 338.789062 168.175781 L 330.527344 169.429688 L 322.023438 170.644531 L 322.039062 170.746094 Z M 58.46875 168.164062 L 48.828125 166.789062 L 41.699219 165.6875 L 48.765625 166.78125 L 41.691406 165.765625 L 49.988281 166.960938 L 58.449219 168.261719 Z M 329.550781 163.644531 L 337.941406 162.449219 L 337.925781 162.347656 L 328.242188 163.835938 L 321.167969 164.847656 L 328.242188 163.835938 L 321.175781 164.925781 Z M 59.429688 162.355469 L 50.871094 161.132812 L 42.78125 159.261719 L 50.871094 161.125 L 42.652344 159.945312 L 51.035156 161.160156 L 59.289062 163.066406 Z M 328.570312 157.832031 L 336.832031 156.5625 L 328.570312 157.832031 L 336.609375 155.539062 L 328.457031 157.851562 L 320.082031 159.140625 L 320.316406 160.199219 Z M 60.527344 157.175781 L 51.367188 155.210938 L 43.988281 153.511719 L 51.339844 155.210938 L 43.960938 153.625 L 52.207031 155.410156 L 60.492188 157.324219 Z M 327.117188 152.136719 L 335.5 150.941406 L 335.203125 149.632812 L 327.019531 152.152344 L 318.722656 153.339844 L 327.019531 152.152344 L 319.007812 154.613281 Z M 61.949219 151.597656 L 53.496094 149.648438 L 45.589844 147.214844 L 53.496094 149.648438 L 45.441406 147.789062 L 53.695312 149.710938 L 61.792969 152.203125 Z M 333.628906 143.976562 L 333.628906 143.960938 L 317.433594 148.957031 Z M 55.574219 144.132812 L 63.464844 146.558594 L 55.375 144.054688 L 47.46875 141.015625 L 47.269531 141.578125 L 55.574219 144.132812 L 63.28125 147.09375 Z M 323.816406 140.824219 L 331.808594 138.363281 L 323.816406 140.824219 L 331.410156 137.316406 L 323.710938 140.851562 L 315.613281 143.34375 L 316.023438 144.417969 Z M 65.394531 140.972656 L 57.089844 138.417969 L 49.382812 135.457031 L 57.089844 138.417969 L 49.199219 135.992188 L 57.289062 138.496094 L 65.195312 141.535156 Z M 321.746094 135.316406 L 329.558594 132.257812 L 329.359375 131.792969 L 322.09375 135.144531 L 329.246094 131.566406 L 321.867188 135.246094 L 313.777344 138.433594 L 313.976562 138.882812 L 313.96875 138.882812 L 313.976562 138.882812 L 314.089844 139.136719 Z M 67.351562 136.042969 L 59.453125 132.988281 Z M 311.8125 133.722656 L 319.398438 129.945312 Z M 51.867188 129.203125 L 51.53125 129.964844 L 59.585938 133.066406 Z M 69.734375 130.632812 L 61.6875 127.539062 L 54.25 123.816406 L 61.6875 127.539062 L 53.921875 124.550781 L 61.820312 127.609375 L 69.398438 131.402344 Z M 327.496094 127.453125 L 326.96875 126.144531 L 319.3125 129.972656 Z M 324.484375 120.835938 L 324.472656 120.828125 L 309.328125 128.421875 Z M 64.632812 122.421875 L 72.011719 126.109375 L 64.441406 122.308594 L 57.125 118.039062 L 56.855469 118.53125 L 64.632812 122.421875 L 71.753906 126.578125 Z M 314.28125 119.355469 L 321.753906 115.621094 L 314.28125 119.355469 L 321.234375 114.722656 L 314.175781 119.40625 L 306.597656 123.199219 L 307.136719 124.128906 Z M 74.835938 120.921875 L 67.058594 117.035156 L 59.9375 112.878906 L 67.058594 117.035156 L 59.6875 113.34375 L 67.257812 117.148438 L 74.574219 121.417969 Z M 304.199219 119.015625 L 311.257812 114.332031 Z M 77.597656 116.359375 L 70.289062 112.082031 Z M 318.6875 110.269531 L 318.289062 109.613281 L 311.101562 114.402344 Z M 301.253906 114.332031 L 308.113281 109.359375 Z M 63.4375 107.101562 L 62.960938 107.828125 L 70.410156 112.167969 Z M 80.855469 111.429688 L 73.40625 107.09375 L 66.667969 102.191406 L 73.398438 107.082031 L 66.210938 102.890625 L 73.519531 107.171875 L 80.371094 112.148438 Z M 311.621094 99.546875 L 311.613281 99.539062 L 297.921875 109.515625 Z M 315.691406 105.578125 L 314.957031 104.371094 L 308.035156 109.40625 Z M 77.171875 102.554688 L 83.816406 107.386719 L 76.972656 102.390625 L 70.417969 97.019531 L 70.117188 97.410156 L 77.171875 102.554688 L 83.53125 107.75 Z M 301.289062 99.773438 L 308.0625 94.847656 L 301.289062 99.773438 L 307.214844 93.851562 L 301.210938 99.824219 L 294.363281 104.804688 L 295.238281 105.828125 Z M 87.230469 103.046875 L 79.652344 96.984375 L 74.046875 92.402344 L 79.589844 96.941406 L 73.996094 92.472656 L 80.515625 97.703125 L 87.160156 103.132812 Z M 297.652344 95.140625 L 304.085938 89.988281 L 297.652344 95.140625 L 303.75 89.597656 L 297.472656 95.289062 L 290.855469 100.578125 L 291.210938 100.996094 Z M 90.996094 98.648438 L 84.199219 93.089844 L 78.125 87.625 L 84.1875 93.078125 L 77.875 87.910156 L 84.421875 93.277344 L 90.71875 98.949219 Z M 293.566406 90.914062 L 287.5625 96.898438 Z M 88.535156 89.070312 L 94.730469 94.648438 L 88.441406 88.964844 L 82.777344 82.667969 L 82.136719 83.308594 L 88.535156 89.070312 L 94.113281 95.261719 Z M 289.652344 86.488281 L 295.445312 80.695312 L 289.652344 86.488281 L 295.132812 80.398438 L 289.460938 86.6875 L 283.46875 92.679688 L 283.804688 93 Z M 98.609375 90.820312 L 92.425781 84.636719 L 86.941406 78.546875 L 92.425781 84.636719 L 86.632812 78.839844 L 92.605469 84.84375 L 98.28125 91.140625 Z M 300.183594 85.621094 L 299.550781 84.914062 L 293.460938 91 Z M 285.191406 82.644531 L 291.183594 76.648438 L 290.847656 76.328125 L 284.992188 82.832031 L 279.199219 88.628906 L 284.992188 82.832031 L 279.507812 88.921875 Z M 102.628906 87.164062 L 96.972656 80.859375 Z M 280.808594 78.695312 L 286.410156 72.476562 L 280.808594 78.695312 L 285.449219 71.730469 L 280.738281 78.773438 L 275.074219 85.070312 L 276.054688 85.832031 Z M 106.828125 83.648438 L 101.476562 77.082031 Z M 276.433594 74.726562 L 281.441406 68.464844 L 276.433594 74.726562 L 281.242188 68.320312 L 276.148438 75.082031 L 270.847656 81.707031 L 271.066406 81.882812 Z M 91.601562 74.304688 L 91.289062 74.570312 L 97.171875 81.101562 Z M 101.144531 66.640625 L 101.136719 66.648438 L 111.113281 80.339844 Z M 266.707031 78.652344 L 271.421875 71.609375 Z M 96.183594 70.464844 L 96.097656 70.535156 L 102.296875 78.105469 Z M 111 70.222656 L 115.894531 76.960938 L 110.921875 70.101562 L 106.652344 62.785156 L 105.925781 63.261719 L 111 70.222656 L 115.195312 77.414062 Z M 262.25 75.628906 L 266.527344 68.320312 Z M 120.414062 74.050781 L 115.667969 66.59375 L 111.589844 59.597656 L 115.667969 66.585938 L 111.320312 59.753906 L 115.851562 66.898438 L 120.121094 74.226562 Z M 265.78125 57.917969 L 265.773438 57.910156 L 257.25 72.554688 Z M 276.710938 64.992188 L 276.105469 64.550781 L 271.308594 71.75 Z M 120.925781 63.917969 L 125.179688 71.246094 Z M 256.367188 62.359375 L 252.566406 69.929688 Z M 122.320312 53.578125 L 122.3125 53.585938 L 129.90625 68.734375 Z M 271.828125 61.703125 L 270.789062 60.992188 L 266.464844 68.398438 Z M 251.207031 59.46875 L 254.878906 52.113281 L 251.207031 59.46875 L 254.445312 51.914062 L 251.09375 59.691406 L 247.300781 67.269531 L 247.769531 67.488281 Z M 135.171875 66.1875 L 131.398438 58.601562 Z M 249.078125 49.480469 L 248.980469 49.449219 L 242.398438 65.0625 Z M 140.039062 64.101562 L 136.585938 55.804688 L 133.726562 48.375 L 136.578125 55.789062 L 133.519531 48.453125 L 136.757812 56.261719 L 139.804688 64.1875 Z M 117.132812 56.339844 L 116.640625 56.609375 L 121.023438 64.128906 Z M 240.363281 54.792969 L 243.515625 47.230469 L 240.363281 54.792969 L 243.117188 47.074219 L 240.261719 55.042969 L 237.003906 62.863281 L 237.429688 63.027344 Z M 260.636719 55.042969 L 260.144531 54.773438 L 256.253906 62.550781 Z M 142.378906 54.480469 L 145.304688 62.09375 L 142.273438 54.175781 L 139.597656 46.140625 L 139.226562 46.277344 L 142.378906 54.480469 L 144.960938 62.214844 Z M 234.707031 53.085938 L 237.558594 45.109375 L 237.375 45.046875 L 234.484375 53.726562 L 231.859375 61.070312 L 234.484375 53.726562 L 232.015625 61.121094 Z M 145.367188 44.207031 L 145.347656 44.207031 L 150.347656 60.402344 Z M 229.191406 50.921875 L 231.398438 43.1875 L 229.191406 50.910156 L 231.140625 43.125 L 229.070312 51.328125 L 226.742188 59.484375 L 227.027344 59.5625 Z M 153.507812 50.667969 L 155.984375 58.765625 Z M 128.355469 50.695312 L 127.59375 51.03125 L 131.449219 58.75 Z M 223.398438 49.847656 L 221.605469 58.125 Z M 159.222656 49.273438 L 161.113281 57.535156 Z M 217.699219 48.269531 L 219.40625 40.292969 L 217.699219 48.269531 L 219.042969 40.222656 L 217.636719 48.574219 L 215.863281 56.859375 L 216.261719 56.9375 Z M 166.765625 56.402344 L 164.9375 47.871094 L 163.691406 39.738281 L 164.9375 47.863281 L 163.214844 39.824219 L 164.972656 48.113281 L 166.265625 56.488281 Z M 210.640625 55.941406 L 211.851562 47.558594 Z M 172.09375 55.570312 L 170.613281 45.941406 L 169.589844 38.8125 L 170.59375 45.863281 L 169.511719 38.820312 L 170.769531 47.09375 L 171.980469 55.589844 Z M 206.042969 46.546875 L 207.203125 38.398438 L 206.042969 46.546875 L 206.726562 38.34375 L 206.007812 46.78125 L 204.8125 55.171875 L 205.324219 55.234375 Z M 177.9375 54.894531 L 176.621094 46.347656 L 176.035156 38.078125 L 176.621094 46.347656 L 175.359375 38.15625 L 176.632812 46.527344 L 177.238281 54.980469 Z M 200.160156 46.253906 L 199.546875 54.703125 Z M 183.109375 54.546875 L 182.519531 46.097656 Z M 194.289062 45.957031 L 194.992188 37.511719 L 194.273438 37.488281 L 194.273438 46.128906 L 193.578125 54.402344 L 194.273438 46.128906 L 194.273438 54.425781 Z M 188.402344 37.4375 L 188.382812 37.4375 L 188.402344 54.382812 Z M 151.730469 42.378906 L 151.003906 42.570312 L 153.542969 50.832031 Z M 157.449219 40.988281 L 157.300781 41.019531 L 159.414062 50.175781 Z M 226.074219 41.808594 L 225.15625 41.558594 L 223.355469 49.976562 Z M 213.246094 39.203125 L 213.039062 39.167969 L 211.757812 48.164062 Z M 200.863281 37.808594 L 200.75 37.800781 L 200.066406 47.4375 Z M 182.519531 37.625 L 181.90625 37.652344 L 182.519531 46.3125 Z M 182.519531 37.625 "/><g clip-rule="nonzero" clip-path="url(#15a0ad225c)"><path style=" stroke:none;fill-rule:nonzero;fill:#000000;fill-opacity:1;" d="M 189.097656 46.527344 C 110.449219 46.527344 46.496094 110.480469 46.496094 189.128906 C 46.496094 242.730469 76.125 291.335938 123.777344 315.90625 C 123.777344 315.90625 123.835938 315.90625 123.894531 315.964844 C 135.496094 322.09375 146.144531 325.1875 155.84375 325.1875 C 163.519531 325.1875 170.539062 323.222656 176.902344 319.355469 C 200.402344 305.078125 203.496094 269.859375 203.257812 250.109375 C 203.140625 242.195312 196.714844 235.769531 188.800781 235.769531 L 188.625 235.769531 C 180.59375 235.890625 174.226562 242.433594 174.285156 250.40625 C 174.523438 272.476562 169.703125 289.789062 161.851562 294.546875 C 155.484375 298.414062 144.957031 294.308594 137.222656 290.144531 C 137.164062 290.144531 137.164062 290.085938 137.101562 290.085938 C 137.101562 290.085938 137.042969 290.085938 137.042969 290.027344 C 99.027344 270.453125 75.410156 231.726562 75.410156 189.007812 C 75.410156 126.363281 126.394531 75.378906 189.039062 75.378906 C 251.683594 75.378906 302.667969 126.363281 302.667969 189.007812 C 302.667969 211.675781 296.066406 233.390625 283.574219 252.070312 C 280.714844 246.714844 277.5625 237.792969 276.078125 233.449219 C 275.71875 232.378906 267.035156 206.679688 253.230469 180.621094 C 232.46875 141.355469 211.46875 122.257812 189.21875 122.257812 C 166.910156 122.257812 145.96875 141.355469 125.144531 180.621094 C 111.34375 206.679688 102.65625 232.320312 102.300781 233.449219 C 99.742188 241.003906 103.847656 249.214844 111.402344 251.773438 C 118.957031 254.332031 127.226562 250.226562 129.726562 242.671875 C 129.785156 242.433594 137.996094 218.21875 150.726562 194.183594 C 167.503906 162.535156 181.601562 151.230469 189.160156 151.230469 C 196.714844 151.230469 210.753906 162.417969 227.472656 193.886719 C 240.203125 217.863281 248.53125 242.433594 248.652344 242.789062 C 254.421875 259.507812 261.679688 280.269531 278.8125 283.484375 C 285.179688 284.671875 294.875 283.71875 304.8125 272.121094 L 305.644531 271.046875 C 322.660156 246.953125 331.640625 218.578125 331.640625 188.949219 C 331.640625 110.480469 267.6875 46.527344 189.097656 46.527344 Z M 189.097656 46.527344 "/></g><path style=" stroke:none;fill-rule:nonzero;fill:#000000;fill-opacity:1;" d="M 174.582031 215.1875 C 174.582031 223.15625 181.066406 229.640625 189.039062 229.640625 C 197.011719 229.640625 203.496094 223.15625 203.496094 215.1875 C 203.496094 207.214844 197.011719 200.730469 189.039062 200.730469 C 181.066406 200.667969 174.582031 207.15625 174.582031 215.1875 Z M 174.582031 215.1875 "/></g></svg>