<svg xmlns="http://www.w3.org/2000/svg" xmlns:xlink="http://www.w3.org/1999/xlink" width="500" zoomAndPan="magnify" viewBox="0 0 375 374.999991" height="500" preserveAspectRatio="xMidYMid meet" version="1.2"><defs><clipPath id="0c4c7d4164"><path d="M 42.914062 37.5 L 337.664062 37.5 L 337.664062 329.25 L 42.914062 329.25 Z M 42.914062 37.5 "/></clipPath><clipPath id="b078b9d617"><path d="M 79.324219 74.050781 L 303.574219 74.050781 L 303.574219 293 L 79.324219 293 Z M 79.324219 74.050781 "/></clipPath></defs><g id="92f0ad1d45"><rect x="0" width="375" y="0" height="374.999991" style="fill:#ffffff;fill-opacity:1;stroke:none;"/><rect x="0" width="375" y="0" height="374.999991" style="fill:#ffffff;fill-opacity:1;stroke:none;"/><g clip-rule="nonzero" clip-path="url(#0c4c7d4164)"><path style=" stroke:none;fill-rule:nonzero;fill:#000000;fill-opacity:1;" d="M 337.242188 184.835938 C 337.242188 222.847656 322.789062 258.925781 296.558594 286.417969 L 294.351562 284.308594 L 293.507812 283.507812 L 290.699219 280.828125 C 315.492188 254.847656 329.144531 220.761719 329.144531 184.835938 Z M 190.078125 37.671875 L 190.078125 45.769531 C 227.226562 45.769531 262.152344 60.234375 288.417969 86.5 L 290.597656 84.316406 L 294.140625 80.777344 C 266.34375 52.980469 229.386719 37.671875 190.078125 37.671875 Z M 51.011719 184.835938 L 42.914062 184.835938 C 42.914062 224.511719 58.476562 261.714844 86.71875 289.589844 L 88.996094 287.285156 L 89.8125 286.457031 L 92.40625 283.828125 C 65.714844 257.488281 51.011719 222.332031 51.011719 184.835938 Z M 77.105469 96.941406 C 57.578125 121.941406 46.804688 153.011719 46.675781 184.835938 L 47.832031 184.835938 C 47.960938 153.308594 58.625 122.53125 77.9375 97.753906 C 78.527344 96.992188 79.125 96.246094 79.730469 95.5 L 78.832031 94.765625 C 78.25 95.484375 77.671875 96.210938 77.105469 96.941406 Z M 158.238281 324.339844 C 132.417969 318.398438 108.632812 305.175781 89.8125 286.457031 L 88.996094 287.285156 C 107.972656 306.164062 131.960938 319.484375 157.996094 325.46875 C 159.089844 325.726562 160.191406 325.964844 161.292969 326.1875 L 161.523438 325.050781 C 160.421875 324.828125 159.328125 324.589844 158.238281 324.339844 Z M 113.34375 64.039062 L 113.96875 65.019531 C 114.898438 64.429688 115.84375 63.84375 116.789062 63.277344 C 138.867188 49.941406 164.132812 42.902344 190.078125 42.875 L 190.078125 41.71875 C 163.949219 41.746094 138.507812 48.828125 116.273438 62.238281 C 115.289062 62.816406 114.316406 63.421875 113.34375 64.039062 Z M 229.386719 322.488281 C 228.199219 322.835938 226.996094 323.15625 225.792969 323.46875 L 226.085938 324.582031 C 227.289062 324.277344 228.476562 323.953125 229.667969 323.605469 C 254.21875 316.589844 276.703125 302.886719 294.351562 284.308594 L 293.507812 283.507812 C 276.019531 301.933594 253.734375 315.523438 229.386719 322.488281 Z M 291.726562 83.808594 C 291.625 83.707031 291.515625 83.601562 291.414062 83.5 L 290.597656 84.316406 C 290.699219 84.414062 290.808594 84.519531 290.910156 84.621094 C 317.664062 111.410156 332.464844 146.980469 332.605469 184.835938 L 333.769531 184.835938 C 333.625 146.667969 318.707031 110.8125 291.726562 83.808594 Z M 79.921875 91.449219 C 78.003906 91.449219 76.453125 93.003906 76.453125 94.914062 C 76.453125 96.824219 78.011719 98.378906 79.921875 98.378906 C 81.832031 98.378906 83.386719 96.824219 83.386719 94.914062 C 83.386719 93.003906 81.835938 91.449219 79.921875 91.449219 Z M 161.457031 322.171875 C 159.539062 322.171875 157.988281 323.726562 157.988281 325.636719 C 157.988281 327.554688 159.546875 329.105469 161.457031 329.105469 C 163.371094 329.105469 164.921875 327.546875 164.921875 325.636719 C 164.929688 323.71875 163.371094 322.171875 161.457031 322.171875 Z M 226.21875 320.429688 C 224.304688 320.429688 222.753906 321.988281 222.753906 323.898438 C 222.753906 325.8125 224.308594 327.363281 226.21875 327.363281 C 228.136719 327.363281 229.6875 325.808594 229.6875 323.898438 C 229.6875 321.988281 228.136719 320.429688 226.21875 320.429688 Z M 113.460938 60.796875 C 111.542969 60.796875 109.992188 62.355469 109.992188 64.265625 C 109.992188 66.175781 111.550781 67.730469 113.460938 67.730469 C 115.367188 67.730469 116.925781 66.175781 116.925781 64.265625 C 116.925781 62.355469 115.375 60.796875 113.460938 60.796875 Z M 190.152344 317.25 C 190.792969 317.25 191.308594 316.726562 191.308594 316.09375 C 191.300781 315.453125 190.785156 314.9375 190.148438 314.9375 C 189.507812 314.9375 188.992188 315.460938 188.992188 316.09375 C 188.992188 316.734375 189.515625 317.25 190.152344 317.25 Z M 184.945312 317.152344 C 185.566406 317.152344 186.074219 316.664062 186.101562 316.046875 C 186.121094 315.40625 185.625 314.863281 184.996094 314.84375 C 184.355469 314.824219 183.8125 315.320312 183.792969 315.949219 C 183.769531 316.589844 184.265625 317.125 184.898438 317.152344 C 184.917969 317.152344 184.933594 317.152344 184.945312 317.152344 Z M 195.355469 317.148438 C 195.367188 317.148438 195.386719 317.148438 195.402344 317.148438 C 196.039062 317.121094 196.535156 316.582031 196.507812 315.945312 C 196.488281 315.304688 195.945312 314.800781 195.304688 314.835938 C 194.667969 314.855469 194.171875 315.398438 194.199219 316.039062 C 194.226562 316.664062 194.734375 317.148438 195.355469 317.148438 Z M 179.761719 316.847656 C 180.359375 316.847656 180.863281 316.386719 180.910156 315.78125 C 180.964844 315.140625 180.480469 314.585938 179.84375 314.53125 C 179.203125 314.484375 178.652344 314.957031 178.597656 315.597656 C 178.542969 316.234375 179.027344 316.785156 179.664062 316.839844 C 179.691406 316.847656 179.71875 316.847656 179.761719 316.847656 Z M 200.546875 316.835938 C 200.582031 316.835938 200.609375 316.835938 200.640625 316.828125 C 200.648438 316.828125 200.648438 316.828125 200.648438 316.828125 C 201.289062 316.773438 201.757812 316.222656 201.710938 315.582031 C 201.65625 314.945312 201.105469 314.476562 200.457031 314.515625 L 200.464844 314.515625 C 199.828125 314.570312 199.351562 315.128906 199.398438 315.765625 C 199.445312 316.371094 199.949219 316.835938 200.546875 316.835938 Z M 174.574219 316.332031 C 175.152344 316.332031 175.65625 315.894531 175.722656 315.3125 C 175.796875 314.671875 175.34375 314.09375 174.710938 314.019531 C 174.070312 313.945312 173.5 314.394531 173.417969 315.03125 C 173.34375 315.671875 173.800781 316.242188 174.429688 316.316406 C 174.484375 316.324219 174.527344 316.332031 174.574219 316.332031 Z M 205.71875 316.316406 C 205.773438 316.316406 205.816406 316.3125 205.863281 316.304688 C 206.5 316.230469 206.949219 315.652344 206.875 315.019531 C 206.792969 314.378906 206.222656 313.933594 205.582031 314.007812 C 204.945312 314.082031 204.496094 314.660156 204.570312 315.296875 C 204.652344 315.882812 205.148438 316.316406 205.71875 316.316406 Z M 169.421875 315.609375 C 169.984375 315.609375 170.476562 315.203125 170.5625 314.640625 C 170.664062 314.007812 170.238281 313.414062 169.613281 313.3125 C 168.980469 313.210938 168.386719 313.648438 168.28125 314.265625 C 168.183594 314.898438 168.605469 315.488281 169.238281 315.597656 C 169.300781 315.605469 169.367188 315.609375 169.421875 315.609375 Z M 210.871094 315.582031 C 210.933594 315.582031 211 315.578125 211.0625 315.570312 C 211.695312 315.46875 212.121094 314.871094 212.015625 314.238281 C 211.917969 313.605469 211.320312 313.175781 210.6875 313.285156 C 210.054688 313.382812 209.628906 313.980469 209.738281 314.613281 C 209.824219 315.183594 210.316406 315.582031 210.871094 315.582031 Z M 164.304688 314.6875 C 164.839844 314.6875 165.324219 314.304688 165.433594 313.753906 C 165.5625 313.128906 165.152344 312.519531 164.527344 312.394531 C 163.902344 312.265625 163.289062 312.675781 163.160156 313.300781 C 163.03125 313.925781 163.441406 314.535156 164.070312 314.667969 C 164.148438 314.671875 164.230469 314.6875 164.304688 314.6875 Z M 215.996094 314.652344 C 216.070312 314.652344 216.152344 314.640625 216.226562 314.625 C 216.855469 314.496094 217.253906 313.890625 217.132812 313.265625 C 217.003906 312.632812 216.390625 312.238281 215.765625 312.363281 C 215.140625 312.484375 214.738281 313.097656 214.863281 313.722656 C 214.972656 314.273438 215.460938 314.652344 215.996094 314.652344 Z M 159.226562 313.542969 C 159.75 313.542969 160.21875 313.191406 160.355469 312.667969 C 160.503906 312.042969 160.121094 311.417969 159.503906 311.265625 C 158.878906 311.117188 158.253906 311.492188 158.105469 312.109375 C 157.953125 312.734375 158.328125 313.359375 158.953125 313.511719 C 159.042969 313.53125 159.136719 313.542969 159.226562 313.542969 Z M 221.074219 313.511719 C 221.171875 313.511719 221.257812 313.496094 221.355469 313.476562 C 221.972656 313.328125 222.351562 312.703125 222.195312 312.078125 C 222.046875 311.457031 221.421875 311.078125 220.796875 311.234375 C 220.175781 311.382812 219.804688 312.015625 219.953125 312.632812 C 220.082031 313.15625 220.550781 313.511719 221.074219 313.511719 Z M 154.195312 312.207031 C 154.699219 312.207031 155.160156 311.878906 155.304688 311.375 C 155.480469 310.765625 155.125 310.117188 154.507812 309.941406 C 153.898438 309.765625 153.25 310.117188 153.082031 310.738281 C 152.902344 311.347656 153.257812 311.996094 153.871094 312.164062 C 153.984375 312.191406 154.085938 312.207031 154.195312 312.207031 Z M 226.105469 312.164062 C 226.207031 312.164062 226.316406 312.152344 226.425781 312.125 C 227.035156 311.945312 227.390625 311.300781 227.21875 310.691406 C 227.042969 310.078125 226.398438 309.722656 225.785156 309.902344 C 225.171875 310.078125 224.8125 310.722656 224.992188 311.335938 C 225.140625 311.839844 225.601562 312.164062 226.105469 312.164062 Z M 149.226562 310.664062 C 149.710938 310.664062 150.164062 310.355469 150.328125 309.875 C 150.53125 309.269531 150.199219 308.609375 149.59375 308.414062 C 148.988281 308.207031 148.335938 308.542969 148.132812 309.140625 C 147.929688 309.746094 148.261719 310.398438 148.867188 310.601562 C 148.980469 310.640625 149.105469 310.664062 149.226562 310.664062 Z M 231.066406 310.621094 C 231.1875 310.621094 231.3125 310.601562 231.433594 310.558594 C 232.039062 310.355469 232.367188 309.703125 232.160156 309.097656 C 231.957031 308.492188 231.304688 308.167969 230.699219 308.371094 C 230.09375 308.574219 229.769531 309.226562 229.972656 309.832031 C 230.136719 310.316406 230.585938 310.621094 231.066406 310.621094 Z M 144.3125 308.914062 C 144.78125 308.914062 145.222656 308.628906 145.394531 308.167969 C 145.617188 307.570312 145.316406 306.902344 144.71875 306.679688 C 144.121094 306.453125 143.457031 306.753906 143.230469 307.351562 C 143.007812 307.949219 143.304688 308.617188 143.90625 308.839844 C 144.039062 308.886719 144.167969 308.914062 144.3125 308.914062 Z M 235.96875 308.867188 C 236.105469 308.867188 236.246094 308.847656 236.375 308.792969 C 236.972656 308.570312 237.273438 307.894531 237.046875 307.304688 C 236.824219 306.707031 236.160156 306.40625 235.558594 306.632812 C 234.960938 306.855469 234.664062 307.527344 234.886719 308.121094 C 235.0625 308.582031 235.503906 308.867188 235.96875 308.867188 Z M 139.472656 306.972656 C 139.921875 306.972656 140.347656 306.707031 140.539062 306.265625 C 140.792969 305.671875 140.519531 305 139.929688 304.75 C 139.34375 304.496094 138.664062 304.769531 138.414062 305.355469 C 138.160156 305.945312 138.433594 306.617188 139.023438 306.871094 C 139.167969 306.9375 139.324219 306.972656 139.472656 306.972656 Z M 240.78125 306.925781 C 240.9375 306.925781 241.085938 306.898438 241.234375 306.828125 C 241.828125 306.578125 242.097656 305.902344 241.839844 305.3125 C 241.589844 304.722656 240.917969 304.449219 240.324219 304.699219 L 240.324219 304.707031 C 239.734375 304.960938 239.460938 305.640625 239.71875 306.222656 C 239.902344 306.664062 240.332031 306.925781 240.78125 306.925781 Z M 134.714844 304.824219 C 135.144531 304.824219 135.558594 304.578125 135.761719 304.164062 C 136.03125 303.585938 135.78125 302.898438 135.210938 302.621094 C 134.632812 302.347656 133.941406 302.601562 133.667969 303.171875 C 133.394531 303.75 133.640625 304.4375 134.21875 304.714844 C 134.382812 304.789062 134.550781 304.824219 134.714844 304.824219 Z M 245.519531 304.789062 C 245.6875 304.796875 245.851562 304.753906 246.015625 304.679688 C 246.585938 304.402344 246.835938 303.714844 246.566406 303.144531 C 246.285156 302.566406 245.601562 302.316406 245.023438 302.59375 C 244.445312 302.867188 244.199219 303.550781 244.472656 304.128906 C 244.660156 304.542969 245.082031 304.789062 245.519531 304.789062 Z M 130.050781 302.492188 C 130.464844 302.492188 130.875 302.269531 131.078125 301.875 C 131.375 301.308594 131.160156 300.609375 130.59375 300.308594 C 130.039062 300.019531 129.335938 300.226562 129.03125 300.792969 C 128.738281 301.355469 128.949219 302.058594 129.515625 302.355469 C 129.683594 302.457031 129.875 302.492188 130.050781 302.492188 Z M 250.160156 302.472656 C 250.34375 302.472656 250.527344 302.425781 250.699219 302.335938 C 250.699219 302.328125 250.699219 302.328125 250.699219 302.328125 C 251.261719 302.035156 251.480469 301.335938 251.179688 300.765625 C 250.886719 300.207031 250.1875 299.984375 249.617188 300.28125 C 249.054688 300.582031 248.828125 301.28125 249.132812 301.851562 C 249.34375 302.246094 249.738281 302.464844 250.160156 302.472656 Z M 125.492188 299.976562 C 125.890625 299.976562 126.277344 299.765625 126.488281 299.398438 C 126.816406 298.84375 126.625 298.140625 126.066406 297.820312 C 125.519531 297.503906 124.8125 297.6875 124.492188 298.242188 C 124.171875 298.800781 124.355469 299.5 124.914062 299.820312 C 125.097656 299.929688 125.292969 299.976562 125.492188 299.976562 Z M 254.707031 299.957031 C 254.90625 299.957031 255.101562 299.910156 255.285156 299.800781 C 255.835938 299.480469 256.027344 298.773438 255.699219 298.222656 C 255.382812 297.664062 254.675781 297.480469 254.125 297.800781 C 253.574219 298.128906 253.382812 298.828125 253.703125 299.378906 C 253.917969 299.746094 254.308594 299.957031 254.707031 299.957031 Z M 121.03125 297.277344 C 121.410156 297.277344 121.785156 297.089844 122.011719 296.742188 C 122.351562 296.203125 122.195312 295.484375 121.648438 295.144531 C 121.113281 294.804688 120.390625 294.96875 120.050781 295.503906 C 119.710938 296.046875 119.875 296.761719 120.414062 297.101562 C 120.601562 297.222656 120.8125 297.277344 121.03125 297.277344 Z M 259.148438 297.265625 C 259.359375 297.265625 259.574219 297.210938 259.765625 297.089844 C 260.300781 296.75 260.464844 296.027344 260.125 295.492188 C 259.785156 294.945312 259.066406 294.789062 258.527344 295.128906 C 257.992188 295.46875 257.828125 296.183594 258.167969 296.726562 C 258.390625 297.074219 258.765625 297.265625 259.148438 297.265625 Z M 116.6875 294.402344 C 117.054688 294.402344 117.414062 294.226562 117.640625 293.90625 C 118.007812 293.382812 117.878906 292.664062 117.347656 292.296875 C 116.824219 291.929688 116.097656 292.066406 115.734375 292.589844 C 115.375 293.113281 115.503906 293.839844 116.027344 294.199219 C 116.230469 294.34375 116.464844 294.402344 116.6875 294.402344 Z M 263.484375 294.394531 C 263.707031 294.394531 263.933594 294.335938 264.136719 294.191406 C 264.660156 293.824219 264.796875 293.113281 264.429688 292.582031 C 264.0625 292.058594 263.347656 291.921875 262.816406 292.289062 C 262.292969 292.65625 262.160156 293.371094 262.523438 293.894531 C 262.757812 294.21875 263.117188 294.394531 263.484375 294.394531 Z M 112.460938 291.359375 C 112.8125 291.359375 113.160156 291.203125 113.382812 290.902344 C 113.773438 290.386719 113.667969 289.664062 113.160156 289.277344 C 112.644531 288.898438 111.921875 289 111.542969 289.507812 C 111.15625 290.019531 111.257812 290.746094 111.765625 291.125 C 111.976562 291.28125 112.222656 291.359375 112.460938 291.359375 Z M 267.703125 291.351562 C 267.949219 291.351562 268.1875 291.277344 268.398438 291.121094 C 268.90625 290.738281 269.011719 290.019531 268.621094 289.503906 C 268.242188 288.992188 267.519531 288.890625 267.003906 289.277344 C 266.496094 289.660156 266.394531 290.378906 266.78125 290.894531 C 267.003906 291.195312 267.351562 291.351562 267.703125 291.351562 Z M 108.367188 288.148438 C 108.699219 288.148438 109.035156 288 109.265625 287.722656 C 109.671875 287.230469 109.597656 286.496094 109.09375 286.097656 L 109.101562 286.097656 C 108.605469 285.6875 107.878906 285.765625 107.46875 286.261719 C 107.0625 286.757812 107.144531 287.484375 107.632812 287.882812 C 107.84375 288.0625 108.109375 288.148438 108.367188 288.148438 Z M 271.789062 288.144531 C 272.046875 288.144531 272.3125 288.0625 272.523438 287.882812 C 273.011719 287.476562 273.089844 286.757812 272.6875 286.261719 C 272.285156 285.765625 271.550781 285.695312 271.0625 286.097656 C 270.566406 286.496094 270.492188 287.226562 270.898438 287.722656 C 271.125 288 271.464844 288.144531 271.789062 288.144531 Z M 275.753906 284.777344 C 276.03125 284.777344 276.304688 284.683594 276.519531 284.484375 C 277.003906 284.0625 277.042969 283.335938 276.617188 282.855469 C 276.195312 282.371094 275.460938 282.332031 274.984375 282.757812 C 274.503906 283.179688 274.460938 283.914062 274.890625 284.390625 C 275.113281 284.640625 275.433594 284.777344 275.753906 284.777344 Z M 104.398438 284.769531 C 104.71875 284.769531 105.039062 284.636719 105.269531 284.382812 C 105.691406 283.902344 105.648438 283.175781 105.171875 282.746094 C 104.691406 282.324219 103.964844 282.371094 103.542969 282.847656 C 103.113281 283.324219 103.160156 284.058594 103.636719 284.480469 C 103.855469 284.675781 104.125 284.769531 104.398438 284.769531 Z M 279.578125 281.25 C 279.871094 281.25 280.15625 281.140625 280.375 280.925781 C 280.835938 280.480469 280.851562 279.746094 280.410156 279.285156 C 279.96875 278.824219 279.234375 278.808594 278.769531 279.25 C 278.316406 279.695312 278.296875 280.429688 278.738281 280.890625 C 278.976562 281.128906 279.273438 281.25 279.578125 281.25 Z M 100.578125 281.242188 C 100.878906 281.242188 101.183594 281.121094 101.40625 280.882812 C 101.855469 280.429688 101.835938 279.695312 101.375 279.25 C 100.910156 278.804688 100.183594 278.824219 99.734375 279.277344 C 99.292969 279.742188 99.3125 280.46875 99.769531 280.917969 C 100 281.132812 100.285156 281.242188 100.578125 281.242188 Z M 283.257812 277.566406 C 283.5625 277.566406 283.863281 277.449219 284.09375 277.210938 C 284.085938 277.210938 284.085938 277.210938 284.085938 277.210938 C 284.527344 276.75 284.515625 276.023438 284.058594 275.574219 C 283.597656 275.132812 282.871094 275.144531 282.421875 275.609375 C 281.972656 276.0625 281.992188 276.796875 282.457031 277.246094 C 282.6875 277.464844 282.964844 277.566406 283.257812 277.566406 Z M 96.894531 277.566406 C 97.1875 277.566406 97.472656 277.457031 97.695312 277.238281 C 98.152344 276.796875 98.171875 276.0625 97.722656 275.601562 C 97.28125 275.144531 96.546875 275.125 96.089844 275.566406 C 95.628906 276.007812 95.609375 276.75 96.058594 277.207031 C 96.289062 277.445312 96.59375 277.566406 96.894531 277.566406 Z M 286.792969 273.746094 C 287.113281 273.746094 287.429688 273.609375 287.660156 273.359375 C 288.082031 272.875 288.035156 272.148438 287.566406 271.71875 C 287.085938 271.300781 286.355469 271.347656 285.929688 271.816406 C 285.507812 272.296875 285.554688 273.027344 286.023438 273.453125 C 286.242188 273.652344 286.519531 273.746094 286.792969 273.746094 Z M 93.367188 273.746094 C 93.636719 273.746094 93.910156 273.652344 94.128906 273.453125 C 94.609375 273.03125 94.652344 272.296875 94.222656 271.824219 C 93.800781 271.339844 93.074219 271.300781 92.589844 271.726562 C 92.109375 272.148438 92.066406 272.882812 92.496094 273.359375 C 92.734375 273.609375 93.046875 273.746094 93.367188 273.746094 Z M 89.996094 269.78125 C 90.246094 269.78125 90.511719 269.695312 90.722656 269.523438 C 91.21875 269.117188 91.285156 268.390625 90.886719 267.898438 L 90.886719 267.894531 C 90.476562 267.402344 89.75 267.328125 89.261719 267.730469 C 88.765625 268.136719 88.695312 268.867188 89.097656 269.363281 C 89.328125 269.640625 89.660156 269.78125 89.996094 269.78125 Z M 290.171875 269.78125 C 290.503906 269.78125 290.835938 269.640625 291.066406 269.363281 C 291.476562 268.867188 291.402344 268.136719 290.898438 267.730469 C 290.40625 267.328125 289.679688 267.402344 289.273438 267.894531 C 288.863281 268.390625 288.941406 269.117188 289.4375 269.523438 C 289.648438 269.695312 289.90625 269.78125 290.171875 269.78125 Z M 86.78125 265.699219 C 87.023438 265.699219 87.261719 265.617188 87.472656 265.460938 C 87.988281 265.078125 88.085938 264.351562 87.703125 263.84375 C 87.316406 263.332031 86.597656 263.230469 86.085938 263.617188 C 85.578125 264 85.472656 264.71875 85.855469 265.234375 C 86.085938 265.535156 86.425781 265.699219 86.78125 265.699219 Z M 293.378906 265.683594 C 293.726562 265.683594 294.070312 265.527344 294.304688 265.230469 C 294.683594 264.71875 294.582031 263.992188 294.070312 263.609375 C 293.5625 263.222656 292.835938 263.324219 292.453125 263.835938 C 292.074219 264.34375 292.167969 265.074219 292.679688 265.453125 C 292.894531 265.609375 293.140625 265.683594 293.378906 265.683594 Z M 83.742188 261.484375 C 83.964844 261.484375 84.195312 261.414062 84.394531 261.273438 C 84.917969 260.90625 85.054688 260.183594 84.6875 259.667969 C 84.320312 259.144531 83.605469 259.007812 83.082031 259.375 C 82.558594 259.742188 82.421875 260.464844 82.789062 260.988281 C 82.789062 260.992188 82.789062 260.992188 82.789062 260.992188 C 83.011719 261.308594 83.367188 261.484375 83.742188 261.484375 Z M 296.429688 261.464844 C 296.796875 261.464844 297.15625 261.285156 297.375 260.96875 C 297.382812 260.96875 297.382812 260.96875 297.382812 260.96875 C 297.742188 260.445312 297.613281 259.714844 297.089844 259.355469 C 296.566406 258.988281 295.839844 259.125 295.480469 259.648438 L 295.480469 259.640625 C 295.117188 260.164062 295.246094 260.890625 295.769531 261.253906 C 295.976562 261.402344 296.207031 261.464844 296.429688 261.464844 Z M 80.867188 257.148438 C 81.078125 257.148438 81.292969 257.09375 81.484375 256.96875 C 82.019531 256.628906 82.183594 255.910156 81.84375 255.371094 C 81.503906 254.835938 80.785156 254.671875 80.246094 255.019531 C 79.710938 255.359375 79.546875 256.074219 79.886719 256.609375 C 80.109375 256.957031 80.484375 257.148438 80.867188 257.148438 Z M 299.304688 257.121094 C 299.6875 257.121094 300.058594 256.9375 300.285156 256.582031 C 300.277344 256.582031 300.277344 256.582031 300.277344 256.582031 C 300.625 256.046875 300.460938 255.332031 299.925781 254.984375 C 299.378906 254.644531 298.667969 254.808594 298.328125 255.34375 C 297.988281 255.882812 298.144531 256.601562 298.6875 256.941406 C 298.882812 257.066406 299.09375 257.121094 299.304688 257.121094 Z M 78.175781 252.703125 C 78.371094 252.703125 78.574219 252.648438 78.75 252.546875 C 79.308594 252.226562 79.492188 251.519531 79.171875 250.96875 C 78.855469 250.410156 78.148438 250.226562 77.597656 250.546875 C 77.039062 250.867188 76.855469 251.574219 77.175781 252.125 C 77.386719 252.496094 77.773438 252.703125 78.175781 252.703125 Z M 302.003906 252.667969 C 302.414062 252.667969 302.800781 252.457031 303.011719 252.089844 C 303.328125 251.53125 303.140625 250.832031 302.589844 250.503906 C 302.03125 250.1875 301.332031 250.375 301.011719 250.933594 C 300.6875 251.484375 300.875 252.191406 301.425781 252.511719 C 301.609375 252.613281 301.8125 252.667969 302.003906 252.667969 Z M 75.660156 248.160156 C 75.835938 248.160156 76.027344 248.121094 76.195312 248.023438 C 76.753906 247.726562 76.976562 247.027344 76.679688 246.460938 C 76.386719 245.898438 75.6875 245.679688 75.113281 245.980469 C 74.550781 246.269531 74.332031 246.972656 74.632812 247.542969 C 74.84375 247.929688 75.246094 248.160156 75.660156 248.160156 Z M 304.527344 248.105469 C 304.941406 248.105469 305.347656 247.882812 305.550781 247.488281 C 305.851562 246.921875 305.632812 246.222656 305.070312 245.925781 C 304.511719 245.625 303.8125 245.84375 303.507812 246.414062 C 303.214844 246.972656 303.433594 247.671875 303.996094 247.976562 C 304.160156 248.058594 304.34375 248.105469 304.527344 248.105469 Z M 73.335938 243.511719 C 73.503906 243.511719 73.667969 243.476562 73.832031 243.402344 C 74.40625 243.125 74.652344 242.4375 74.382812 241.859375 C 74.101562 241.28125 73.414062 241.035156 72.839844 241.308594 C 72.261719 241.585938 72.015625 242.273438 72.289062 242.851562 C 72.484375 243.273438 72.898438 243.511719 73.335938 243.511719 Z M 306.859375 243.4375 C 307.292969 243.4375 307.699219 243.191406 307.90625 242.777344 C 307.90625 242.785156 307.90625 242.785156 307.90625 242.785156 C 308.175781 242.207031 307.933594 241.511719 307.355469 241.242188 C 306.777344 240.960938 306.089844 241.214844 305.8125 241.792969 C 305.539062 242.363281 305.785156 243.054688 306.363281 243.328125 C 306.523438 243.402344 306.695312 243.4375 306.859375 243.4375 Z M 71.191406 238.785156 C 71.347656 238.785156 71.5 238.761719 71.648438 238.691406 C 72.238281 238.441406 72.511719 237.761719 72.253906 237.167969 C 72 236.585938 71.320312 236.304688 70.738281 236.5625 C 70.144531 236.816406 69.875 237.496094 70.132812 238.085938 C 70.316406 238.515625 70.746094 238.785156 71.191406 238.785156 Z M 309 238.691406 C 309.449219 238.691406 309.875 238.425781 310.066406 237.984375 C 310.316406 237.394531 310.046875 236.722656 309.460938 236.46875 C 308.871094 236.21875 308.195312 236.488281 307.945312 237.074219 C 307.695312 237.660156 307.957031 238.339844 308.550781 238.589844 C 308.699219 238.65625 308.847656 238.691406 309 238.691406 Z M 69.25 233.972656 C 69.386719 233.972656 69.527344 233.953125 69.664062 233.898438 C 70.261719 233.667969 70.5625 233.003906 70.328125 232.410156 C 70.105469 231.8125 69.4375 231.507812 68.839844 231.738281 C 68.242188 231.960938 67.945312 232.636719 68.175781 233.226562 C 68.167969 233.226562 68.167969 233.226562 68.167969 233.226562 C 68.34375 233.6875 68.785156 233.972656 69.25 233.972656 Z M 310.957031 233.851562 C 311.417969 233.851562 311.859375 233.566406 312.039062 233.105469 C 312.261719 232.507812 311.960938 231.839844 311.359375 231.617188 C 310.757812 231.390625 310.09375 231.683594 309.867188 232.289062 C 309.636719 232.886719 309.9375 233.554688 310.542969 233.777344 C 310.679688 233.832031 310.8125 233.851562 310.957031 233.851562 Z M 67.496094 229.066406 C 67.617188 229.066406 67.746094 229.046875 67.863281 229.003906 C 68.46875 228.800781 68.792969 228.140625 68.589844 227.542969 C 68.386719 226.9375 67.734375 226.605469 67.128906 226.816406 C 66.523438 227.019531 66.195312 227.671875 66.402344 228.277344 C 66.5625 228.761719 67.019531 229.066406 67.496094 229.066406 Z M 312.703125 228.9375 C 313.1875 228.9375 313.640625 228.632812 313.804688 228.140625 C 314.007812 227.539062 313.683594 226.886719 313.078125 226.679688 C 312.472656 226.476562 311.8125 226.808594 311.617188 227.410156 C 311.410156 228.011719 311.738281 228.664062 312.34375 228.871094 C 312.457031 228.910156 312.582031 228.9375 312.703125 228.9375 Z M 65.945312 224.105469 C 66.046875 224.105469 66.15625 224.089844 66.273438 224.058594 C 66.882812 223.878906 67.238281 223.242188 67.058594 222.628906 C 66.882812 222.019531 66.246094 221.65625 65.625 221.839844 C 65.015625 222.019531 64.660156 222.664062 64.835938 223.277344 C 64.980469 223.773438 65.441406 224.105469 65.945312 224.105469 Z M 314.253906 223.960938 C 314.757812 223.960938 315.21875 223.628906 315.359375 223.125 C 315.539062 222.515625 315.183594 221.867188 314.566406 221.691406 C 313.953125 221.515625 313.308594 221.867188 313.136719 222.488281 C 312.960938 223.097656 313.316406 223.746094 313.925781 223.914062 C 314.035156 223.957031 314.144531 223.960938 314.253906 223.960938 Z M 64.597656 219.074219 C 64.695312 219.074219 64.78125 219.0625 64.878906 219.039062 C 65.496094 218.890625 65.878906 218.257812 65.722656 217.640625 C 65.570312 217.023438 64.941406 216.648438 64.320312 216.796875 C 63.703125 216.945312 63.320312 217.578125 63.476562 218.199219 C 63.605469 218.722656 64.078125 219.074219 64.597656 219.074219 Z M 315.59375 218.9375 C 316.117188 218.9375 316.585938 218.585938 316.714844 218.0625 C 316.871094 217.4375 316.488281 216.8125 315.871094 216.660156 C 315.253906 216.503906 314.621094 216.886719 314.472656 217.503906 C 314.320312 218.125 314.695312 218.753906 315.3125 218.90625 C 315.410156 218.925781 315.503906 218.9375 315.59375 218.9375 Z M 63.457031 213.996094 C 63.53125 213.996094 63.613281 213.992188 63.6875 213.976562 C 64.3125 213.847656 64.714844 213.242188 64.59375 212.609375 C 64.464844 211.984375 63.851562 211.585938 63.226562 211.707031 C 62.601562 211.84375 62.199219 212.449219 62.324219 213.074219 C 62.429688 213.625 62.921875 213.996094 63.457031 213.996094 Z M 316.734375 213.859375 C 317.269531 213.859375 317.761719 213.488281 317.871094 212.9375 C 318 212.304688 317.589844 211.699219 316.964844 211.570312 C 316.332031 211.441406 315.726562 211.847656 315.597656 212.472656 C 315.46875 213.101562 315.878906 213.710938 316.503906 213.839844 C 316.578125 213.855469 316.660156 213.859375 316.734375 213.859375 Z M 62.519531 208.886719 C 62.582031 208.886719 62.640625 208.878906 62.703125 208.863281 C 63.335938 208.769531 63.761719 208.171875 63.65625 207.539062 C 63.558594 206.90625 62.960938 206.480469 62.328125 206.589844 C 61.695312 206.683594 61.269531 207.28125 61.371094 207.914062 C 61.464844 208.476562 61.957031 208.886719 62.519531 208.886719 Z M 317.664062 208.742188 C 318.222656 208.742188 318.71875 208.335938 318.808594 207.765625 C 318.902344 207.132812 318.472656 206.539062 317.847656 206.4375 C 317.21875 206.34375 316.625 206.765625 316.523438 207.398438 C 316.421875 208.027344 316.851562 208.613281 317.476562 208.722656 C 317.542969 208.734375 317.605469 208.742188 317.664062 208.742188 Z M 61.785156 203.734375 C 61.832031 203.734375 61.878906 203.734375 61.929688 203.726562 C 62.558594 203.652344 63.015625 203.074219 62.933594 202.433594 C 62.859375 201.800781 62.28125 201.347656 61.648438 201.429688 C 61.011719 201.503906 60.5625 202.082031 60.636719 202.714844 C 60.710938 203.304688 61.214844 203.734375 61.785156 203.734375 Z M 318.394531 203.582031 C 318.96875 203.582031 319.464844 203.15625 319.535156 202.5625 C 319.609375 201.933594 319.160156 201.355469 318.523438 201.277344 C 317.890625 201.199219 317.3125 201.652344 317.238281 202.292969 C 317.164062 202.925781 317.609375 203.503906 318.25 203.578125 C 318.296875 203.582031 318.34375 203.582031 318.394531 203.582031 Z M 61.261719 198.554688 C 61.296875 198.554688 61.324219 198.554688 61.355469 198.546875 C 61.996094 198.492188 62.464844 197.941406 62.417969 197.304688 C 62.363281 196.664062 61.804688 196.195312 61.167969 196.234375 C 60.527344 196.296875 60.058594 196.847656 60.105469 197.484375 C 60.160156 198.097656 60.671875 198.554688 61.261719 198.554688 Z M 318.902344 198.410156 C 319.5 198.410156 320.003906 197.957031 320.050781 197.34375 C 320.105469 196.703125 319.628906 196.148438 318.992188 196.101562 C 318.351562 196.046875 317.792969 196.519531 317.742188 197.160156 C 317.691406 197.800781 318.167969 198.355469 318.808594 198.402344 C 318.839844 198.410156 318.875 198.410156 318.902344 198.410156 Z M 60.941406 193.359375 C 60.964844 193.359375 60.976562 193.351562 60.996094 193.351562 C 61.636719 193.332031 62.132812 192.789062 62.105469 192.15625 C 62.078125 191.519531 61.539062 191.015625 60.902344 191.050781 C 60.261719 191.070312 59.761719 191.613281 59.792969 192.253906 C 59.820312 192.871094 60.332031 193.359375 60.941406 193.359375 Z M 319.214844 193.21875 C 319.828125 193.21875 320.34375 192.726562 320.363281 192.109375 C 320.382812 191.46875 319.894531 190.925781 319.257812 190.90625 C 318.617188 190.886719 318.082031 191.375 318.058594 192.015625 C 318.03125 192.652344 318.527344 193.191406 319.160156 193.210938 C 319.179688 193.21875 319.203125 193.21875 319.214844 193.21875 Z M 60.839844 188.160156 C 61.480469 188.160156 61.996094 187.636719 61.996094 187.003906 C 61.996094 186.367188 61.472656 185.847656 60.839844 185.847656 C 60.203125 185.847656 59.683594 186.371094 59.683594 187.003906 C 59.683594 187.644531 60.207031 188.160156 60.839844 188.160156 Z M 319.316406 188.015625 C 319.957031 188.015625 320.472656 187.496094 320.472656 186.863281 C 320.472656 186.808594 320.472656 186.765625 320.460938 186.710938 C 320.464844 186.664062 320.472656 186.617188 320.472656 186.578125 C 320.472656 185.9375 319.949219 185.421875 319.316406 185.429688 C 318.679688 185.429688 318.160156 185.945312 318.160156 186.582031 C 318.160156 186.636719 318.167969 186.679688 318.175781 186.726562 C 318.167969 186.773438 318.160156 186.820312 318.160156 186.863281 C 318.160156 187.496094 318.679688 188.015625 319.316406 188.015625 Z M 60.941406 182.953125 C 61.5625 182.953125 62.078125 182.472656 62.097656 181.84375 C 62.117188 181.207031 61.621094 180.667969 60.988281 180.640625 C 60.351562 180.621094 59.808594 181.117188 59.785156 181.75 C 59.765625 182.390625 60.261719 182.933594 60.894531 182.953125 C 60.910156 182.953125 60.921875 182.953125 60.941406 182.953125 Z M 319.203125 182.523438 C 319.222656 182.523438 319.234375 182.523438 319.257812 182.523438 C 319.894531 182.5 320.390625 181.960938 320.355469 181.320312 C 320.335938 180.683594 319.792969 180.179688 319.152344 180.214844 C 318.515625 180.242188 318.019531 180.777344 318.046875 181.417969 C 318.074219 182.042969 318.582031 182.523438 319.203125 182.523438 Z M 61.25 177.761719 C 61.847656 177.761719 62.351562 177.296875 62.398438 176.691406 C 62.445312 176.054688 61.96875 175.496094 61.328125 175.441406 C 60.691406 175.394531 60.140625 175.871094 60.085938 176.507812 C 60.03125 177.148438 60.515625 177.707031 61.152344 177.753906 C 61.179688 177.761719 61.214844 177.761719 61.25 177.761719 Z M 318.875 177.332031 C 318.910156 177.332031 318.9375 177.324219 318.96875 177.324219 C 319.609375 177.269531 320.078125 176.714844 320.03125 176.074219 C 319.976562 175.4375 319.425781 174.964844 318.78125 175.015625 C 318.140625 175.070312 317.671875 175.625 317.71875 176.265625 C 317.78125 176.871094 318.285156 177.332031 318.875 177.332031 Z M 61.757812 172.582031 C 62.335938 172.582031 62.832031 172.152344 62.898438 171.5625 C 62.976562 170.921875 62.527344 170.351562 61.886719 170.277344 C 61.253906 170.203125 60.675781 170.648438 60.601562 171.289062 C 60.527344 171.921875 60.976562 172.5 61.617188 172.574219 C 61.664062 172.582031 61.710938 172.582031 61.757812 172.582031 Z M 318.351562 172.160156 C 318.398438 172.160156 318.445312 172.152344 318.496094 172.144531 C 319.125 172.070312 319.574219 171.492188 319.5 170.855469 C 319.425781 170.214844 318.847656 169.773438 318.210938 169.847656 C 317.578125 169.921875 317.128906 170.5 317.203125 171.140625 C 317.277344 171.722656 317.78125 172.160156 318.351562 172.160156 Z M 62.472656 167.429688 C 63.035156 167.429688 63.527344 167.019531 63.613281 166.457031 C 63.710938 165.824219 63.289062 165.234375 62.65625 165.128906 C 62.023438 165.027344 61.433594 165.464844 61.328125 166.082031 C 61.324219 166.082031 61.324219 166.082031 61.324219 166.082031 C 61.226562 166.722656 61.648438 167.304688 62.28125 167.414062 C 62.351562 167.421875 62.410156 167.429688 62.472656 167.429688 Z M 317.617188 167.007812 C 317.679688 167.007812 317.746094 167 317.808594 166.988281 C 318.441406 166.882812 318.867188 166.285156 318.761719 165.652344 C 318.65625 165.023438 318.058594 164.59375 317.425781 164.703125 C 316.796875 164.804688 316.367188 165.402344 316.476562 166.035156 C 316.570312 166.597656 317.058594 167.007812 317.617188 167.007812 Z M 63.394531 162.304688 C 63.941406 162.304688 64.421875 161.929688 64.53125 161.378906 C 64.660156 160.753906 64.253906 160.140625 63.628906 160.011719 C 63.003906 159.890625 62.390625 160.296875 62.261719 160.921875 C 62.132812 161.546875 62.539062 162.160156 63.171875 162.289062 C 63.246094 162.304688 63.320312 162.304688 63.394531 162.304688 Z M 316.671875 161.886719 C 316.746094 161.886719 316.828125 161.875 316.902344 161.867188 C 317.535156 161.730469 317.929688 161.128906 317.808594 160.496094 C 317.679688 159.871094 317.066406 159.46875 316.441406 159.597656 C 315.816406 159.726562 315.414062 160.339844 315.539062 160.964844 C 315.652344 161.515625 316.136719 161.886719 316.671875 161.886719 Z M 64.53125 157.226562 C 65.054688 157.226562 65.523438 156.871094 65.652344 156.347656 C 65.800781 155.722656 65.429688 155.097656 64.804688 154.949219 C 64.183594 154.800781 63.558594 155.171875 63.410156 155.796875 C 63.261719 156.417969 63.632812 157.042969 64.257812 157.191406 C 64.347656 157.21875 64.441406 157.226562 64.53125 157.226562 Z M 315.523438 156.8125 C 315.621094 156.8125 315.707031 156.796875 315.804688 156.777344 C 316.421875 156.628906 316.800781 155.996094 316.644531 155.375 C 316.496094 154.757812 315.863281 154.378906 315.246094 154.535156 C 314.628906 154.691406 314.253906 155.316406 314.402344 155.933594 C 314.53125 156.457031 315 156.8125 315.523438 156.8125 Z M 65.871094 152.203125 C 66.367188 152.203125 66.828125 151.871094 66.980469 151.367188 C 67.15625 150.753906 66.800781 150.109375 66.183594 149.933594 C 65.570312 149.753906 64.925781 150.109375 64.75 150.726562 C 64.574219 151.339844 64.925781 151.984375 65.542969 152.160156 C 65.660156 152.1875 65.761719 152.203125 65.871094 152.203125 Z M 314.171875 151.789062 C 314.28125 151.789062 314.382812 151.773438 314.496094 151.738281 C 315.109375 151.5625 315.464844 150.917969 315.285156 150.304688 C 315.109375 149.695312 314.464844 149.339844 313.851562 149.515625 C 313.242188 149.695312 312.886719 150.339844 313.0625 150.953125 C 313.207031 151.460938 313.667969 151.789062 314.171875 151.789062 Z M 67.414062 147.234375 C 67.894531 147.234375 68.351562 146.925781 68.515625 146.4375 C 68.710938 145.832031 68.386719 145.179688 67.78125 144.976562 C 67.175781 144.773438 66.523438 145.105469 66.320312 145.710938 C 66.117188 146.316406 66.449219 146.96875 67.054688 147.171875 C 67.167969 147.214844 67.292969 147.234375 67.414062 147.234375 Z M 312.613281 146.824219 C 312.738281 146.824219 312.859375 146.804688 312.980469 146.765625 C 313.582031 146.558594 313.914062 145.90625 313.710938 145.304688 C 313.5 144.699219 312.847656 144.371094 312.242188 144.574219 C 311.644531 144.78125 311.308594 145.4375 311.515625 146.035156 C 311.675781 146.519531 312.125 146.824219 312.613281 146.824219 Z M 69.152344 142.320312 C 69.617188 142.320312 70.058594 142.027344 70.234375 141.5625 C 70.457031 140.964844 70.160156 140.300781 69.554688 140.074219 C 68.957031 139.84375 68.296875 140.144531 68.066406 140.75 C 67.847656 141.347656 68.148438 142.011719 68.746094 142.238281 C 68.882812 142.285156 69.019531 142.320312 69.152344 142.320312 Z M 310.855469 141.925781 C 310.992188 141.925781 311.132812 141.902344 311.261719 141.851562 C 311.859375 141.625 312.160156 140.953125 311.933594 140.359375 C 311.703125 139.761719 311.039062 139.464844 310.445312 139.695312 C 309.847656 139.917969 309.550781 140.59375 309.773438 141.183594 C 309.957031 141.644531 310.386719 141.925781 310.855469 141.925781 Z M 71.097656 137.480469 C 71.546875 137.480469 71.96875 137.214844 72.164062 136.773438 C 72.417969 136.179688 72.144531 135.507812 71.554688 135.25 C 70.960938 135 70.289062 135.277344 70.039062 135.863281 C 69.785156 136.453125 70.058594 137.125 70.648438 137.382812 C 70.792969 137.4375 70.949219 137.480469 71.097656 137.480469 Z M 308.910156 137.117188 C 309.058594 137.117188 309.214844 137.089844 309.367188 137.023438 C 309.949219 136.773438 310.222656 136.09375 309.972656 135.5 C 309.71875 134.910156 309.039062 134.636719 308.449219 134.894531 C 307.863281 135.148438 307.59375 135.828125 307.84375 136.417969 C 308.035156 136.855469 308.453125 137.117188 308.910156 137.117188 Z M 73.230469 132.714844 C 73.667969 132.714844 74.082031 132.46875 74.277344 132.054688 C 74.558594 131.476562 74.304688 130.785156 73.726562 130.511719 C 73.152344 130.238281 72.464844 130.484375 72.191406 131.0625 C 71.914062 131.640625 72.164062 132.328125 72.742188 132.605469 C 72.898438 132.679688 73.070312 132.714844 73.230469 132.714844 Z M 306.769531 132.386719 C 306.933594 132.386719 307.101562 132.355469 307.265625 132.273438 C 307.835938 132 308.089844 131.308594 307.808594 130.734375 C 307.53125 130.160156 306.84375 129.914062 306.265625 130.1875 C 305.695312 130.464844 305.445312 131.15625 305.722656 131.730469 C 305.917969 132.144531 306.335938 132.386719 306.769531 132.386719 Z M 75.5625 128.050781 C 75.976562 128.050781 76.386719 127.828125 76.589844 127.433594 C 76.890625 126.867188 76.671875 126.175781 76.109375 125.871094 C 75.542969 125.578125 74.84375 125.792969 74.542969 126.351562 C 74.25 126.917969 74.460938 127.617188 75.027344 127.914062 C 75.195312 128.011719 75.386719 128.050781 75.5625 128.050781 Z M 304.429688 127.746094 C 304.613281 127.746094 304.796875 127.703125 304.976562 127.609375 C 305.53125 127.316406 305.757812 126.617188 305.457031 126.046875 C 305.164062 125.480469 304.464844 125.265625 303.894531 125.5625 C 303.328125 125.855469 303.113281 126.554688 303.410156 127.125 C 303.617188 127.519531 304.015625 127.746094 304.429688 127.746094 Z M 78.078125 123.488281 C 78.480469 123.488281 78.867188 123.28125 79.078125 122.914062 C 79.398438 122.355469 79.214844 121.65625 78.65625 121.335938 C 78.097656 121.007812 77.398438 121.199219 77.078125 121.757812 C 76.761719 122.3125 76.945312 123.015625 77.5 123.332031 C 77.675781 123.4375 77.882812 123.488281 78.078125 123.488281 Z M 301.914062 123.203125 C 302.113281 123.203125 302.308594 123.148438 302.492188 123.046875 C 303.050781 122.722656 303.234375 122.023438 302.914062 121.464844 C 302.589844 120.914062 301.890625 120.722656 301.332031 121.050781 C 300.78125 121.371094 300.589844 122.078125 300.917969 122.625 C 301.128906 122.992188 301.515625 123.203125 301.914062 123.203125 Z M 80.769531 119.03125 C 81.152344 119.03125 81.523438 118.839844 81.75 118.492188 C 82.089844 117.949219 81.925781 117.238281 81.390625 116.898438 C 80.851562 116.558594 80.132812 116.71875 79.792969 117.257812 C 79.453125 117.792969 79.613281 118.515625 80.152344 118.855469 C 80.34375 118.96875 80.558594 119.03125 80.769531 119.03125 Z M 299.21875 118.765625 C 299.429688 118.765625 299.644531 118.703125 299.835938 118.589844 C 300.371094 118.242188 300.535156 117.527344 300.195312 116.992188 C 299.847656 116.449219 299.136719 116.292969 298.597656 116.632812 C 298.054688 116.972656 297.898438 117.691406 298.238281 118.230469 C 298.457031 118.574219 298.835938 118.765625 299.21875 118.765625 Z M 83.644531 114.679688 C 84.011719 114.679688 84.375 114.503906 84.597656 114.183594 C 84.957031 113.660156 84.828125 112.933594 84.304688 112.582031 C 83.78125 112.214844 83.054688 112.347656 82.695312 112.871094 C 82.332031 113.394531 82.464844 114.117188 82.988281 114.476562 C 83.191406 114.621094 83.414062 114.679688 83.644531 114.679688 Z M 296.34375 114.4375 C 296.566406 114.4375 296.796875 114.375 296.996094 114.226562 C 297.519531 113.863281 297.652344 113.144531 297.285156 112.621094 C 296.917969 112.097656 296.199219 111.96875 295.675781 112.328125 C 295.152344 112.695312 295.023438 113.410156 295.382812 113.933594 C 295.613281 114.257812 295.976562 114.4375 296.34375 114.4375 Z M 86.691406 110.453125 C 87.042969 110.453125 87.390625 110.296875 87.617188 109.992188 C 88.003906 109.480469 87.902344 108.761719 87.382812 108.371094 C 86.875 107.992188 86.152344 108.09375 85.765625 108.605469 C 85.386719 109.121094 85.488281 109.839844 85.996094 110.222656 C 86.203125 110.378906 86.445312 110.453125 86.691406 110.453125 Z M 293.289062 110.222656 C 293.535156 110.222656 293.78125 110.148438 293.992188 109.984375 C 294.5 109.601562 294.59375 108.882812 294.214844 108.367188 C 293.828125 107.855469 293.105469 107.761719 292.597656 108.140625 C 292.082031 108.527344 291.984375 109.25 292.371094 109.757812 C 292.597656 110.058594 292.945312 110.222656 293.289062 110.222656 Z M 89.898438 106.355469 C 90.234375 106.355469 90.574219 106.210938 90.804688 105.933594 C 91.210938 105.4375 91.128906 104.710938 90.632812 104.308594 C 90.144531 103.898438 89.410156 103.976562 89.007812 104.472656 C 88.601562 104.96875 88.675781 105.695312 89.171875 106.097656 C 89.382812 106.273438 89.640625 106.355469 89.898438 106.355469 Z M 290.074219 106.136719 C 290.332031 106.136719 290.597656 106.046875 290.808594 105.878906 C 291.296875 105.46875 291.375 104.742188 290.972656 104.246094 C 290.570312 103.757812 289.835938 103.683594 289.339844 104.082031 C 288.851562 104.492188 288.777344 105.21875 289.179688 105.714844 C 289.410156 105.992188 289.742188 106.136719 290.074219 106.136719 Z M 93.277344 102.390625 C 93.597656 102.390625 93.917969 102.253906 94.140625 101.996094 C 94.570312 101.515625 94.523438 100.785156 94.046875 100.367188 C 93.570312 99.945312 92.835938 99.984375 92.414062 100.460938 C 91.992188 100.941406 92.039062 101.671875 92.507812 102.09375 C 92.726562 102.296875 93.003906 102.390625 93.277344 102.390625 Z M 286.695312 102.179688 C 286.96875 102.179688 287.246094 102.085938 287.464844 101.886719 C 287.941406 101.464844 287.988281 100.738281 287.558594 100.257812 C 287.566406 100.257812 287.566406 100.257812 287.566406 100.257812 C 287.136719 99.78125 286.410156 99.734375 285.929688 100.160156 C 285.445312 100.589844 285.40625 101.316406 285.832031 101.800781 L 285.839844 101.800781 C 286.066406 102.042969 286.378906 102.179688 286.695312 102.179688 Z M 96.804688 98.5625 C 97.105469 98.5625 97.410156 98.441406 97.636719 98.203125 C 98.078125 97.742188 98.0625 97.015625 97.601562 96.566406 C 97.136719 96.125 96.410156 96.144531 95.960938 96.601562 C 95.519531 97.0625 95.535156 97.796875 95.996094 98.238281 C 96.222656 98.457031 96.511719 98.5625 96.804688 98.5625 Z M 283.160156 98.359375 C 283.453125 98.359375 283.738281 98.25 283.964844 98.035156 C 284.417969 97.585938 284.433594 96.851562 283.992188 96.394531 C 283.542969 95.933594 282.816406 95.921875 282.351562 96.367188 C 281.890625 96.808594 281.878906 97.542969 282.324219 98 C 282.558594 98.246094 282.855469 98.359375 283.160156 98.359375 Z M 100.484375 94.878906 C 100.769531 94.878906 101.054688 94.769531 101.277344 94.554688 C 101.742188 94.105469 101.753906 93.378906 101.3125 92.914062 C 100.863281 92.460938 100.136719 92.441406 99.675781 92.886719 C 99.210938 93.332031 99.199219 94.0625 99.640625 94.519531 C 99.871094 94.765625 100.175781 94.878906 100.484375 94.878906 Z M 279.476562 94.683594 C 279.785156 94.683594 280.089844 94.566406 280.3125 94.328125 C 280.753906 93.867188 280.742188 93.132812 280.28125 92.691406 C 279.816406 92.242188 279.089844 92.261719 278.640625 92.726562 C 278.199219 93.1875 278.21875 93.914062 278.675781 94.363281 C 278.898438 94.582031 279.191406 94.683594 279.476562 94.683594 Z M 104.296875 91.351562 C 104.566406 91.351562 104.847656 91.257812 105.0625 91.058594 C 105.546875 90.636719 105.585938 89.910156 105.160156 89.429688 C 104.730469 88.953125 104.003906 88.90625 103.519531 89.332031 C 103.046875 89.761719 102.996094 90.488281 103.425781 90.972656 C 103.65625 91.214844 103.976562 91.351562 104.296875 91.351562 Z M 275.644531 91.160156 C 275.96875 91.160156 276.28125 91.027344 276.515625 90.769531 C 276.9375 90.285156 276.894531 89.558594 276.417969 89.136719 C 275.9375 88.714844 275.210938 88.753906 274.789062 89.230469 C 274.359375 89.714844 274.40625 90.441406 274.882812 90.863281 C 275.105469 91.066406 275.371094 91.160156 275.644531 91.160156 Z M 108.257812 87.972656 C 108.511719 87.972656 108.777344 87.886719 108.988281 87.714844 C 109.484375 87.308594 109.550781 86.582031 109.148438 86.085938 C 108.742188 85.59375 108.015625 85.527344 107.523438 85.929688 C 107.027344 86.335938 106.960938 87.054688 107.363281 87.550781 C 107.585938 87.832031 107.917969 87.972656 108.257812 87.972656 Z M 271.679688 87.789062 C 272.015625 87.789062 272.347656 87.648438 272.578125 87.363281 C 272.988281 86.867188 272.910156 86.136719 272.410156 85.738281 C 271.917969 85.328125 271.183594 85.410156 270.785156 85.90625 C 270.382812 86.398438 270.457031 87.125 270.953125 87.53125 C 271.164062 87.707031 271.421875 87.789062 271.679688 87.789062 Z M 112.34375 84.757812 C 112.589844 84.757812 112.828125 84.683594 113.039062 84.527344 C 113.546875 84.148438 113.648438 83.417969 113.261719 82.910156 C 112.882812 82.398438 112.152344 82.296875 111.644531 82.6875 C 111.132812 83.066406 111.03125 83.792969 111.417969 84.304688 C 111.644531 84.601562 111.992188 84.757812 112.34375 84.757812 Z M 267.582031 84.582031 C 267.9375 84.582031 268.28125 84.417969 268.507812 84.121094 C 268.886719 83.609375 268.785156 82.882812 268.277344 82.503906 C 267.765625 82.121094 267.039062 82.222656 266.65625 82.734375 C 266.277344 83.242188 266.371094 83.96875 266.890625 84.351562 C 267.09375 84.507812 267.335938 84.582031 267.582031 84.582031 Z M 116.550781 81.714844 C 116.78125 81.714844 117.007812 81.644531 117.210938 81.503906 C 117.734375 81.136719 117.871094 80.421875 117.503906 79.890625 C 117.136719 79.367188 116.414062 79.234375 115.890625 79.597656 C 115.367188 79.964844 115.238281 80.6875 115.601562 81.210938 C 115.832031 81.542969 116.191406 81.714844 116.550781 81.714844 Z M 263.355469 81.542969 C 263.722656 81.542969 264.082031 81.367188 264.300781 81.039062 C 264.667969 80.515625 264.53125 79.796875 264.007812 79.429688 C 263.484375 79.070312 262.761719 79.207031 262.394531 79.722656 C 262.027344 80.246094 262.164062 80.972656 262.6875 81.332031 C 262.898438 81.476562 263.125 81.542969 263.355469 81.542969 Z M 120.886719 78.84375 C 121.097656 78.84375 121.316406 78.785156 121.515625 78.660156 L 121.515625 78.667969 C 122.050781 78.320312 122.207031 77.609375 121.867188 77.070312 C 121.527344 76.527344 120.808594 76.371094 120.269531 76.710938 C 119.734375 77.050781 119.570312 77.769531 119.910156 78.308594 C 120.132812 78.648438 120.5 78.84375 120.886719 78.84375 Z M 259.003906 78.675781 C 259.386719 78.675781 259.757812 78.484375 259.984375 78.132812 C 260.324219 77.59375 260.160156 76.878906 259.621094 76.539062 C 259.078125 76.199219 258.367188 76.355469 258.027344 76.902344 C 257.6875 77.4375 257.847656 78.160156 258.386719 78.5 C 258.574219 78.613281 258.792969 78.675781 259.003906 78.675781 Z M 125.335938 76.140625 C 125.53125 76.140625 125.726562 76.09375 125.910156 75.984375 C 126.460938 75.664062 126.652344 74.957031 126.328125 74.40625 C 126.007812 73.847656 125.300781 73.664062 124.75 73.984375 C 124.199219 74.3125 124.007812 75.011719 124.328125 75.570312 C 124.546875 75.9375 124.933594 76.140625 125.335938 76.140625 Z M 254.539062 75.976562 C 254.945312 75.976562 255.332031 75.765625 255.542969 75.398438 C 255.863281 74.839844 255.671875 74.140625 255.121094 73.816406 C 255.121094 73.820312 255.121094 73.820312 255.121094 73.820312 C 254.566406 73.496094 253.859375 73.6875 253.539062 74.242188 C 253.21875 74.800781 253.410156 75.5 253.96875 75.820312 C 254.152344 75.929688 254.347656 75.976562 254.539062 75.976562 Z M 129.875 73.625 C 130.050781 73.625 130.242188 73.582031 130.410156 73.488281 C 130.976562 73.195312 131.195312 72.496094 130.894531 71.925781 C 130.601562 71.359375 129.902344 71.144531 129.332031 71.441406 C 128.765625 71.742188 128.550781 72.441406 128.847656 73.011719 C 129.058594 73.402344 129.460938 73.625 129.875 73.625 Z M 249.976562 73.460938 C 250.390625 73.460938 250.792969 73.238281 251.003906 72.84375 C 251.296875 72.277344 251.078125 71.585938 250.519531 71.28125 C 249.957031 70.988281 249.257812 71.203125 248.957031 71.769531 C 248.664062 72.328125 248.875 73.027344 249.445312 73.332031 C 249.617188 73.421875 249.792969 73.460938 249.976562 73.460938 Z M 134.515625 71.300781 C 134.6875 71.300781 134.851562 71.257812 135.011719 71.183594 C 135.589844 70.90625 135.835938 70.21875 135.558594 69.640625 C 135.285156 69.070312 134.597656 68.820312 134.019531 69.097656 C 133.441406 69.371094 133.199219 70.0625 133.476562 70.632812 C 133.675781 71.054688 134.082031 71.300781 134.515625 71.300781 Z M 245.3125 71.136719 C 245.75 71.136719 246.164062 70.890625 246.359375 70.476562 C 246.632812 69.898438 246.382812 69.214844 245.8125 68.941406 C 245.234375 68.664062 244.539062 68.914062 244.265625 69.492188 C 243.996094 70.0625 244.246094 70.757812 244.816406 71.027344 C 244.972656 71.101562 245.144531 71.136719 245.3125 71.136719 Z M 139.25 69.160156 C 139.398438 69.160156 139.554688 69.132812 139.703125 69.0625 C 140.289062 68.8125 140.558594 68.132812 140.308594 67.546875 C 140.058594 66.957031 139.378906 66.683594 138.785156 66.9375 C 138.203125 67.1875 137.929688 67.867188 138.179688 68.457031 C 138.371094 68.894531 138.792969 69.160156 139.25 69.160156 Z M 240.554688 69.007812 C 241.003906 69.007812 241.433594 68.746094 241.625 68.300781 C 241.875 67.710938 241.601562 67.039062 241.011719 66.785156 C 240.425781 66.535156 239.746094 66.808594 239.496094 67.398438 C 239.246094 67.984375 239.515625 68.664062 240.109375 68.914062 C 240.25 68.976562 240.40625 69.007812 240.554688 69.007812 Z M 144.054688 67.214844 C 144.191406 67.214844 144.332031 67.195312 144.460938 67.140625 C 145.058594 66.910156 145.359375 66.242188 145.136719 65.652344 C 144.902344 65.054688 144.238281 64.753906 143.644531 64.976562 C 143.046875 65.203125 142.75 65.875 142.972656 66.46875 C 143.148438 66.929688 143.585938 67.214844 144.054688 67.214844 Z M 235.714844 67.066406 C 236.183594 67.066406 236.628906 66.78125 236.796875 66.316406 C 237.023438 65.71875 236.722656 65.054688 236.125 64.828125 C 235.527344 64.605469 234.859375 64.902344 234.636719 65.507812 C 234.410156 66.105469 234.710938 66.765625 235.308594 66.996094 C 235.445312 67.039062 235.582031 67.066406 235.714844 67.066406 Z M 148.953125 65.453125 C 149.078125 65.453125 149.207031 65.433594 149.320312 65.394531 C 149.925781 65.1875 150.253906 64.535156 150.050781 63.933594 C 149.84375 63.328125 149.1875 63 148.582031 63.203125 C 147.984375 63.410156 147.648438 64.0625 147.859375 64.664062 C 148.023438 65.15625 148.472656 65.453125 148.953125 65.453125 Z M 230.800781 65.324219 C 231.285156 65.324219 231.734375 65.019531 231.894531 64.53125 C 232.101562 63.925781 231.765625 63.273438 231.164062 63.070312 C 230.5625 62.863281 229.898438 63.199219 229.707031 63.800781 C 229.503906 64.40625 229.835938 65.058594 230.433594 65.265625 C 230.550781 65.304688 230.679688 65.324219 230.800781 65.324219 Z M 153.921875 63.90625 C 154.027344 63.90625 154.132812 63.882812 154.25 63.855469 C 154.863281 63.679688 155.214844 63.035156 155.039062 62.421875 C 154.863281 61.8125 154.214844 61.457031 153.605469 61.632812 C 152.992188 61.8125 152.640625 62.449219 152.816406 63.0625 C 152.957031 63.578125 153.421875 63.90625 153.921875 63.90625 Z M 225.828125 63.78125 C 226.328125 63.78125 226.792969 63.457031 226.933594 62.945312 C 227.109375 62.335938 226.757812 61.6875 226.140625 61.519531 C 225.527344 61.34375 224.882812 61.695312 224.710938 62.3125 C 224.535156 62.925781 224.886719 63.570312 225.507812 63.742188 C 225.609375 63.773438 225.71875 63.78125 225.828125 63.78125 Z M 158.945312 62.550781 C 159.042969 62.550781 159.128906 62.539062 159.226562 62.519531 C 159.84375 62.363281 160.226562 61.734375 160.070312 61.117188 C 159.917969 60.5 159.285156 60.117188 158.667969 60.273438 C 158.050781 60.425781 157.667969 61.054688 157.824219 61.675781 C 157.953125 62.199219 158.421875 62.550781 158.945312 62.550781 Z M 220.796875 62.449219 C 221.320312 62.449219 221.789062 62.097656 221.917969 61.574219 C 222.066406 60.949219 221.695312 60.324219 221.066406 60.171875 C 220.449219 60.023438 219.824219 60.402344 219.675781 61.023438 C 219.519531 61.640625 219.898438 62.265625 220.515625 62.414062 C 220.613281 62.4375 220.699219 62.449219 220.796875 62.449219 Z M 164.019531 61.402344 C 164.097656 61.402344 164.175781 61.394531 164.253906 61.382812 C 164.882812 61.253906 165.28125 60.648438 165.160156 60.023438 C 165.03125 59.390625 164.417969 58.988281 163.792969 59.117188 C 163.167969 59.25 162.765625 59.851562 162.890625 60.484375 C 163 61.027344 163.488281 61.402344 164.019531 61.402344 Z M 215.71875 61.320312 C 216.253906 61.320312 216.738281 60.941406 216.855469 60.390625 C 216.976562 59.765625 216.566406 59.160156 215.941406 59.03125 C 215.316406 58.902344 214.707031 59.308594 214.578125 59.933594 C 214.449219 60.566406 214.863281 61.171875 215.488281 61.300781 C 215.5625 61.308594 215.644531 61.320312 215.71875 61.320312 Z M 169.144531 60.464844 C 169.199219 60.464844 169.265625 60.457031 169.328125 60.445312 C 169.957031 60.347656 170.386719 59.75 170.277344 59.117188 C 170.175781 58.488281 169.585938 58.058594 168.953125 58.160156 C 168.953125 58.167969 168.953125 58.167969 168.953125 58.167969 C 168.320312 58.261719 167.890625 58.859375 167.996094 59.492188 C 168.089844 60.0625 168.578125 60.464844 169.144531 60.464844 Z M 210.59375 60.398438 C 211.15625 60.398438 211.648438 59.988281 211.734375 59.417969 C 211.835938 58.792969 211.402344 58.203125 210.777344 58.097656 C 210.144531 57.996094 209.554688 58.433594 209.453125 59.050781 C 209.355469 59.691406 209.777344 60.273438 210.410156 60.382812 C 210.472656 60.390625 210.539062 60.398438 210.59375 60.398438 Z M 174.296875 59.730469 C 174.34375 59.730469 174.390625 59.730469 174.429688 59.722656 C 175.070312 59.640625 175.519531 59.070312 175.4375 58.433594 C 175.363281 57.792969 174.785156 57.34375 174.152344 57.425781 C 173.515625 57.5 173.066406 58.078125 173.140625 58.710938 C 173.214844 59.300781 173.71875 59.730469 174.296875 59.730469 Z M 205.441406 59.675781 C 206.019531 59.675781 206.515625 59.242188 206.582031 58.65625 C 206.65625 58.019531 206.210938 57.445312 205.570312 57.371094 C 204.929688 57.296875 204.359375 57.746094 204.285156 58.386719 C 204.210938 59.023438 204.660156 59.59375 205.296875 59.667969 C 205.351562 59.675781 205.394531 59.675781 205.441406 59.675781 Z M 179.46875 59.207031 C 179.496094 59.207031 179.53125 59.207031 179.5625 59.207031 C 180.203125 59.152344 180.671875 58.597656 180.625 57.957031 C 180.570312 57.316406 180.019531 56.847656 179.378906 56.894531 C 178.742188 56.949219 178.273438 57.5 178.320312 58.148438 C 178.359375 58.746094 178.871094 59.207031 179.46875 59.207031 Z M 200.261719 59.171875 C 200.859375 59.171875 201.363281 58.71875 201.410156 58.105469 C 201.464844 57.46875 200.988281 56.917969 200.351562 56.863281 C 199.710938 56.808594 199.152344 57.289062 199.105469 57.929688 C 199.050781 58.570312 199.527344 59.117188 200.167969 59.171875 C 200.207031 59.171875 200.234375 59.171875 200.261719 59.171875 Z M 184.660156 58.886719 C 184.683594 58.886719 184.695312 58.886719 184.710938 58.886719 C 185.347656 58.867188 185.851562 58.324219 185.816406 57.683594 C 185.789062 57.046875 185.253906 56.550781 184.613281 56.582031 C 184.613281 56.578125 184.613281 56.578125 184.613281 56.578125 C 183.976562 56.605469 183.480469 57.140625 183.507812 57.785156 C 183.53125 58.398438 184.042969 58.886719 184.660156 58.886719 Z M 195.066406 58.867188 C 195.6875 58.867188 196.195312 58.386719 196.222656 57.757812 C 196.246094 57.121094 195.746094 56.582031 195.109375 56.5625 C 194.46875 56.535156 193.933594 57.039062 193.914062 57.671875 C 193.890625 58.308594 194.386719 58.847656 195.019531 58.867188 C 195.042969 58.867188 195.054688 58.867188 195.066406 58.867188 Z M 189.867188 58.777344 C 190.507812 58.777344 191.023438 58.257812 191.023438 57.625 C 191.023438 56.984375 190.5 56.46875 189.867188 56.46875 C 189.230469 56.46875 188.710938 56.992188 188.710938 57.625 C 188.707031 58.261719 189.230469 58.777344 189.867188 58.777344 Z M 189.863281 56.460938 C 189.867188 56.460938 189.867188 56.460938 189.863281 56.460938 C 189.867188 56.460938 189.867188 56.460938 189.863281 56.460938 Z M 191.003906 288.910156 L 191.003906 302.214844 L 191.015625 302.214844 Z M 195.632812 295.578125 L 196.714844 302.070312 L 195.632812 295.511719 L 195.632812 288.863281 L 194.53125 288.953125 L 195.632812 295.578125 L 195.632812 302.160156 Z M 186.394531 295.347656 L 185.375 301.996094 L 186.394531 302.070312 Z M 200.242188 295.339844 L 201.320312 301.832031 L 200.242188 295.273438 L 200.242188 288.625 L 199.140625 288.714844 L 200.242188 295.339844 L 200.242188 301.921875 Z M 181.792969 295.097656 L 182.730469 288.511719 L 181.78125 288.441406 L 181.78125 295.171875 L 180.847656 301.675781 L 181.78125 295.171875 L 181.78125 301.738281 Z M 205.78125 301.425781 L 204.828125 294.761719 L 204.828125 288.195312 L 204.828125 294.761719 L 203.898438 288.257812 L 204.828125 294.84375 L 204.828125 301.492188 Z M 177.347656 293.53125 L 178.195312 288.007812 L 177.347656 293.53125 L 178.136719 287.992188 L 177.183594 294.574219 L 176.171875 301.144531 L 176.253906 301.160156 Z M 209.484375 294.703125 L 210.5 300.785156 L 209.417969 294.246094 L 208.472656 287.648438 L 208.308594 287.671875 L 209.480469 294.695312 L 210.355469 300.8125 Z M 172.652344 293.777344 L 174.453125 287.46875 L 172.652344 293.777344 L 173.648438 287.292969 L 172.628906 293.867188 L 170.800781 300.261719 L 171.632812 300.445312 Z M 213.972656 293.480469 L 216.050781 299.726562 L 213.957031 293.417969 L 213.019531 286.835938 L 211.84375 287.117188 L 213.972656 293.480469 L 214.902344 299.996094 Z M 168.125 292.878906 L 169.925781 286.574219 L 168.125 292.878906 L 169.121094 286.394531 L 168.101562 292.96875 L 166.273438 299.367188 L 167.105469 299.546875 Z M 220.300781 298.816406 L 218.445312 292.324219 L 219.550781 298.984375 Z M 163.617188 291.882812 L 165.574219 285.527344 L 164.617188 285.308594 L 163.597656 291.957031 L 161.664062 298.238281 L 163.597656 291.957031 L 162.597656 298.453125 Z M 223.011719 291.488281 L 225.03125 297.535156 L 222.9375 291.230469 L 221.109375 284.832031 L 220.824219 284.921875 L 223.011719 291.488281 L 224.765625 297.617188 Z M 161.128906 284.246094 L 157.21875 296.957031 L 157.234375 296.957031 Z M 229.449219 296.164062 L 227.265625 289.609375 L 229.164062 296.253906 Z M 154.8125 289.058594 L 157.566406 283.097656 L 154.8125 289.058594 L 156.746094 282.785156 L 154.78125 289.136719 L 151.992188 295.171875 L 152.835938 295.492188 Z M 186.386719 295.421875 L 186.402344 288.773438 Z M 231.738281 288.429688 L 234.300781 294.417969 L 231.691406 288.300781 L 229.59375 281.992188 L 229.0625 282.1875 L 231.738281 288.429688 L 233.800781 294.605469 Z M 150.457031 287.496094 L 153.242188 281.460938 L 152.550781 281.183594 L 150.417969 287.59375 L 147.671875 293.53125 L 150.410156 287.59375 L 148.34375 293.796875 Z M 238.9375 292.511719 L 235.933594 286.511719 L 237.777344 292.96875 Z M 216.648438 286.023438 L 218.464844 292.417969 Z M 146.207031 285.667969 L 149.1875 279.722656 L 148.160156 279.304688 L 146.179688 285.730469 L 143.238281 291.617188 L 146.179688 285.730469 L 144.246094 292.015625 Z M 243.125 290.609375 L 237.171875 278.722656 L 243.117188 290.617188 Z M 225.242188 283.546875 L 227.335938 289.863281 Z M 142.035156 283.671875 L 145.011719 277.714844 L 144.816406 277.621094 L 141.878906 283.988281 L 139.066406 289.609375 L 141.871094 283.996094 L 139.242188 289.699219 Z M 244.308594 282.65625 L 247.945312 288.117188 L 244.265625 282.574219 L 241.296875 276.628906 L 240.570312 277.050781 L 244.308594 282.65625 L 247.238281 288.523438 Z M 137.996094 281.40625 L 141.632812 275.949219 L 137.996094 281.40625 L 140.925781 275.539062 L 137.941406 281.480469 L 134.253906 287.015625 L 134.980469 287.4375 Z M 232.992188 280.617188 L 235.953125 286.574219 Z M 248.332031 280.40625 L 251.96875 285.867188 L 248.292969 280.324219 L 245.320312 274.378906 L 244.59375 274.800781 L 248.332031 280.40625 L 251.261719 286.273438 Z M 133.964844 279.148438 L 137.65625 273.617188 L 137.140625 273.304688 L 133.890625 279.257812 L 130.277344 284.683594 L 133.890625 279.257812 L 130.773438 284.980469 Z M 255.90625 283.433594 L 252.085938 277.703125 L 248.789062 272.203125 L 252.085938 277.703125 L 248.53125 272.367188 L 252.207031 277.90625 L 255.625 283.609375 Z M 130.078125 276.640625 L 133.988281 271.265625 L 133.042969 270.6875 L 130.039062 276.695312 L 126.171875 282.019531 L 130.039062 276.695312 L 127.09375 282.582031 Z M 256.117188 275.433594 L 260.1875 280.515625 L 256.039062 275.316406 L 252.351562 269.78125 L 251.875 270.128906 L 256.117188 275.433594 L 259.730469 280.847656 Z M 130.207031 268.59375 L 122.382812 279.347656 L 122.390625 279.355469 Z M 263.90625 277.777344 L 259.671875 272.480469 L 256.054688 267.058594 L 259.671875 272.480469 L 255.597656 267.390625 L 259.746094 272.589844 L 263.4375 278.125 Z M 122.683594 271.101562 L 127.332031 266.453125 L 122.683594 271.101562 L 126.550781 265.785156 L 122.628906 271.15625 L 117.925781 275.859375 L 118.726562 276.546875 Z M 263.714844 270.144531 L 267.601562 274.804688 L 263.363281 269.703125 L 259.203125 264.496094 L 259.085938 264.582031 L 263.707031 270.121094 L 267.507812 274.875 Z M 119.210938 268.050781 L 123.558594 263.265625 L 119.210938 268.050781 L 123.253906 263 L 119.09375 268.1875 L 114.621094 273.105469 L 114.949219 273.386719 Z M 271.53125 271.359375 L 266.753906 266.582031 L 270.972656 271.855469 Z M 115.683594 265.085938 L 120.386719 260.382812 L 119.828125 259.886719 L 115.605469 265.160156 L 110.976562 269.789062 L 115.605469 265.160156 L 111.515625 270.273438 Z M 274.882812 268.179688 L 270.105469 263.398438 L 266.019531 258.289062 L 270.105469 263.398438 L 265.476562 258.769531 L 270.171875 263.480469 L 274.324219 268.675781 Z M 266.820312 266.664062 L 262.125 261.953125 Z M 112.398438 261.835938 L 117.339844 257.382812 L 117.089844 257.121094 L 112.234375 261.972656 L 107.457031 266.277344 L 112.234375 261.972656 L 107.6875 266.519531 Z M 273.46875 260.238281 L 278.582031 264.324219 L 273.394531 260.164062 L 268.691406 255.460938 L 268.195312 256.019531 L 273.46875 260.238281 L 278.097656 264.867188 Z M 114.191406 254 L 104.308594 262.898438 L 104.316406 262.902344 Z M 281.667969 260.871094 L 276.023438 256.359375 L 271.363281 252.46875 L 276.023438 256.359375 L 271.285156 252.566406 L 276.472656 256.726562 L 281.585938 260.980469 Z M 106.316406 254.898438 L 100.714844 258.628906 L 101.3125 259.398438 Z M 284.597656 257.296875 L 278.953125 252.78125 L 284.507812 257.410156 Z M 103.683594 251.089844 L 108.714844 247.316406 L 103.683594 251.089844 L 108.59375 247.160156 L 103.390625 251.308594 L 98.070312 255.296875 L 98.207031 255.46875 Z M 111.195312 250.5 L 106.246094 254.9375 Z M 287.714844 253.144531 L 282.066406 249.378906 L 287.363281 253.613281 Z M 279.394531 253.15625 L 274.210938 248.996094 Z M 100.679688 247.589844 L 106.234375 243.890625 L 106.144531 243.757812 L 100.300781 247.847656 L 95.167969 251.265625 L 100.277344 247.855469 L 95.242188 251.382812 Z M 276.648438 245.769531 L 282.175781 249.464844 Z M 285.011719 245.78125 L 290.511719 249.078125 L 284.820312 245.652344 L 279.28125 241.960938 L 279.105469 242.238281 L 285.011719 245.78125 L 290.347656 249.335938 Z M 98.152344 243.730469 L 103.894531 240.378906 L 103.335938 239.5625 L 98.082031 243.761719 L 92.40625 247.074219 L 98.082031 243.761719 L 92.953125 247.867188 Z M 287.355469 241.792969 L 293.214844 244.722656 L 287.273438 241.738281 L 281.742188 238.046875 L 281.320312 238.773438 L 287.355469 241.792969 L 292.808594 245.429688 Z M 95.929688 239.691406 L 89.816406 242.742188 L 90.027344 243.128906 Z M 295.535156 240.703125 L 289.503906 237.6875 L 295.113281 241.425781 Z M 101.515625 236.429688 L 95.765625 239.765625 Z M 93.554688 235.734375 L 99.503906 232.757812 L 99.292969 232.371094 L 93.398438 235.808594 L 87.609375 238.707031 L 93.398438 235.808594 L 87.8125 239.074219 Z M 289.578125 237.742188 L 283.636719 234.757812 Z M 297.660156 236.597656 L 285.757812 230.664062 L 297.652344 236.613281 Z M 91.667969 231.535156 L 97.65625 229.039062 L 91.667969 231.535156 L 97.472656 228.632812 L 91.515625 231.59375 L 85.378906 234.152344 L 85.578125 234.578125 Z M 293.730469 229.460938 L 300.066406 231.269531 L 293.675781 229.433594 L 287.730469 226.464844 L 287.28125 227.617188 L 293.730469 229.460938 L 299.625 232.40625 Z M 89.585938 227.421875 L 95.785156 224.839844 L 95.757812 224.765625 L 88.65625 227.808594 L 83.515625 229.949219 L 88.613281 227.828125 L 83.535156 230.003906 Z M 295.519531 225.191406 L 301.855469 227 L 295.464844 225.164062 L 289.519531 222.195312 L 289.070312 223.351562 L 295.519531 225.191406 L 301.414062 228.136719 Z M 88.050781 223.070312 L 94.351562 221.269531 L 88.050781 223.070312 L 94.101562 220.550781 L 87.957031 223.097656 L 81.558594 224.925781 L 81.816406 225.667969 Z M 303.371094 222.921875 L 296.933594 220.773438 L 303.171875 223.445312 Z M 86.433594 218.75 L 92.753906 216.640625 L 92.707031 216.5 L 85.957031 218.910156 L 80.136719 220.847656 L 85.941406 218.910156 L 80.179688 220.972656 Z M 297.0625 220.828125 L 290.753906 218.714844 Z M 304.871094 218.253906 L 298.21875 216.347656 L 304.785156 218.539062 Z M 292.085938 214.59375 L 298.476562 216.429688 Z M 85.453125 214.226562 L 91.566406 212.699219 L 85.453125 214.226562 L 91.511719 212.496094 L 85.113281 214.308594 L 78.664062 215.921875 L 78.722656 216.144531 Z M 299.808594 212 L 306.265625 213.074219 L 299.714844 211.972656 L 293.316406 210.144531 L 293.148438 210.890625 L 299.808594 212 L 306.101562 213.800781 Z M 83.964844 209.851562 L 90.476562 208.457031 L 90.421875 208.226562 L 83.652344 209.917969 L 77.472656 211.246094 L 83.644531 209.925781 L 77.519531 211.453125 Z M 307.339844 208.417969 L 300.691406 207.464844 L 307.0625 209.585938 Z M 294.171875 206.535156 L 300.753906 207.484375 Z M 83.265625 205.277344 L 89.578125 204.222656 L 83.265625 205.277344 L 89.527344 203.9375 L 83.019531 205.316406 L 76.460938 206.410156 L 76.523438 206.722656 Z M 308.191406 203.875 L 301.128906 202.871094 L 295.042969 201.855469 L 301.128906 202.871094 L 295.023438 202 L 301.601562 202.953125 L 308.164062 204.046875 Z M 82.238281 200.777344 L 88.839844 199.832031 L 88.8125 199.667969 L 81.789062 200.835938 L 75.671875 201.714844 L 81.777344 200.84375 L 75.691406 201.855469 Z M 308.855469 199.308594 L 301.792969 198.300781 L 295.710938 197.289062 L 301.792969 198.300781 L 295.691406 197.433594 L 302.269531 198.382812 L 308.828125 199.476562 Z M 81.679688 196.195312 L 88.316406 195.71875 L 88.242188 195.085938 L 81.566406 196.203125 L 75.054688 196.664062 L 81.566406 196.203125 L 75.121094 197.277344 Z M 302.828125 193.78125 L 309.394531 193.78125 L 302.746094 193.769531 L 296.160156 192.832031 L 296.089844 193.78125 L 302.828125 193.78125 L 309.332031 194.714844 Z M 81.226562 191.59375 L 87.933594 191.117188 L 87.929688 191.027344 L 80.429688 191.652344 L 74.671875 192.070312 L 80.375 191.660156 L 74.679688 192.136719 Z M 309.679688 189.160156 L 302.960938 189.160156 L 309.589844 190.261719 Z M 303.03125 189.171875 L 296.382812 189.160156 Z M 81.105469 186.976562 L 87.75 186.976562 L 87.730469 186.414062 L 80.96875 186.976562 L 74.457031 186.976562 L 80.96875 186.976562 L 74.476562 187.519531 Z M 309.773438 184.542969 L 296.472656 184.558594 L 309.773438 184.558594 Z M 309.773438 184.3125 L 296.472656 184.328125 L 309.773438 184.328125 Z M 81.238281 182.355469 L 74.476562 181.792969 L 74.457031 182.355469 Z M 87.75 182.355469 L 81.105469 182.339844 L 81.238281 182.355469 Z M 303.097656 179.699219 L 309.671875 179.699219 L 303.097656 179.699219 L 309.597656 178.699219 L 303.023438 179.699219 L 296.375 179.699219 L 296.449219 180.71875 Z M 87.933594 177.734375 L 81.125 177.734375 L 74.652344 177.269531 L 81.125 177.734375 L 74.640625 177.734375 L 81.289062 177.746094 L 87.921875 178.222656 Z M 296.144531 176.027344 L 302.730469 175.097656 Z M 309.3125 174.152344 L 302.648438 175.101562 L 309.378906 175.101562 Z M 88.289062 173.613281 L 81.660156 173.132812 Z M 75.089844 172.117188 L 75.027344 172.667969 L 81.804688 173.152344 Z M 303.226562 170.359375 L 308.828125 169.554688 L 303.296875 170.34375 L 308.820312 169.496094 L 302.335938 170.480469 L 295.664062 171.433594 L 295.675781 171.511719 Z M 88.804688 169.488281 L 81.238281 168.40625 L 75.644531 167.542969 L 81.191406 168.398438 L 75.636719 167.605469 L 82.148438 168.542969 L 88.792969 169.5625 Z M 301.570312 165.941406 L 308.15625 165 L 308.140625 164.921875 L 300.542969 166.089844 L 294.988281 166.882812 L 300.542969 166.089844 L 294.996094 166.945312 Z M 89.558594 164.925781 L 82.84375 163.96875 L 76.496094 162.5 L 82.84375 163.960938 L 76.394531 163.039062 L 82.972656 163.988281 L 89.449219 165.484375 Z M 300.800781 161.378906 L 307.285156 160.378906 L 300.800781 161.378906 L 307.109375 159.578125 L 300.710938 161.390625 L 294.140625 162.40625 L 294.324219 163.234375 Z M 90.421875 160.863281 L 83.230469 159.320312 L 77.441406 157.988281 L 83.210938 159.320312 L 77.417969 158.074219 L 83.890625 159.476562 L 90.394531 160.976562 Z M 299.660156 156.90625 L 306.238281 155.96875 L 306.007812 154.941406 L 299.585938 156.917969 L 293.074219 157.851562 L 299.585938 156.917969 L 293.296875 158.851562 Z M 91.539062 156.484375 L 84.902344 154.957031 L 78.699219 153.046875 L 84.902344 154.957031 L 78.582031 153.492188 L 85.058594 155.003906 L 91.414062 156.960938 Z M 304.769531 150.503906 L 304.769531 150.488281 L 292.058594 154.410156 Z M 86.535156 150.625 L 92.726562 152.527344 L 86.378906 150.5625 L 80.171875 148.179688 L 80.015625 148.621094 L 86.535156 150.625 L 92.585938 152.949219 Z M 297.070312 148.027344 L 303.34375 146.097656 L 297.070312 148.027344 L 303.03125 145.277344 L 296.988281 148.050781 L 290.632812 150.007812 L 290.953125 150.847656 Z M 94.242188 148.144531 L 87.722656 146.140625 L 81.675781 143.8125 L 87.722656 146.140625 L 81.53125 144.234375 L 87.878906 146.199219 L 94.085938 148.585938 Z M 295.445312 143.707031 L 301.574219 141.304688 L 301.417969 140.9375 L 295.714844 143.570312 L 301.332031 140.761719 L 295.539062 143.652344 L 289.191406 146.152344 L 289.347656 146.507812 L 289.339844 146.507812 L 289.347656 146.507812 L 289.4375 146.703125 Z M 95.777344 144.277344 L 89.578125 141.878906 Z M 287.648438 142.453125 L 293.601562 139.492188 Z M 83.625 138.90625 L 83.359375 139.503906 L 89.683594 141.9375 Z M 97.648438 140.027344 L 91.332031 137.601562 L 85.496094 134.679688 L 91.332031 137.601562 L 85.238281 135.257812 L 91.4375 137.65625 L 97.382812 140.632812 Z M 299.957031 137.535156 L 299.542969 136.507812 L 293.535156 139.511719 Z M 297.59375 132.339844 L 297.585938 132.332031 L 285.699219 138.292969 Z M 93.644531 133.585938 L 99.4375 136.480469 L 93.496094 133.496094 L 87.75 130.144531 L 87.539062 130.53125 L 93.644531 133.585938 L 99.230469 136.847656 Z M 289.585938 131.179688 L 295.453125 128.25 L 289.585938 131.179688 L 295.042969 127.542969 L 289.503906 131.21875 L 283.554688 134.195312 L 283.976562 134.921875 Z M 101.652344 132.410156 L 95.546875 129.355469 L 89.960938 126.09375 L 95.546875 129.355469 L 89.761719 126.460938 L 95.703125 129.445312 L 101.449219 132.796875 Z M 281.671875 130.914062 L 287.214844 127.234375 Z M 103.820312 128.824219 L 98.082031 125.46875 Z M 293.046875 124.046875 L 292.734375 123.53125 L 287.089844 127.289062 Z M 279.363281 127.234375 L 284.746094 123.332031 Z M 92.707031 121.558594 L 92.332031 122.128906 L 98.179688 125.535156 Z M 106.375 124.957031 L 100.53125 121.554688 L 95.242188 117.707031 L 100.523438 121.546875 L 94.882812 118.257812 L 100.617188 121.613281 L 105.996094 125.523438 Z M 287.5 115.632812 L 287.492188 115.625 L 276.746094 123.457031 Z M 290.695312 120.363281 L 290.117188 119.417969 L 284.683594 123.367188 Z M 103.488281 117.992188 L 108.699219 121.785156 L 103.332031 117.863281 L 98.183594 113.648438 L 97.949219 113.953125 L 103.488281 117.992188 L 108.476562 122.070312 Z M 279.390625 115.808594 L 284.707031 111.941406 L 279.390625 115.808594 L 284.039062 111.160156 L 279.328125 115.851562 L 273.953125 119.757812 L 274.636719 120.558594 Z M 111.378906 118.378906 L 105.429688 113.621094 L 101.035156 110.023438 L 105.382812 113.585938 L 100.992188 110.078125 L 106.109375 114.183594 L 111.324219 118.445312 Z M 276.535156 112.171875 L 281.585938 108.128906 L 276.535156 112.171875 L 281.320312 107.820312 L 276.390625 112.289062 L 271.199219 116.441406 L 271.476562 116.769531 Z M 114.335938 114.925781 L 109 110.5625 L 104.234375 106.273438 L 108.992188 110.554688 L 104.039062 106.496094 L 109.175781 110.710938 L 114.117188 115.164062 Z M 273.328125 108.855469 L 268.617188 113.550781 Z M 112.40625 107.40625 L 117.265625 111.785156 L 112.332031 107.324219 L 107.886719 102.382812 L 107.382812 102.886719 L 112.40625 107.40625 L 116.78125 112.269531 Z M 270.253906 105.382812 L 274.800781 100.835938 L 270.253906 105.382812 L 274.554688 100.601562 L 270.105469 105.539062 L 265.402344 110.242188 L 265.664062 110.492188 Z M 120.3125 108.78125 L 115.457031 103.925781 L 111.15625 99.148438 L 115.457031 103.925781 L 110.910156 99.378906 L 115.601562 104.089844 L 120.050781 109.03125 Z M 278.519531 104.703125 L 278.023438 104.144531 L 273.246094 108.921875 Z M 266.753906 102.363281 L 271.457031 97.660156 L 271.191406 97.410156 L 266.597656 102.511719 L 262.050781 107.0625 L 266.597656 102.511719 L 262.292969 107.292969 Z M 123.464844 105.914062 L 119.027344 100.964844 Z M 263.3125 99.265625 L 267.710938 94.382812 L 263.3125 99.265625 L 266.957031 93.800781 L 263.257812 99.324219 L 258.8125 104.265625 L 259.582031 104.867188 Z M 126.761719 103.152344 L 122.5625 98 Z M 259.882812 96.152344 L 263.808594 91.238281 L 259.882812 96.152344 L 263.652344 91.121094 L 259.65625 96.429688 L 255.496094 101.628906 L 255.667969 101.765625 Z M 114.8125 95.816406 L 114.566406 96.027344 L 119.183594 101.152344 Z M 122.300781 89.800781 L 122.296875 89.808594 L 130.125 100.554688 Z M 252.246094 99.230469 L 255.945312 93.703125 Z M 118.40625 92.808594 L 118.339844 92.859375 L 123.207031 98.800781 Z M 130.039062 92.617188 L 133.878906 97.90625 L 129.976562 92.519531 L 126.625 86.777344 L 126.054688 87.152344 L 130.039062 92.617188 L 133.328125 98.257812 Z M 248.746094 96.859375 L 252.105469 91.121094 Z M 137.425781 95.621094 L 133.703125 89.769531 L 130.5 84.277344 L 133.703125 89.761719 L 130.289062 84.398438 L 133.84375 90.007812 L 137.195312 95.757812 Z M 251.519531 82.957031 L 251.511719 82.949219 L 244.824219 94.445312 Z M 260.097656 88.511719 L 259.621094 88.164062 L 255.855469 93.8125 Z M 137.828125 87.667969 L 141.164062 93.417969 Z M 244.132812 86.445312 L 241.148438 92.386719 Z M 138.921875 79.550781 L 138.914062 79.558594 L 144.875 91.449219 Z M 256.265625 85.929688 L 255.449219 85.371094 L 252.058594 91.183594 Z M 240.082031 84.175781 L 242.960938 78.402344 L 240.082031 84.175781 L 242.621094 78.246094 L 239.992188 84.351562 L 237.015625 90.296875 L 237.382812 90.46875 Z M 149.007812 89.449219 L 146.046875 83.496094 Z M 238.410156 76.335938 L 238.332031 76.308594 L 233.167969 88.566406 Z M 152.828125 87.8125 L 150.117188 81.300781 L 147.875 75.46875 L 150.109375 81.285156 L 147.710938 75.527344 L 150.253906 81.660156 L 152.644531 87.878906 Z M 134.851562 81.71875 L 134.464844 81.929688 L 137.902344 87.832031 Z M 231.570312 80.503906 L 234.042969 74.570312 L 231.570312 80.503906 L 233.730469 74.445312 L 231.488281 80.699219 L 228.933594 86.839844 L 229.265625 86.96875 Z M 247.484375 80.699219 L 247.09375 80.488281 L 244.042969 86.59375 Z M 154.664062 80.257812 L 156.960938 86.234375 L 154.582031 80.019531 L 152.484375 73.714844 L 152.191406 73.820312 L 154.664062 80.257812 L 156.691406 86.328125 Z M 227.132812 79.164062 L 229.367188 72.902344 L 229.226562 72.855469 L 226.953125 79.667969 L 224.894531 85.433594 L 226.953125 79.667969 L 225.015625 85.472656 Z M 157.011719 72.199219 L 156.996094 72.199219 L 160.917969 84.910156 Z M 222.800781 77.464844 L 224.535156 71.394531 L 222.800781 77.457031 L 224.332031 71.347656 L 222.707031 77.785156 L 220.878906 84.1875 L 221.101562 84.25 Z M 163.398438 77.269531 L 165.34375 83.625 Z M 143.660156 77.289062 L 143.0625 77.554688 L 146.085938 83.609375 Z M 218.253906 76.621094 L 216.847656 83.121094 Z M 167.886719 76.171875 L 169.367188 82.660156 Z M 213.78125 75.386719 L 215.121094 69.125 L 213.78125 75.386719 L 214.835938 69.070312 L 213.734375 75.625 L 212.339844 82.128906 L 212.652344 82.1875 Z M 173.804688 81.769531 L 172.371094 75.074219 L 171.394531 68.691406 L 172.371094 75.066406 L 171.019531 68.757812 L 172.398438 75.261719 L 173.410156 81.835938 Z M 208.242188 81.40625 L 209.191406 74.828125 Z M 177.988281 81.117188 L 176.824219 73.558594 L 176.023438 67.960938 L 176.808594 73.496094 L 175.960938 67.96875 L 176.945312 74.460938 L 177.898438 81.128906 Z M 204.632812 74.03125 L 205.542969 67.636719 L 204.632812 74.03125 L 205.167969 67.59375 L 204.605469 74.214844 L 203.667969 80.804688 L 204.066406 80.851562 Z M 182.574219 80.585938 L 181.542969 73.875 L 181.078125 67.382812 L 181.542969 73.875 L 180.550781 67.445312 L 181.546875 74.019531 L 182.023438 80.652344 Z M 200.015625 73.800781 L 199.535156 80.4375 Z M 186.632812 80.3125 L 186.171875 73.679688 Z M 195.40625 73.570312 L 195.957031 66.941406 L 195.394531 66.921875 L 195.394531 73.707031 L 194.851562 80.199219 L 195.394531 73.707031 L 195.394531 80.21875 Z M 190.785156 66.882812 L 190.773438 66.882812 L 190.785156 80.183594 Z M 162.003906 70.761719 L 161.433594 70.914062 L 163.425781 77.398438 Z M 166.492188 69.667969 L 166.375 69.695312 L 168.035156 76.878906 Z M 220.355469 70.3125 L 219.632812 70.117188 L 218.21875 76.722656 Z M 210.289062 68.269531 L 210.125 68.242188 L 209.117188 75.304688 Z M 200.566406 67.175781 L 200.480469 67.167969 L 199.941406 74.734375 Z M 186.171875 67.03125 L 185.6875 67.050781 L 186.171875 73.847656 Z M 186.171875 67.03125 "/></g><g clip-rule="nonzero" clip-path="url(#b078b9d617)"><path style=" stroke:none;fill-rule:nonzero;fill:#000000;fill-opacity:1;" d="M 191.460938 74.050781 C 129.675781 74.050781 79.4375 124.289062 79.4375 186.074219 C 79.4375 228.179688 102.710938 266.363281 140.144531 285.664062 C 140.144531 285.664062 140.191406 285.664062 140.238281 285.710938 C 149.351562 290.523438 157.71875 292.957031 165.335938 292.957031 C 171.363281 292.957031 176.878906 291.414062 181.878906 288.375 C 200.339844 277.160156 202.769531 249.492188 202.582031 233.976562 C 202.488281 227.761719 197.441406 222.710938 191.226562 222.710938 L 191.085938 222.710938 C 184.777344 222.804688 179.777344 227.945312 179.824219 234.210938 C 180.011719 251.546875 176.226562 265.148438 170.054688 268.886719 C 165.054688 271.925781 156.785156 268.699219 150.707031 265.429688 C 150.660156 265.429688 150.660156 265.382812 150.613281 265.382812 C 150.613281 265.382812 150.566406 265.382812 150.566406 265.335938 C 120.703125 249.960938 102.148438 219.535156 102.148438 185.980469 C 102.148438 136.765625 142.203125 96.714844 191.414062 96.714844 C 240.625 96.714844 280.675781 136.765625 280.675781 185.980469 C 280.675781 203.785156 275.488281 220.84375 265.675781 235.519531 C 263.433594 231.3125 260.957031 224.300781 259.789062 220.890625 C 259.507812 220.050781 252.683594 199.859375 241.839844 179.390625 C 225.53125 148.542969 209.03125 133.542969 191.554688 133.542969 C 174.027344 133.542969 157.578125 148.542969 141.21875 179.390625 C 130.378906 199.859375 123.554688 220.003906 123.273438 220.890625 C 121.265625 226.824219 124.488281 233.273438 130.425781 235.285156 C 136.359375 237.292969 142.855469 234.070312 144.820312 228.132812 C 144.867188 227.945312 151.316406 208.925781 161.316406 190.046875 C 174.496094 165.183594 185.570312 156.300781 191.507812 156.300781 C 197.441406 156.300781 208.472656 165.089844 221.605469 189.8125 C 231.605469 208.644531 238.148438 227.945312 238.242188 228.226562 C 242.777344 241.359375 248.476562 257.671875 261.9375 260.195312 C 266.9375 261.128906 274.554688 260.382812 282.359375 251.269531 L 283.015625 250.425781 C 296.378906 231.5 303.4375 209.207031 303.4375 185.933594 C 303.4375 124.289062 253.199219 74.050781 191.460938 74.050781 Z M 191.460938 74.050781 "/></g><path style=" stroke:none;fill-rule:nonzero;fill:#000000;fill-opacity:1;" d="M 180.058594 206.542969 C 180.058594 212.804688 185.152344 217.898438 191.414062 217.898438 C 197.675781 217.898438 202.769531 212.804688 202.769531 206.542969 C 202.769531 200.28125 197.675781 195.1875 191.414062 195.1875 C 185.152344 195.140625 180.058594 200.234375 180.058594 206.542969 Z M 180.058594 206.542969 "/></g></svg>